<?xml version="1.0" encoding="iso-8859-1"?>
<!-- Generator: Adobe Illustrator 22.0.0, SVG Export Plug-In . SVG Version: 6.00 Build 0)  -->
<svg version="1.1" id="&#x56FE;&#x5C42;_1" xmlns="http://www.w3.org/2000/svg" xmlns:xlink="http://www.w3.org/1999/xlink" x="0px"
	 y="0px" viewBox="0 0 800 800" style="enable-background:new 0 0 800 800;" xml:space="preserve">
<g style="opacity:0.4;">
	<polygon style="fill:#00AEFF;" points="427.79,103.339 281.37,103.339 208.159,230.143 281.37,356.947 427.79,356.947 501,230.143 
			"/>
</g>
<g>
	<path style="fill:#00AEFF;" d="M208.735,173.985c0.315,0.182,0.659,0.268,0.998,0.268c0.691,0,1.363-0.359,1.734-1l2-3.464
		c0.552-0.957,0.224-2.18-0.732-2.732c-0.315-0.182-0.659-0.268-0.998-0.268c-0.69,0-1.362,0.358-1.733,0.998l-1.901,3.292
		c0,0,0,0,0,0l-0.035,0.061c0,0,0,0,0,0.001l-0.003,0.006c-0.001,0.001-0.001,0.002-0.002,0.003l0,0
		c0,0.001-0.001,0.002-0.001,0.003l-0.001,0.002c-0.001,0.002-0.002,0.004-0.003,0.005l-0.007,0.012
		c0,0.001-0.001,0.001-0.001,0.002l0,0c-0.001,0.001-0.001,0.002-0.002,0.003l0,0c0,0.001-0.001,0.002-0.001,0.002l-0.001,0.002
		c-0.001,0.002-0.002,0.003-0.003,0.005l0,0.001c0,0.001-0.001,0.001-0.001,0.002l0,0.001c0,0,0,0.001-0.001,0.001l-0.001,0.002
		c-0.001,0.001-0.002,0.003-0.002,0.004l-0.001,0.001c0,0.001-0.001,0.002-0.001,0.002l-0.009,0.015
		c-0.001,0.002-0.002,0.004-0.003,0.006l-0.001,0.001c-0.001,0.002-0.003,0.005-0.004,0.007l-0.001,0.002
		c0,0.001-0.001,0.002-0.001,0.002l0,0c0,0.001-0.001,0.002-0.001,0.003l-0.001,0.001c-0.001,0.001-0.002,0.003-0.002,0.004l0,0.001
		c0,0,0,0,0,0l-0.001,0.001c0,0.001-0.001,0.001-0.001,0.002l0,0.001c0,0,0,0,0,0.001l0,0c0,0,0,0,0,0l-0.002,0.004c0,0,0,0,0,0
		l0,0.001c0,0,0,0,0,0l-0.001,0.002C207.451,172.21,207.779,173.433,208.735,173.985z"/>
	<path style="fill:#00AEFF;" d="M205.733,279.104c-0.339,0-0.683,0.086-0.998,0.268c-0.954,0.551-1.283,1.769-0.736,2.725
		l1.562,2.705c0.004,0.007,0.008,0.015,0.013,0.022l0.001,0.002c0.001,0.002,0.002,0.004,0.003,0.006l0.002,0.003
		c0.247,0.429,0.423,0.733,0.423,0.733c0.37,0.642,1.043,1,1.734,1c0.339,0,0.683-0.086,0.998-0.268
		c0.957-0.552,1.284-1.775,0.732-2.732l-2-3.464C207.097,279.463,206.425,279.104,205.733,279.104z"/>
	<path style="fill:#00AEFF;" d="M217.733,299.889c-0.339,0-0.683,0.086-0.998,0.268c-0.954,0.551-1.283,1.769-0.736,2.725
		l1.731,2.999c0.001,0.002,0.002,0.003,0.003,0.005l0.001,0.002c0.002,0.004,0.005,0.008,0.007,0.012l0.002,0.003
		c0.005,0.009,0.01,0.017,0.015,0.026l0.001,0.001c0.149,0.259,0.245,0.424,0.245,0.424c0.37,0.642,1.043,1,1.734,1
		c0.339,0,0.683-0.086,0.998-0.268c0.957-0.552,1.284-1.775,0.732-2.732l-2-3.464C219.097,300.247,218.425,299.889,217.733,299.889z
		"/>
	<path style="fill:#00AEFF;" d="M214.735,163.593c0.315,0.182,0.659,0.268,0.998,0.268c0.691,0,1.364-0.359,1.734-1l2-3.464
		c0.552-0.957,0.224-2.18-0.732-2.732c-0.315-0.182-0.659-0.268-0.998-0.268c-0.691,0-1.363,0.359-1.734,1l-2,3.464
		C213.451,161.817,213.779,163.041,214.735,163.593z"/>
	<path style="fill:#00AEFF;" d="M220.735,153.201c0.315,0.182,0.659,0.268,0.998,0.268c0.691,0,1.363-0.359,1.734-1l2-3.464
		c0.552-0.957,0.224-2.18-0.732-2.732c-0.315-0.182-0.659-0.268-0.998-0.268c-0.69,0-1.361,0.358-1.732,0.997l-2.002,3.468
		C219.451,151.426,219.779,152.649,220.735,153.201z"/>
	<path style="fill:#00AEFF;" d="M211.733,289.496c-0.339,0-0.683,0.086-0.998,0.268c-0.956,0.552-1.284,1.773-0.734,2.729
		l2.004,3.471c0.371,0.639,1.042,0.996,1.732,0.996c0.339,0,0.683-0.086,0.998-0.268c0.957-0.552,1.284-1.776,0.732-2.732l-2-3.464
		C213.097,289.855,212.425,289.496,211.733,289.496z"/>
	<path style="fill:#00AEFF;" d="M193.733,258.319c-0.339,0-0.683,0.086-0.998,0.268c-0.954,0.551-1.283,1.77-0.736,2.725
		l2.008,3.479c0.371,0.637,1.041,0.992,1.729,0.992c0.339,0,0.683-0.086,0.998-0.268c0.957-0.552,1.284-1.775,0.732-2.732l-2-3.464
		C195.097,258.678,194.425,258.319,193.733,258.319z"/>
	<path style="fill:#00AEFF;" d="M190.735,205.162c0.315,0.182,0.659,0.268,0.998,0.268c0.691,0,1.364-0.359,1.734-1l2-3.464
		c0.552-0.957,0.224-2.18-0.732-2.732c-0.315-0.182-0.659-0.268-0.998-0.268c-0.691,0-1.363,0.359-1.734,1l-2,3.464
		C189.451,203.387,189.779,204.61,190.735,205.162z"/>
	<path style="fill:#00AEFF;" d="M202.735,184.378c0.315,0.182,0.659,0.268,0.998,0.268c0.691,0,1.364-0.359,1.734-1l2-3.464
		c0.552-0.957,0.224-2.18-0.732-2.732c-0.315-0.182-0.659-0.268-0.998-0.268c-0.691,0-1.363,0.359-1.734,1l-2,3.464
		C201.451,182.602,201.779,183.825,202.735,184.378z"/>
	<path style="fill:#00AEFF;" d="M189.737,255.392c0.339,0,0.683-0.086,0.998-0.268c0.957-0.552,1.284-1.775,0.732-2.732l-2-3.464
		c-0.37-0.642-1.043-1-1.734-1c-0.339,0-0.683,0.086-0.998,0.268c-0.956,0.552-1.284,1.775-0.733,2.731l2.002,3.468
		C188.375,255.034,189.047,255.392,189.737,255.392z"/>
	<path style="fill:#00AEFF;" d="M199.733,268.712c-0.339,0-0.683,0.086-0.998,0.268c-0.956,0.552-1.284,1.774-0.733,2.73l2.003,3.47
		c0.371,0.64,1.042,0.997,1.732,0.997c0.339,0,0.683-0.086,0.998-0.268c0.957-0.552,1.284-1.775,0.732-2.732l-2-3.464
		C201.097,269.07,200.425,268.712,199.733,268.712z"/>
	<path style="fill:#00AEFF;" d="M196.735,194.77c0.315,0.182,0.659,0.268,0.998,0.268c0.691,0,1.363-0.359,1.734-1l2-3.464
		c0.552-0.957,0.224-2.18-0.732-2.732c-0.315-0.182-0.659-0.268-0.998-0.268c-0.691,0-1.362,0.358-1.733,0.999l-1.126,1.95
		c0,0.001-0.001,0.002-0.001,0.003l-0.043,0.075c-0.001,0.002-0.002,0.004-0.004,0.006l-0.027,0.047
		c0,0.001-0.001,0.001-0.001,0.002l-0.014,0.025c-0.001,0.002-0.002,0.004-0.003,0.006l-0.004,0.006
		c-0.003,0.005-0.005,0.009-0.008,0.014l-0.004,0.007c-0.007,0.012-0.014,0.024-0.02,0.035l-0.001,0.002
		c-0.007,0.012-0.013,0.023-0.02,0.035l-0.003,0.006c-0.014,0.024-0.028,0.049-0.042,0.073l-0.002,0.004
		c-0.007,0.011-0.013,0.023-0.02,0.034l-0.002,0.003c-0.007,0.012-0.013,0.023-0.02,0.035l-0.003,0.005
		c-0.351,0.608-0.631,1.093-0.631,1.093C195.451,192.994,195.779,194.218,196.735,194.77z"/>
	<path style="fill:#00AEFF;" d="M232.735,132.416c0.315,0.182,0.659,0.268,0.998,0.268c0.691,0,1.363-0.359,1.734-1l2-3.464
		c0.552-0.957,0.224-2.18-0.732-2.732c-0.315-0.182-0.659-0.268-0.998-0.268c-0.69,0-1.361,0.357-1.732,0.997l-2.003,3.47
		C231.451,130.642,231.779,131.864,232.735,132.416z"/>
	<path style="fill:#00AEFF;" d="M244.735,111.631c0.315,0.182,0.659,0.268,0.998,0.268c0.691,0,1.363-0.359,1.734-1l2-3.464
		c0.552-0.957,0.224-2.18-0.732-2.732c-0.315-0.182-0.659-0.268-0.998-0.268c-0.69,0-1.36,0.357-1.731,0.996l-2.004,3.472
		C243.452,109.859,243.78,111.08,244.735,111.631z"/>
	<path style="fill:#00AEFF;" d="M249.467,352.851c-0.37-0.642-1.043-1-1.734-1c-0.339,0-0.683,0.086-0.998,0.268
		c-0.955,0.551-1.283,1.771-0.735,2.726l2.007,3.476c0.371,0.638,1.041,0.994,1.73,0.994c0.339,0,0.683-0.086,0.998-0.268
		c0.957-0.552,1.284-1.776,0.732-2.732L249.467,352.851z"/>
	<path style="fill:#00AEFF;" d="M243.467,342.458c-0.37-0.642-1.043-1-1.734-1c-0.339,0-0.683,0.086-0.998,0.268
		c-0.954,0.551-1.282,1.769-0.737,2.724l2.005,3.473c0.371,0.641,1.043,1,1.734,1c0.339,0,0.683-0.086,0.998-0.268
		c0.957-0.552,1.284-1.775,0.732-2.732L243.467,342.458z"/>
	<path style="fill:#00AEFF;" d="M253.737,94.043c-0.691,0-1.363,0.359-1.734,1l-2,3.464c-0.552,0.957-0.225,2.18,0.732,2.732
		c0.315,0.182,0.659,0.268,0.998,0.268c0.691,0,1.364-0.359,1.734-1l2-3.464c0.382-0.661,0.335-1.445-0.041-2.052
		c1.261,0.686,2.591,1.249,3.962,1.664c0.194,0.059,0.389,0.087,0.582,0.087c0.858,0,1.651-0.556,1.913-1.419
		c0.321-1.057-0.276-2.174-1.333-2.495c-1.14-0.346-2.249-0.813-3.294-1.39c-0.968-0.532-2.184-0.18-2.717,0.787
		c-0.365,0.662-0.306,1.437,0.072,2.033C254.33,94.122,254.033,94.043,253.737,94.043z"/>
	<path style="fill:#00AEFF;" d="M255.467,363.243c-0.37-0.642-1.043-1-1.734-1c-0.339,0-0.683,0.086-0.998,0.268
		c-0.957,0.552-1.284,1.775-0.732,2.732c0,0,0.382,0.662,0.813,1.408l0.002,0.003c0.015,0.026,0.03,0.052,0.045,0.078l0,0.001
		c0.012,0.02,0.023,0.04,0.035,0.06l0,0.001c0.003,0.005,0.006,0.011,0.009,0.016l0.004,0.007c0.007,0.012,0.014,0.025,0.021,0.037
		l0,0c0.007,0.012,0.014,0.024,0.021,0.036l0.004,0.007c0.003,0.005,0.006,0.01,0.009,0.016l0.003,0.005
		c0.001,0.002,0.002,0.004,0.003,0.006l0.003,0.006c0,0,0,0.001,0.001,0.001l0.006,0.01c0,0,0.001,0.001,0.001,0.002l0.003,0.006
		c0.001,0.002,0.002,0.003,0.003,0.005l0.075,0.13c0.001,0.001,0.001,0.002,0.002,0.003l0.003,0.006
		c0,0.001,0.001,0.001,0.001,0.002l0.005,0.009c0,0.001,0.001,0.002,0.001,0.002l0.004,0.006c0.001,0.001,0.001,0.002,0.002,0.003
		l0.027,0.047c0.001,0.003,0.003,0.005,0.004,0.008l0,0.001c0.001,0.002,0.002,0.004,0.003,0.006l0.005,0.008
		c0.002,0.004,0.004,0.008,0.007,0.011l0.005,0.009c0,0,0,0,0,0.001l0.869,1.505c0.371,0.641,1.042,0.999,1.733,0.999
		c0.339,0,0.683-0.086,0.998-0.268c0.957-0.552,1.284-1.775,0.732-2.732L255.467,363.243z"/>
	<path style="fill:#00AEFF;" d="M187.467,214.822l2-3.464c0.552-0.957,0.224-2.18-0.732-2.732c-0.315-0.182-0.659-0.268-0.998-0.268
		c-0.691,0-1.363,0.358-1.734,1l-0.379,0.656c0,0,0,0,0,0.001l-0.018,0.031c-0.002,0.003-0.003,0.006-0.005,0.009l-0.015,0.026l0,0
		l-0.014,0.024c0,0.001-0.001,0.001-0.001,0.002l-0.004,0.006c-0.001,0.001-0.001,0.002-0.002,0.003l-0.019,0.032c0,0,0,0,0,0
		l-0.019,0.033c-0.002,0.004-0.005,0.008-0.007,0.012l-0.004,0.006c-0.001,0.002-0.002,0.003-0.003,0.005l-0.001,0.001
		c-0.001,0.002-0.003,0.005-0.004,0.007l-0.003,0.005c-0.001,0.001-0.001,0.002-0.002,0.003l-0.002,0.003
		c-0.001,0.002-0.002,0.003-0.003,0.005l-0.004,0.008c-0.003,0.004-0.005,0.009-0.008,0.013l-0.001,0.001
		c-0.003,0.005-0.006,0.011-0.009,0.016l-0.002,0.003c-0.006,0.011-0.012,0.022-0.019,0.032l-0.004,0.007
		c-0.013,0.023-0.026,0.046-0.04,0.069l-0.001,0.001c-0.007,0.012-0.014,0.024-0.021,0.036l-0.001,0.001
		c-0.003,0.006-0.007,0.012-0.01,0.018l-0.001,0.002c-0.003,0.004-0.005,0.009-0.008,0.013l-0.005,0.009
		c-0.586,1.014-1.365,2.363-1.365,2.363c-0.552,0.957-0.225,2.18,0.732,2.732c0.315,0.182,0.659,0.268,0.998,0.268
		C186.424,215.823,187.097,215.464,187.467,214.822z"/>
	<path style="fill:#00AEFF;" d="M226.735,142.808c0.315,0.182,0.659,0.268,0.998,0.268c0.691,0,1.364-0.359,1.734-1l2-3.464
		c0.552-0.957,0.224-2.18-0.732-2.732c-0.315-0.182-0.659-0.268-0.998-0.268c-0.691,0-1.363,0.359-1.734,1l-2,3.464
		C225.451,141.033,225.779,142.256,226.735,142.808z"/>
	<path style="fill:#00AEFF;" d="M223.733,310.281c-0.339,0-0.683,0.086-0.998,0.268c-0.955,0.552-1.283,1.772-0.734,2.728
		l2.005,3.473c0.371,0.639,1.042,0.995,1.731,0.995c0.339,0,0.683-0.086,0.998-0.268c0.957-0.552,1.284-1.776,0.732-2.732l-2-3.464
		C225.097,310.64,224.425,310.281,223.733,310.281z"/>
	<path style="fill:#00AEFF;" d="M235.733,331.066c-0.339,0-0.683,0.086-0.998,0.268c-0.955,0.551-1.283,1.771-0.735,2.727
		l2.006,3.475c0.371,0.638,1.041,0.995,1.731,0.995c0.339,0,0.683-0.086,0.998-0.268c0.957-0.552,1.284-1.776,0.732-2.732l-2-3.464
		C237.097,331.424,236.425,331.066,235.733,331.066z"/>
	<path style="fill:#00AEFF;" d="M229.733,320.673c-0.339,0-0.683,0.086-0.998,0.268c-0.954,0.551-1.283,1.769-0.736,2.724
		l1.883,3.261c0,0.001,0.001,0.002,0.001,0.003l0.002,0.004c0.001,0.002,0.003,0.005,0.004,0.007l0.007,0.012
		c0,0.001,0.001,0.002,0.001,0.002l0.002,0.003c0,0,0,0,0,0l0.002,0.003c0.001,0.002,0.002,0.004,0.004,0.006l0.002,0.003
		c0.002,0.003,0.003,0.005,0.004,0.008l0.001,0.002c0,0.001,0.001,0.001,0.001,0.002l0.004,0.008c0,0.001,0.001,0.001,0.001,0.002
		l0.001,0.001c0.053,0.092,0.083,0.144,0.083,0.144c0.37,0.642,1.043,1,1.734,1c0.339,0,0.683-0.086,0.998-0.268
		c0.957-0.552,1.284-1.775,0.732-2.732l-2-3.464C231.097,321.032,230.425,320.673,229.733,320.673z"/>
	<path style="fill:#00AEFF;" d="M263.467,377.099l-2-3.464c-0.37-0.642-1.043-1-1.734-1c-0.339,0-0.683,0.086-0.998,0.268
		c-0.955,0.551-1.283,1.77-0.736,2.726l2.008,3.477c0.371,0.637,1.041,0.993,1.73,0.993c0.339,0,0.683-0.086,0.998-0.268
		C263.692,379.279,264.02,378.056,263.467,377.099z"/>
	<path style="fill:#00AEFF;" d="M238.735,122.024c0.315,0.182,0.659,0.268,0.998,0.268c0.691,0,1.364-0.359,1.734-1l2-3.464
		c0.552-0.957,0.224-2.18-0.732-2.732c-0.315-0.182-0.659-0.268-0.998-0.268c-0.691,0-1.363,0.359-1.734,1l-2,3.464
		C237.451,120.248,237.779,121.471,238.735,122.024z"/>
	<path style="fill:#00AEFF;" d="M490.273,160.397c0.339,0,0.683-0.086,0.998-0.268c0.954-0.551,1.283-1.769,0.736-2.725l-2.009-3.48
		c-0.371-0.636-1.041-0.992-1.729-0.992c-0.339,0-0.683,0.086-0.998,0.268c-0.957,0.552-1.284,1.776-0.732,2.732l2,3.464
		C488.909,160.038,489.582,160.397,490.273,160.397z"/>
	<path style="fill:#00AEFF;" d="M464.539,117.827c0.37,0.642,1.043,1,1.734,1c0.339,0,0.683-0.086,0.998-0.268
		c0.954-0.551,1.282-1.769,0.737-2.724l-1.081-1.873c-0.002-0.003-0.003-0.006-0.005-0.008l-0.001-0.001
		c-0.002-0.003-0.003-0.005-0.005-0.008l-0.008-0.014c-0.466-0.808-0.905-1.568-0.905-1.568c-0.37-0.642-1.043-1-1.734-1
		c-0.339,0-0.683,0.086-0.998,0.268c-0.957,0.552-1.284,1.776-0.732,2.732L464.539,117.827z"/>
	<path style="fill:#00AEFF;" d="M484.273,150.005c0.339,0,0.683-0.086,0.998-0.268c0.953-0.55,1.282-1.767,0.738-2.722L484,143.535
		c-0.371-0.639-1.042-0.996-1.731-0.995c-0.339,0-0.683,0.086-0.998,0.268c-0.957,0.552-1.284,1.775-0.732,2.732l2,3.464
		C482.909,149.646,483.582,150.005,484.273,150.005z"/>
	<path style="fill:#00AEFF;" d="M183.467,238.535c-0.37-0.642-1.043-1-1.734-1c-0.339,0-0.683,0.086-0.998,0.268
		c-0.954,0.551-1.283,1.77-0.736,2.726l2.008,3.478c0.371,0.637,1.041,0.993,1.729,0.993c0.339,0,0.683-0.086,0.998-0.268
		c0.957-0.552,1.284-1.775,0.732-2.732L183.467,238.535z"/>
	<path style="fill:#00AEFF;" d="M472.273,129.22c0.339,0,0.683-0.086,0.998-0.268c0.953-0.55,1.282-1.767,0.738-2.722L472,122.75
		c-0.371-0.638-1.041-0.995-1.731-0.995c-0.339,0-0.683,0.086-0.998,0.268c-0.957,0.552-1.284,1.775-0.732,2.732l2,3.464
		C470.909,128.861,471.582,129.22,472.273,129.22z"/>
	<path style="fill:#00AEFF;" d="M496.273,170.789c0.339,0,0.683-0.086,0.998-0.268c0.953-0.55,1.282-1.767,0.738-2.722l-2.008-3.478
		c-0.371-0.639-1.042-0.996-1.732-0.996c-0.339,0-0.683,0.086-0.998,0.268c-0.957,0.552-1.284,1.775-0.732,2.732l2,3.464
		C494.909,170.431,495.582,170.789,496.273,170.789z"/>
	<path style="fill:#00AEFF;" d="M502.273,181.182c0.339,0,0.683-0.086,0.998-0.268c0.954-0.551,1.283-1.769,0.736-2.725
		l-2.009-3.479c-0.371-0.637-1.041-0.992-1.729-0.992c-0.339,0-0.683,0.086-0.998,0.268c-0.957,0.552-1.284,1.776-0.732,2.732
		l2,3.464C500.909,180.823,501.582,181.182,502.273,181.182z"/>
	<path style="fill:#00AEFF;" d="M522.539,218.286l2,3.464c0.37,0.642,1.043,1,1.734,1c0.339,0,0.683-0.086,0.998-0.268
		c0.954-0.551,1.283-1.77,0.736-2.726l-2.008-3.478c-0.371-0.637-1.041-0.993-1.73-0.993c-0.339,0-0.683,0.086-0.998,0.268
		C522.314,216.107,521.987,217.33,522.539,218.286z"/>
	<path style="fill:#00AEFF;" d="M518.269,204.894c-0.339,0-0.683,0.086-0.998,0.268c-0.957,0.552-1.284,1.775-0.732,2.732l2,3.464
		c0.37,0.642,1.043,1,1.734,1c0.339,0,0.683-0.086,0.998-0.268c0.954-0.55,1.282-1.768,0.737-2.723l-2.007-3.476
		C519.631,205.251,518.959,204.894,518.269,204.894z"/>
	<path style="fill:#00AEFF;" d="M512.269,194.501c-0.339,0-0.683,0.086-0.998,0.268c-0.957,0.552-1.284,1.775-0.732,2.732l2,3.464
		c0.37,0.642,1.043,1,1.734,1c0.339,0,0.683-0.086,0.998-0.268c0.954-0.551,1.283-1.77,0.736-2.725l-2.008-3.479
		C513.627,194.857,512.958,194.501,512.269,194.501z"/>
	<path style="fill:#00AEFF;" d="M508.273,191.574c0.339,0,0.683-0.086,0.998-0.268c0.953-0.55,1.282-1.767,0.737-2.723l-2.007-3.477
		c-0.371-0.64-1.042-0.997-1.732-0.997c-0.339,0-0.683,0.086-0.998,0.268c-0.957,0.552-1.284,1.775-0.732,2.732l2,3.464
		C506.909,191.215,507.582,191.574,508.273,191.574z"/>
	<path style="fill:#00AEFF;" d="M478.273,139.612c0.339,0,0.683-0.086,0.998-0.268c0.954-0.551,1.283-1.769,0.737-2.724l-2.009-3.48
		c-0.372-0.636-1.041-0.992-1.729-0.992c-0.339,0-0.683,0.086-0.998,0.268c-0.957,0.552-1.284,1.776-0.732,2.732l2,3.464
		C476.909,139.254,477.582,139.612,478.273,139.612z"/>
	<path style="fill:#00AEFF;" d="M262.003,77.722c-0.552,0.957-0.225,2.18,0.732,2.732c0.315,0.182,0.659,0.268,0.998,0.268
		c0.691,0,1.364-0.359,1.734-1l2-3.464c0.37-0.641,0.345-1.402,0-2h-3.464L262.003,77.722z"/>
	<path style="fill:#00AEFF;" d="M272.003,74.258c-1.105,0-2,0.895-2,2s0.895,2,2,2h4c1.105,0,2-0.895,2-2s-0.895-2-2-2H272.003z"/>
	<path style="fill:#00AEFF;" d="M256.735,90.847c0.315,0.182,0.659,0.268,0.998,0.268c0.691,0,1.363-0.359,1.734-1l2-3.464
		c0.552-0.957,0.224-2.18-0.732-2.732c-0.315-0.182-0.659-0.268-0.998-0.268c-0.689,0-1.36,0.357-1.731,0.995l-2.005,3.474
		C255.452,89.075,255.78,90.295,256.735,90.847z"/>
	<path style="fill:#00AEFF;" d="M177.467,228.143c-0.37-0.641-1.041-1-1.732-1l-1.732,3c0,0,0.031,0.054,0.085,0.148l0.001,0.002
		c0.007,0.011,0.014,0.024,0.021,0.036v0c0.004,0.006,0.008,0.013,0.011,0.02l0,0.001c0.004,0.006,0.008,0.013,0.011,0.02
		l0.001,0.002c0.008,0.014,0.016,0.028,0.025,0.043l0.001,0.001c0.004,0.007,0.008,0.014,0.013,0.022l0.001,0.002
		c0.002,0.004,0.004,0.007,0.006,0.011l0,0c0.001,0.002,0.002,0.004,0.003,0.005l0.005,0.009c0,0.001,0.001,0.002,0.001,0.003
		l0.001,0.002c0.001,0.001,0.002,0.003,0.002,0.004l0.001,0.002c0.001,0.002,0.002,0.004,0.003,0.005l0,0
		c0.001,0.001,0.002,0.003,0.002,0.004l0.003,0.005c0.003,0.005,0.006,0.011,0.01,0.017l0.001,0.001
		c0.001,0.001,0.001,0.002,0.002,0.003l0.002,0.004c0.005,0.008,0.009,0.016,0.014,0.024l0,0.001
		c0.004,0.007,0.008,0.014,0.012,0.021l0.009,0.015c0.001,0.001,0.001,0.002,0.002,0.003l0.002,0.004
		c0.002,0.003,0.003,0.006,0.005,0.009l0.005,0.009c0,0.001,0.001,0.002,0.001,0.003l0.018,0.031l0,0l0.003,0.005
		c0.002,0.003,0.004,0.007,0.006,0.01l0.008,0.014c0,0,0,0.001,0.001,0.001l0.035,0.061l0.004,0.007c0,0,0,0.001,0.001,0.001
		l1.659,2.874c0.371,0.64,1.042,0.998,1.733,0.998c0.339,0,0.683-0.086,0.998-0.268c0.957-0.552,1.284-1.775,0.732-2.732
		L177.467,228.143z"/>
	<path style="fill:#00AEFF;" d="M181.467,225.215l2-3.464c0.552-0.957,0.224-2.18-0.732-2.732c-0.315-0.182-0.659-0.268-0.998-0.268
		c-0.691,0-1.363,0.359-1.734,1l-2,3.464c-0.552,0.957-0.225,2.18,0.732,2.732c0.315,0.182,0.659,0.268,0.998,0.268
		C180.424,226.215,181.097,225.856,181.467,225.215z"/>
	<path style="fill:#00AEFF;" d="M458.539,107.435c0.37,0.642,1.043,1,1.734,1c0.339,0,0.683-0.086,0.998-0.268
		c0.957-0.552,1.284-1.775,0.732-2.732l-2-3.464c-0.37-0.642-1.043-1-1.734-1c-0.339,0-0.683,0.086-0.998,0.268
		c-0.957,0.552-1.284,1.775-0.732,2.732L458.539,107.435z"/>
	<path style="fill:#00AEFF;" d="M452.539,97.043c0.37,0.642,1.043,1,1.734,1c0.339,0,0.683-0.086,0.998-0.268
		c0.957-0.552,1.284-1.775,0.732-2.732l-2-3.464c-0.37-0.642-1.043-1-1.734-1c-0.339,0-0.683,0.086-0.998,0.268
		c-0.957,0.552-1.284,1.776-0.732,2.732L452.539,97.043z"/>
	<path style="fill:#00AEFF;" d="M463.271,348.654c-0.315-0.182-0.659-0.268-0.998-0.268c-0.691,0-1.363,0.359-1.734,1l-2,3.464
		c-0.552,0.957-0.224,2.18,0.732,2.732c0.315,0.182,0.659,0.268,0.998,0.268c0.691,0,1.363-0.359,1.734-1l2-3.464
		C464.555,350.43,464.228,349.207,463.271,348.654z"/>
	<path style="fill:#00AEFF;" d="M428.003,78.258h4c1.105,0,2-0.895,2-2s-0.895-2-2-2h-4c-1.105,0-2,0.895-2,2
		S426.899,78.258,428.003,78.258z"/>
	<path style="fill:#00AEFF;" d="M444.539,83.186l2,3.464c0.37,0.642,1.043,1,1.734,1c0.339,0,0.683-0.086,0.998-0.268
		c0.957-0.552,1.284-1.775,0.732-2.732l-2-3.464c-0.37-0.642-1.043-1-1.734-1c-0.339,0-0.683,0.086-0.998,0.268
		C444.314,81.007,443.987,82.23,444.539,83.186z"/>
	<path style="fill:#00AEFF;" d="M440.003,78.258h4c0.74,0,1.386-0.402,1.732-1l-1.732-3h-4c-1.105,0-2,0.895-2,2
		S438.899,78.258,440.003,78.258z"/>
	<path style="fill:#00AEFF;" d="M469.271,338.262c-0.315-0.182-0.659-0.268-0.998-0.268c-0.691,0-1.363,0.359-1.734,1l-2,3.464
		c-0.552,0.957-0.224,2.18,0.732,2.732c0.315,0.182,0.659,0.268,0.998,0.268c0.691,0,1.364-0.359,1.734-1l2-3.464
		C470.555,340.037,470.228,338.814,469.271,338.262z"/>
	<path style="fill:#00AEFF;" d="M416.003,78.258h4c1.105,0,2-0.895,2-2s-0.895-2-2-2h-4c-1.105,0-2,0.895-2,2
		S414.899,78.258,416.003,78.258z"/>
	<path style="fill:#00AEFF;" d="M475.271,327.87c-0.315-0.182-0.659-0.268-0.998-0.268c-0.691,0-1.363,0.359-1.734,1l-2,3.464
		c-0.552,0.957-0.224,2.18,0.732,2.732c0.315,0.182,0.659,0.268,0.998,0.268c0.691,0,1.363-0.359,1.734-1l2-3.464
		C476.555,329.645,476.228,328.422,475.271,327.87z"/>
	<path style="fill:#00AEFF;" d="M438.003,384.027c0-1.105-0.895-2-2-2h-4c-1.105,0-2,0.895-2,2s0.895,2,2,2h4
		C437.108,386.027,438.003,385.132,438.003,384.027z"/>
	<path style="fill:#00AEFF;" d="M451.271,369.439c-0.315-0.182-0.659-0.268-0.998-0.268c-0.691,0-1.363,0.359-1.734,1l-2,3.464
		c-0.552,0.957-0.224,2.18,0.732,2.732c0.315,0.182,0.659,0.268,0.998,0.268c0.691,0,1.363-0.359,1.734-1l2-3.464
		C452.555,371.214,452.228,369.991,451.271,369.439z"/>
	<path style="fill:#00AEFF;" d="M456.003,365.243l2-3.464c0.552-0.957,0.225-2.18-0.732-2.732c-0.315-0.182-0.659-0.268-0.998-0.268
		c-0.691,0-1.363,0.359-1.734,1l-2,3.464c-0.161,0.279-0.239,0.581-0.257,0.883c-0.892-0.377-1.8-0.716-2.732-0.967
		c-1.064-0.287-2.164,0.345-2.451,1.411c-0.287,1.067,0.344,2.164,1.411,2.452c1.149,0.31,2.273,0.741,3.338,1.284
		c0.291,0.148,0.601,0.218,0.906,0.218c0.728,0,1.431-0.398,1.784-1.093c0.204-0.4,0.253-0.835,0.182-1.246
		C455.242,366.064,455.715,365.742,456.003,365.243z"/>
	<path style="fill:#00AEFF;" d="M445.271,379.831c-0.315-0.182-0.659-0.268-0.998-0.268c-0.691,0-1.363,0.359-1.734,1l-2,3.464
		c-0.37,0.641-0.345,1.402,0,2h3.464l2-3.464C446.555,381.607,446.228,380.384,445.271,379.831z"/>
	<path style="fill:#00AEFF;" d="M412.003,382.027h-4c-1.105,0-2,0.895-2,2s0.895,2,2,2h4c1.105,0,2-0.895,2-2
		S413.108,382.027,412.003,382.027z"/>
	<path style="fill:#00AEFF;" d="M392.003,78.258h4c1.105,0,2-0.895,2-2s-0.895-2-2-2h-4c-1.105,0-2,0.895-2,2
		S390.899,78.258,392.003,78.258z"/>
	<path style="fill:#00AEFF;" d="M400.003,382.027h-4c-1.105,0-2,0.895-2,2s0.895,2,2,2h4c1.105,0,2-0.895,2-2
		S401.108,382.027,400.003,382.027z"/>
	<path style="fill:#00AEFF;" d="M404.003,78.258h4c1.105,0,2-0.895,2-2s-0.895-2-2-2h-4c-1.105,0-2,0.895-2,2
		S402.899,78.258,404.003,78.258z"/>
	<path style="fill:#00AEFF;" d="M388.003,382.027h-4c-1.105,0-2,0.895-2,2s0.895,2,2,2h4c1.105,0,2-0.895,2-2
		S389.108,382.027,388.003,382.027z"/>
	<path style="fill:#00AEFF;" d="M517.271,255.124c-0.315-0.182-0.659-0.268-0.998-0.268c-0.691,0-1.363,0.359-1.734,1l-2,3.464
		c-0.552,0.957-0.225,2.18,0.732,2.732c0.315,0.182,0.659,0.268,0.998,0.268c0.691,0,1.364-0.359,1.734-1l2-3.464
		C518.555,256.899,518.228,255.676,517.271,255.124z"/>
	<path style="fill:#00AEFF;" d="M523.271,244.731c-0.315-0.182-0.659-0.268-0.998-0.268c-0.691,0-1.363,0.359-1.734,1l-2,3.464
		c-0.552,0.957-0.225,2.18,0.732,2.732c0.315,0.182,0.659,0.268,0.998,0.268c0.691,0,1.363-0.359,1.734-1l2-3.464
		C524.555,246.507,524.228,245.284,523.271,244.731z"/>
	<path style="fill:#00AEFF;" d="M481.271,317.477c-0.315-0.182-0.659-0.268-0.998-0.268c-0.691,0-1.363,0.359-1.734,1l-2,3.464
		c-0.552,0.957-0.224,2.18,0.732,2.732c0.315,0.182,0.659,0.268,0.998,0.268c0.691,0,1.364-0.359,1.734-1l2-3.464
		C482.555,319.253,482.228,318.03,481.271,317.477z"/>
	<path style="fill:#00AEFF;" d="M531.998,226.669c-0.372-0.636-1.041-0.991-1.729-0.991c-0.339,0-0.683,0.086-0.998,0.268
		c-0.957,0.552-1.284,1.775-0.732,2.732l2,3.464c0.37,0.641,1.041,1,1.732,1l1.732-3L531.998,226.669z"/>
	<path style="fill:#00AEFF;" d="M511.271,265.516c-0.315-0.182-0.659-0.268-0.998-0.268c-0.691,0-1.364,0.359-1.734,1l-2,3.464
		c-0.552,0.957-0.225,2.18,0.732,2.732c0.315,0.182,0.659,0.268,0.998,0.268c0.691,0,1.363-0.359,1.734-1l2-3.464
		C512.555,267.291,512.228,266.068,511.271,265.516z"/>
	<path style="fill:#00AEFF;" d="M529.271,234.339c-0.315-0.182-0.659-0.268-0.998-0.268c-0.691,0-1.363,0.359-1.734,1l-2,3.464
		c-0.552,0.957-0.225,2.18,0.732,2.732c0.315,0.182,0.659,0.268,0.998,0.268c0.691,0,1.364-0.359,1.734-1l2-3.464
		C530.555,236.114,530.228,234.891,529.271,234.339z"/>
	<path style="fill:#00AEFF;" d="M487.271,307.085c-0.315-0.182-0.659-0.268-0.998-0.268c-0.691,0-1.364,0.359-1.734,1l-2,3.464
		c-0.552,0.957-0.225,2.18,0.732,2.732c0.315,0.182,0.659,0.268,0.998,0.268c0.691,0,1.363-0.359,1.734-1l2-3.464
		C488.555,308.861,488.228,307.637,487.271,307.085z"/>
	<path style="fill:#00AEFF;" d="M505.271,275.908c-0.315-0.182-0.659-0.268-0.998-0.268c-0.691,0-1.363,0.359-1.734,1l-2,3.464
		c-0.552,0.957-0.225,2.18,0.732,2.732c0.315,0.182,0.659,0.268,0.998,0.268c0.691,0,1.364-0.359,1.734-1l2-3.464
		C506.555,277.684,506.228,276.46,505.271,275.908z"/>
	<path style="fill:#00AEFF;" d="M493.271,296.693c-0.315-0.182-0.659-0.268-0.998-0.268c-0.691,0-1.363,0.359-1.734,1l-2,3.464
		c-0.552,0.957-0.225,2.18,0.732,2.732c0.315,0.182,0.659,0.268,0.998,0.268c0.691,0,1.364-0.359,1.734-1l2-3.464
		C494.555,298.468,494.228,297.245,493.271,296.693z"/>
	<path style="fill:#00AEFF;" d="M499.271,286.3c-0.315-0.182-0.659-0.268-0.998-0.268c-0.691,0-1.364,0.359-1.734,1l-2,3.464
		c-0.552,0.957-0.225,2.18,0.732,2.732c0.315,0.182,0.659,0.268,0.998,0.268c0.691,0,1.363-0.359,1.734-1l2-3.464
		C500.555,288.076,500.228,286.853,499.271,286.3z"/>
	<path style="fill:#00AEFF;" d="M304.003,382.027h-4c-1.105,0-2,0.895-2,2s0.895,2,2,2h4c1.105,0,2-0.895,2-2
		S305.108,382.027,304.003,382.027z"/>
	<path style="fill:#00AEFF;" d="M328.003,382.027h-4c-1.105,0-2,0.895-2,2s0.895,2,2,2h4c1.105,0,2-0.895,2-2
		S329.108,382.027,328.003,382.027z"/>
	<path style="fill:#00AEFF;" d="M320.003,78.258h4c1.105,0,2-0.895,2-2s-0.895-2-2-2h-4c-1.105,0-2,0.895-2,2
		S318.899,78.258,320.003,78.258z"/>
	<path style="fill:#00AEFF;" d="M332.003,78.258h4c1.105,0,2-0.895,2-2s-0.895-2-2-2h-4c-1.105,0-2,0.895-2,2
		S330.899,78.258,332.003,78.258z"/>
	<path style="fill:#00AEFF;" d="M316.003,382.027h-4c-1.105,0-2,0.895-2,2s0.895,2,2,2h4c1.105,0,2-0.895,2-2
		S317.108,382.027,316.003,382.027z"/>
	<path style="fill:#00AEFF;" d="M340.003,382.027h-4c-1.105,0-2,0.895-2,2s0.895,2,2,2h4c1.105,0,2-0.895,2-2
		S341.108,382.027,340.003,382.027z"/>
	<path style="fill:#00AEFF;" d="M268.003,382.027h-4c-0.74,0-1.386,0.402-1.732,1l1.732,3c0,0,0,0,0,0h4c1.105,0,2-0.895,2-2
		S269.108,382.027,268.003,382.027z"/>
	<path style="fill:#00AEFF;" d="M280.003,382.027h-4c-1.105,0-2,0.895-2,2s0.895,2,2,2h4c1.105,0,2-0.895,2-2
		S281.108,382.027,280.003,382.027z"/>
	<path style="fill:#00AEFF;" d="M380.003,78.258h4c1.105,0,2-0.895,2-2s-0.895-2-2-2h-4c-1.105,0-2,0.895-2,2
		S378.899,78.258,380.003,78.258z"/>
	<path style="fill:#00AEFF;" d="M292.003,382.027h-4c-1.105,0-2,0.895-2,2s0.895,2,2,2h4c1.105,0,2-0.895,2-2
		S293.108,382.027,292.003,382.027z"/>
	<path style="fill:#00AEFF;" d="M296.003,78.258h4c1.105,0,2-0.895,2-2s-0.895-2-2-2h-4c-1.105,0-2,0.895-2,2
		S294.899,78.258,296.003,78.258z"/>
	<path style="fill:#00AEFF;" d="M344.003,78.258h4c1.105,0,2-0.895,2-2s-0.895-2-2-2h-4c-1.105,0-2,0.895-2,2
		S342.899,78.258,344.003,78.258z"/>
	<path style="fill:#00AEFF;" d="M308.003,78.258h4c1.105,0,2-0.895,2-2s-0.895-2-2-2h-4c-1.105,0-2,0.895-2,2
		S306.899,78.258,308.003,78.258z"/>
	<path style="fill:#00AEFF;" d="M352.003,382.027h-4c-1.105,0-2,0.895-2,2s0.895,2,2,2h4c1.105,0,2-0.895,2-2
		S353.108,382.027,352.003,382.027z"/>
	<path style="fill:#00AEFF;" d="M376.003,382.027h-4c-1.105,0-2,0.895-2,2s0.895,2,2,2h4c1.105,0,2-0.895,2-2
		S377.108,382.027,376.003,382.027z"/>
	<path style="fill:#00AEFF;" d="M368.003,78.258h4c1.105,0,2-0.895,2-2s-0.895-2-2-2h-4c-1.105,0-2,0.895-2,2
		S366.899,78.258,368.003,78.258z"/>
	<path style="fill:#00AEFF;" d="M364.003,382.027h-4c-1.105,0-2,0.895-2,2s0.895,2,2,2h4c1.105,0,2-0.895,2-2
		S365.108,382.027,364.003,382.027z"/>
	<path style="fill:#00AEFF;" d="M356.003,78.258h4c1.105,0,2-0.895,2-2s-0.895-2-2-2h-4c-1.105,0-2,0.895-2,2
		S354.899,78.258,356.003,78.258z"/>
	<path style="fill:#00AEFF;" d="M251.485,89.601c0.876-0.672,1.042-1.928,0.37-2.804c-0.728-0.948-1.357-1.974-1.872-3.048
		c-0.478-0.996-1.672-1.416-2.668-0.939c-0.996,0.478-1.417,1.672-0.939,2.668c0.634,1.324,1.41,2.587,2.306,3.754
		c0.394,0.514,0.988,0.783,1.588,0.783C250.694,90.014,251.123,89.879,251.485,89.601z"/>
	<path style="fill:#00AEFF;" d="M248.44,67.212c0.342,0.229,0.729,0.339,1.113,0.339c0.644,0,1.277-0.311,1.663-0.885
		c0.665-0.991,1.436-1.916,2.291-2.751c0.791-0.771,0.806-2.038,0.034-2.828c-0.771-0.79-2.037-0.806-2.828-0.034
		c-1.052,1.027-2,2.165-2.818,3.384C247.279,65.354,247.523,66.596,248.44,67.212z"/>
	<path style="fill:#00AEFF;" d="M246.302,78.897c0.021,0,0.042,0,0.063-0.001c1.104-0.035,1.971-0.958,1.937-2.062
		c-0.006-0.181-0.009-0.362-0.008-0.549c0-1.015,0.088-2.032,0.263-3.022c0.192-1.088-0.535-2.125-1.623-2.317
		c-1.088-0.189-2.125,0.535-2.317,1.623c-0.215,1.219-0.324,2.47-0.324,3.712c0,0.227,0.003,0.454,0.01,0.679
		C244.338,78.043,245.227,78.897,246.302,78.897z"/>
	<path style="fill:#00AEFF;" d="M282.892,74.596c-0.536,0.359-0.889,0.969-0.889,1.662c0,0.644,0.31,1.211,0.783,1.577
		c-0.06,0.677-0.149,1.351-0.287,2.012c-0.226,1.082,0.467,2.141,1.548,2.367c0.138,0.029,0.275,0.043,0.411,0.043
		c0.927,0,1.758-0.648,1.956-1.591c0.166-0.792,0.282-1.597,0.356-2.408h1.233c1.105,0,2-0.895,2-2s-0.895-2-2-2h-1.351
		c-0.327-0.743-1.083-1.241-1.95-1.191C283.805,73.123,283.092,73.766,282.892,74.596z"/>
	<path style="fill:#00AEFF;" d="M267.876,97.436c0.079,0,0.158-0.004,0.238-0.014c1.461-0.173,2.908-0.5,4.299-0.971
		c1.046-0.354,1.607-1.49,1.253-2.536c-0.354-1.046-1.487-1.606-2.536-1.253c-1.128,0.382-2.302,0.647-3.488,0.789
		c-1.097,0.13-1.88,1.125-1.75,2.222C266.013,96.688,266.876,97.436,267.876,97.436z"/>
	<path style="fill:#00AEFF;" d="M270.083,59.592c1.151,0.31,2.273,0.742,3.337,1.284c0.291,0.148,0.601,0.219,0.907,0.219
		c0.728,0,1.43-0.399,1.783-1.092c0.502-0.984,0.111-2.188-0.874-2.69c-1.312-0.668-2.696-1.201-4.115-1.583
		c-1.065-0.287-2.165,0.345-2.451,1.412C268.384,58.208,269.017,59.305,270.083,59.592z"/>
	<path style="fill:#00AEFF;" d="M280.932,68.333c0.356,0.687,1.054,1.08,1.777,1.08c0.311,0,0.625-0.072,0.919-0.225
		c0.98-0.509,1.363-1.716,0.854-2.697c-0.676-1.302-1.491-2.54-2.423-3.679c-0.701-0.856-1.96-0.981-2.814-0.281
		c-0.855,0.7-0.98,1.96-0.281,2.814C279.721,66.271,280.383,67.276,280.932,68.333z"/>
	<path style="fill:#00AEFF;" d="M279.956,91.983c1.084-0.993,2.068-2.101,2.924-3.294c0.645-0.897,0.439-2.147-0.458-2.791
		c-0.897-0.644-2.146-0.438-2.791,0.458c-0.696,0.97-1.496,1.871-2.377,2.678c-0.814,0.746-0.87,2.011-0.124,2.826
		c0.395,0.431,0.934,0.649,1.475,0.649C279.088,92.509,279.572,92.335,279.956,91.983z"/>
	<path style="fill:#00AEFF;" d="M258.812,60.222c0.233,0,0.47-0.041,0.701-0.127c1.115-0.418,2.28-0.721,3.461-0.899
		c1.092-0.166,1.844-1.185,1.678-2.277c-0.166-1.093-1.193-1.842-2.277-1.678c-1.456,0.221-2.891,0.593-4.266,1.108
		c-1.034,0.388-1.559,1.541-1.171,2.575C257.239,59.726,258.001,60.222,258.812,60.222z"/>
	<path style="fill:#00AEFF;" d="M424.795,386.325c1.104-0.034,1.971-0.957,1.937-2.062c-0.006-0.183-0.009-0.365-0.009-0.55
		c0-1.016,0.088-2.031,0.263-3.021c0.192-1.088-0.534-2.125-1.622-2.317c-1.086-0.188-2.125,0.534-2.317,1.622
		c-0.118,0.668-0.197,1.347-0.25,2.029h-2.793c-1.105,0-2,0.895-2,2s0.895,2,2,2h3.687c0.305,0.187,0.66,0.299,1.042,0.299
		C424.752,386.326,424.773,386.326,424.795,386.325z"/>
	<path style="fill:#00AEFF;" d="M440.804,362.668c-1.454,0.22-2.889,0.593-4.266,1.108c-1.034,0.388-1.559,1.54-1.171,2.575
		c0.301,0.803,1.063,1.299,1.874,1.299c0.233,0,0.47-0.042,0.701-0.128c1.117-0.419,2.281-0.722,3.46-0.899
		c1.092-0.165,1.844-1.185,1.679-2.276S441.898,362.502,440.804,362.668z"/>
	<path style="fill:#00AEFF;" d="M429.142,368.481c-1.051,1.025-2,2.164-2.819,3.385c-0.616,0.917-0.371,2.159,0.546,2.774
		c0.342,0.23,0.729,0.34,1.113,0.34c0.644,0,1.276-0.311,1.663-0.886c0.666-0.991,1.436-1.917,2.291-2.75
		c0.791-0.771,0.807-2.037,0.035-2.828C431.197,367.727,429.932,367.711,429.142,368.481z"/>
	<path style="fill:#00AEFF;" d="M463.13,380.496c-1.102,0.069-1.94,1.02-1.871,2.121c0.023,0.363,0.034,0.729,0.034,1.097
		c0,1.199-0.124,2.397-0.367,3.562c-0.226,1.081,0.467,2.141,1.548,2.367c0.138,0.028,0.276,0.042,0.412,0.042
		c0.927,0,1.758-0.647,1.956-1.591c0.3-1.432,0.452-2.905,0.452-4.38c0-0.452-0.014-0.901-0.042-1.347
		C465.183,381.265,464.253,380.43,463.13,380.496z"/>
	<path style="fill:#00AEFF;" d="M449.56,400.09c-1.125,0.382-2.299,0.647-3.489,0.79c-1.097,0.131-1.879,1.127-1.748,2.224
		c0.122,1.016,0.985,1.762,1.983,1.762c0.079,0,0.16-0.005,0.24-0.015c1.464-0.175,2.91-0.502,4.297-0.972
		c1.046-0.354,1.607-1.49,1.253-2.536C451.741,400.296,450.608,399.734,449.56,400.09z"/>
	<path style="fill:#00AEFF;" d="M438.979,400.258c-1.141-0.347-2.25-0.813-3.295-1.39c-0.968-0.534-2.183-0.18-2.717,0.787
		c-0.533,0.968-0.18,2.185,0.787,2.717c1.289,0.71,2.655,1.286,4.062,1.714c0.194,0.059,0.39,0.087,0.582,0.087
		c0.858,0,1.651-0.557,1.913-1.419C440.632,401.696,440.036,400.579,438.979,400.258z"/>
	<path style="fill:#00AEFF;" d="M457.673,369.96c-0.855,0.699-0.981,1.959-0.281,2.814c0.758,0.926,1.42,1.932,1.968,2.988
		c0.356,0.687,1.054,1.079,1.777,1.079c0.311,0,0.625-0.072,0.92-0.225c0.98-0.509,1.363-1.716,0.854-2.696
		c-0.676-1.302-1.491-2.54-2.423-3.68C459.788,369.385,458.527,369.262,457.673,369.96z"/>
	<path style="fill:#00AEFF;" d="M460.851,393.326c-0.897-0.641-2.146-0.439-2.791,0.459c-0.697,0.971-1.497,1.871-2.376,2.676
		c-0.815,0.746-0.871,2.011-0.125,2.826c0.395,0.431,0.935,0.649,1.476,0.649c0.482,0,0.966-0.173,1.35-0.524
		c1.083-0.991,2.067-2.1,2.925-3.295C461.953,395.22,461.748,393.971,460.851,393.326z"/>
	<path style="fill:#00AEFF;" d="M428.412,391.178c-0.477-0.995-1.672-1.418-2.667-0.939c-0.997,0.478-1.417,1.672-0.94,2.668
		c0.634,1.323,1.41,2.586,2.306,3.754c0.394,0.513,0.987,0.782,1.588,0.782c0.425,0,0.853-0.135,1.216-0.413
		c0.876-0.673,1.042-1.929,0.369-2.805C429.556,393.276,428.926,392.252,428.412,391.178z"/>
	<path style="fill:#00AEFF;" d="M520.186,172.368c0.55,0.953,1.779,1.282,2.732,0.732s1.282-1.779,0.732-2.732l-49.47-85.685
		l5.2-2.903L466,73.795l-0.226,15.581l4.913-2.743L520.186,172.368z"/>
	<path style="fill:#00AEFF;" d="M190.814,287.793c-0.55-0.953-1.779-1.282-2.732-0.732s-1.282,1.779-0.732,2.732l49.47,85.685
		l-5.2,2.903L245,386.367l0.226-15.581l-4.913,2.743L190.814,287.793z"/>
	<path style="fill:#00AEFF;" d="M429.471,99.429H278.535l-75.468,130.714l75.468,130.714h150.936l75.468-130.714L429.471,99.429z
		 M443.241,329.008l-48.237,27.85h-82.498l-47.492-27.42l-42.184-73.065l0-52.459l42.506-73.622l46.527-26.862h85.358l44.911,25.93
		l43.044,74.555v52.459L443.241,329.008z"/>
</g>
<linearGradient id="SVGID_1_" gradientUnits="userSpaceOnUse" x1="354.5" y1="407" x2="354.5" y2="737">
	<stop  offset="0" style="stop-color:#00AEFF"/>
	<stop  offset="1" style="stop-color:#00AEFF;stop-opacity:0.1"/>
</linearGradient>
<rect x="351" y="407" style="fill:url(#SVGID_1_);" width="7" height="330"/>
</svg>
