<?xml version="1.0" encoding="iso-8859-1"?>
<!-- Generator: Adobe Illustrator 22.0.0, SVG Export Plug-In . SVG Version: 6.00 Build 0)  -->
<svg version="1.1" id="&#x56FE;&#x5C42;_1" xmlns="http://www.w3.org/2000/svg" xmlns:xlink="http://www.w3.org/1999/xlink" x="0px"
	 y="0px" viewBox="0 0 1024 1024" style="enable-background:new 0 0 1024 1024;" xml:space="preserve">
<rect x="65.725" y="66.868" style="fill:none;" width="893.608" height="856.089"/>
<rect x="548.118" y="482.844" style="fill:none;" width="378.987" height="319.814"/>
<path style="fill:#03A9F4;" d="M512.509,65.496c-189.356,0-345.299,155.943-345.299,345.299c0,72.406,19.492,136.452,61.264,194.932
	c0,2.784,2.782,5.566,5.57,11.138l250.619,331.378c5.57,5.572,16.708,11.138,27.846,11.138c11.142,0,19.496-2.784,27.851-13.921
	L790.978,614.08c2.788-2.788,2.788-5.57,5.571-11.142c41.771-58.476,61.263-128.093,61.263-194.927
	C860.596,221.439,704.652,65.496,512.509,65.496z"/>
<path style="fill:#FFFFFF;" d="M713.308,351.558c-0.325-0.391-0.587-0.716-0.978-1.042l-16.235-15.779
	c13.497-3.064,28.037-14.475,28.037-26.145c0-13.562-18.713-18.386-34.752-18.386c-16.693,0-18.648,11.54-18.844,19.691
	l-41.99-40.75c-8.542-8.477-24.712-15.193-36.774-15.193H428.248c-12.062,0-28.232,6.716-36.772,15.193l-41.925,40.685
	c-0.195-8.151-2.151-19.69-18.844-19.69c-16.039,0-34.752,4.824-34.752,18.385c0,11.671,14.54,23.017,28.037,26.146l-16.235,15.779
	c-0.391,0.327-0.653,0.718-0.978,1.042c-17.408,14.997-28.754,42.707-28.754,62.856v59.853c0,14.542,5.673,27.713,14.866,37.556
	v23.212c0,13.562,11.28,24.646,25.168,24.646h30.448c13.888,0,25.168-11.02,25.168-24.646v-5.933h272.803v5.933
	c0,13.562,11.279,24.646,25.168,24.646h30.451c13.888,0,25.168-11.084,25.168-24.646v-23.212
	c9.193-9.844,14.864-23.015,14.864-37.556v-59.853C742.065,394.265,730.719,366.555,713.308,351.558z M406.927,287.269
	c5.933-4.955,16.235-8.671,21.386-8.671h163.525c5.151,0,15.453,3.782,21.386,8.671l55.031,53.66H351.897L406.927,287.269z
	 M325.464,438.536h0.002c-14.151,0-25.626-11.931-25.626-26.665c0-14.738,11.475-26.668,25.626-26.668
	c14.148,0,60.375,27.318,60.375,42.054C385.841,441.992,339.614,438.536,325.464,438.536z M587.34,471.204H432.812
	c-16.106,0-29.145-19.953-29.145-44.599h212.818C616.485,451.187,603.443,471.204,587.34,471.204z M700.634,438.536
	c-14.148,0-60.378,3.391-60.378-11.344c0-14.735,46.23-42.057,60.378-42.057c14.148,0,25.624,11.933,25.624,26.668
	C726.257,426.606,714.782,438.536,700.634,438.536z"/>
</svg>
