<?xml version="1.0" encoding="iso-8859-1"?>
<!-- Generator: Adobe Illustrator 22.0.0, SVG Export Plug-In . SVG Version: 6.00 Build 0)  -->
<svg version="1.1" id="&#x56FE;&#x5C42;_1" xmlns="http://www.w3.org/2000/svg" xmlns:xlink="http://www.w3.org/1999/xlink" x="0px"
	 y="0px" viewBox="0 0 1024 1024" style="enable-background:new 0 0 1024 1024;" xml:space="preserve">
<rect x="65.725" y="66.868" style="fill:none;" width="893.608" height="856.089"/>
<rect x="548.118" y="482.844" style="fill:none;" width="378.987" height="319.814"/>
<path style="fill:#169C45;" d="M513.039,64.652c-189.356,0-345.299,155.943-345.299,345.299c0,72.406,19.492,136.452,61.264,194.932
	c0,2.784,2.782,5.566,5.57,11.138l250.619,331.378c5.57,5.572,16.708,11.138,27.846,11.138c11.142,0,19.496-2.784,27.851-13.921
	l250.618-331.378c2.788-2.788,2.788-5.57,5.571-11.142c41.771-58.476,61.263-128.093,61.263-194.927
	C861.126,220.595,705.183,64.652,513.039,64.652z"/>
<g>
	<path style="fill:#FFFFFF;" d="M467.146,257.547h92.375c10.691,0,19.705-10.195,19.705-22.761c0-12.547-8.996-22.692-20.272-22.692
		h-91.809c-11.259,0-20.253,10.145-20.253,22.692C446.893,247.352,455.905,257.547,467.146,257.547z"/>
	<path style="fill:#FFFFFF;" d="M656.686,227.24h-45.702c0.461,2.473,0.726,5,0.726,7.546c0.016,19.086-13.662,37.908-29.939,37.908
		H441.325c-17.124,0-30.821-18.803-30.821-37.908c0.018-2.546,0.283-5.054,0.76-7.546h-46.303
		c-37.166,0-46.303,21.366-46.303,52.186v305.21c0,33.084,13.078,51.604,49.131,51.604h286.088
		c36.053,0,53.584-14.527,53.584-51.604v-305.21C707.461,248.606,691.06,227.24,656.686,227.24z M613.6,528.578H414.781
		c-7.318,0-14.633-9.101-14.633-16.54c0-7.406,6.185-13.751,13.52-13.751h198.235c7.336,0,13.521,5.78,14.069,13.751
		C625.971,519.476,620.918,528.578,613.6,528.578z M610.958,447.779h-0.018H412.157c-7.336,0-12.018-7.989-12.018-15.43
		c0-7.423,6.203-14.879,13.537-14.879h198.237c7.315,0,13.502,6.893,14.066,14.879C625.98,439.772,618.258,447.779,610.958,447.779z
		 M610.958,364.77h-0.018H412.157c-7.336,0-12.018-7.971-12.018-15.412c0-7.441,6.203-14.879,13.537-14.879h198.237
		c7.315,0,13.502,6.891,14.066,14.879C625.98,356.781,618.258,364.77,610.958,364.77z"/>
</g>
</svg>
