<?xml version="1.0" encoding="iso-8859-1"?>
<!-- Generator: Adobe Illustrator 22.0.0, SVG Export Plug-In . SVG Version: 6.00 Build 0)  -->
<svg version="1.1" id="&#x56FE;&#x5C42;_1" xmlns="http://www.w3.org/2000/svg" xmlns:xlink="http://www.w3.org/1999/xlink" x="0px"
	 y="0px" viewBox="0 0 1024 1024" style="enable-background:new 0 0 1024 1024;" xml:space="preserve">
<rect x="65.725" y="66.868" style="fill:none;" width="893.608" height="856.089"/>
<rect x="548.118" y="482.844" style="fill:none;" width="378.987" height="319.814"/>
<path style="fill:#169C45;" d="M512.533,66.448c-189.356,0-345.299,155.943-345.299,345.299c0,72.406,19.492,136.452,61.264,194.932
	c0,2.784,2.782,5.566,5.57,11.138l250.619,331.378c5.57,5.572,16.708,11.138,27.846,11.138c11.142,0,19.496-2.784,27.851-13.921
	l250.618-331.378c2.788-2.788,2.788-5.57,5.571-11.142c41.771-58.476,61.263-128.093,61.263-194.927
	C860.62,222.391,704.677,66.448,512.533,66.448z"/>
<g>
	<path style="fill:#FFFFFF;" d="M632.431,369.787V253.8l-113.882-66.649l-113.887,66.645v108.977l-110.886,64.893v130.402
		l113.887,66.649l104.89-61.385l104.893,61.385l113.887-66.649V427.665L632.431,369.787z M491.569,540.681l-83.909,49.254v-95.619
		l-83.912-49.725v-2.438l83.912-49.261l83.909,49.257V540.681z M518.542,417.209v-96.757l-80.915-48.565v-0.702l83.916-49.256
		l83.914,49.256v96.845l-85.477,50.023L518.542,417.209z M701.358,540.681l-83.916,49.257l-0.58-0.34l-2.419-98.183l-80.914-46.94
		v-2.322l41.299-24.245l42.682-24.977l83.848,49.217V540.681z"/>
	<polygon style="fill:#FFFFFF;" points="407.663,624.716 407.662,624.715 407.653,624.721 	"/>
</g>
</svg>
