<?xml version="1.0" encoding="iso-8859-1"?>
<!-- Generator: Adobe Illustrator 22.0.0, SVG Export Plug-In . SVG Version: 6.00 Build 0)  -->
<svg version="1.1" id="&#x56FE;&#x5C42;_1" xmlns="http://www.w3.org/2000/svg" xmlns:xlink="http://www.w3.org/1999/xlink" x="0px"
	 y="0px" viewBox="0 0 1024 1024" style="enable-background:new 0 0 1024 1024;" xml:space="preserve">
<rect x="65.725" y="66.868" style="fill:none;" width="893.608" height="856.089"/>
<rect x="548.118" y="482.844" style="fill:none;" width="378.987" height="319.814"/>
<path style="fill:#848484;" d="M513.094,65.496c-189.356,0-345.299,155.943-345.299,345.299c0,72.406,19.492,136.452,61.264,194.932
	c0,2.784,2.782,5.566,5.57,11.138l250.619,331.378c5.57,5.572,16.708,11.138,27.846,11.138c11.142,0,19.496-2.784,27.851-13.921
	L791.563,614.08c2.788-2.788,2.788-5.57,5.571-11.142c41.771-58.476,61.263-128.093,61.263-194.927
	C861.181,221.439,705.237,65.496,513.094,65.496z"/>
<g>
	
		<ellipse transform="matrix(0.9985 -0.0553 0.0553 0.9985 -15.0583 28.7835)" style="fill:#FFFFFF;" cx="512.567" cy="286.484" rx="94.508" ry="94.507"/>
	<ellipse style="fill:#FFFFFF;" cx="512.567" cy="519.029" rx="204.579" ry="98.675"/>
</g>
</svg>
