<?xml version="1.0" encoding="iso-8859-1"?>
<!-- Generator: Adobe Illustrator 22.0.0, SVG Export Plug-In . SVG Version: 6.00 Build 0)  -->
<svg version="1.1" id="&#x56FE;&#x5C42;_1" xmlns="http://www.w3.org/2000/svg" xmlns:xlink="http://www.w3.org/1999/xlink" x="0px"
	 y="0px" viewBox="0 0 1024 1024" style="enable-background:new 0 0 1024 1024;" xml:space="preserve">
<rect x="65.725" y="66.868" style="fill:none;" width="893.608" height="856.089"/>
<rect x="548.118" y="482.844" style="fill:none;" width="378.987" height="319.814"/>
<path style="fill:#169C45;" d="M512.017,66.448c-189.356,0-345.299,155.943-345.299,345.299c0,72.406,19.492,136.452,61.264,194.932
	c0,2.784,2.782,5.566,5.57,11.138l250.619,331.378c5.57,5.572,16.708,11.138,27.845,11.138c11.142,0,19.496-2.784,27.851-13.921
	l250.618-331.378c2.788-2.788,2.788-5.57,5.571-11.142c41.771-58.476,61.263-128.093,61.263-194.927
	C860.104,222.391,704.161,66.448,512.017,66.448z"/>
<g>
	<path style="fill:#FFFFFF;" d="M694.872,459.277c-0.021-4.066-1.664-7.952-4.562-10.799c-2.9-2.849-6.815-4.421-10.878-4.372
		c-1.526,0.056-3.033,0.355-4.46,0.889c-11.447,4.504-26.025,6.873-37.047,6.283c-24.275-1.303-42.836-6.044-60.663-20.976
		c-17.945,14.966-40.532,23.232-63.9,23.385c-24.217-0.177-46.866-6.104-64.517-20.976c-17.832,14.932-40.542,22.164-64.761,22.164
		h-0.056c-14.741,0-23.134-2.786-36.566-7.646c-0.362-0.177-0.725-0.237-1.147-0.413l-1.806-0.653
		c-1.115-0.211-2.24-0.348-3.371-0.413c-8.558,0-15.422,6.87-15.422,15.168l0.062,81.314c0,21.398,17.714,38.812,39.521,38.812
		l290.245-0.177c21.744-0.058,39.467-17.542,39.467-38.872l-0.118-82.742L694.872,459.277z"/>
	<path style="fill:#FFFFFF;" d="M722.764,323.161l-0.009,0.014c0-0.239-0.061-0.413-0.061-0.653
		c-0.179-0.866-0.42-1.718-0.724-2.549l-36.195-88.539c-6.184-18.252-23.558-29.687-45.242-29.687H386.673
		c-21.329,0-37.895,11.198-43.858,28.798l-38.854,90.348c-0.181,0.594-0.425,1.303-0.603,2.134
		c-2.795,8.41-4.221,17.212-4.219,26.072c0,30.908,17.228,59.14,44.941,73.658c11.389,6.058,24.761,9.058,39.88,9.058h0.063
		c24.883,0.025,48.536-10.818,64.761-29.685c15.905,18.607,39.158,29.453,64.398,29.629c24.672-0.077,48.083-10.92,64.099-29.688
		c16.023,18.784,39.467,29.629,64.88,29.629c15.419-0.056,29.034-3.257,40.542-9.48c27.289-14.655,44.157-42.713,44.157-73.282
		C726.9,340.179,725.518,331.473,722.764,323.161z M636.384,371.916H389.693c-5.509,0.137-10.662-2.724-13.458-7.474
		c-2.795-4.751-2.795-10.641,0-15.392c2.796-4.75,7.948-7.611,13.458-7.474h246.75c4.058-0.044,7.968,1.53,10.864,4.376
		c2.895,2.849,4.535,6.733,4.555,10.792C651.866,365.162,644.938,371.916,636.384,371.916z"/>
</g>
</svg>
