<?xml version="1.0" encoding="iso-8859-1"?>
<!-- Generator: Adobe Illustrator 22.0.0, SVG Export Plug-In . SVG Version: 6.00 Build 0)  -->
<svg version="1.1" id="&#x56FE;&#x5C42;_1" xmlns="http://www.w3.org/2000/svg" xmlns:xlink="http://www.w3.org/1999/xlink" x="0px"
	 y="0px" viewBox="0 0 1024 1024" style="enable-background:new 0 0 1024 1024;" xml:space="preserve">
<rect x="65.725" y="66.868" style="fill:none;" width="893.608" height="856.089"/>
<rect x="548.118" y="482.844" style="fill:none;" width="378.987" height="319.814"/>
<path style="fill:#848484;" d="M511.81,65.496c-189.356,0-345.299,155.943-345.299,345.299c0,72.406,19.492,136.452,61.264,194.932
	c0,2.784,2.782,5.566,5.57,11.138l250.619,331.378c5.57,5.572,16.708,11.138,27.846,11.138c11.142,0,19.496-2.784,27.851-13.921
	L790.279,614.08c2.788-2.788,2.788-5.57,5.571-11.142c41.771-58.476,61.263-128.093,61.263-194.927
	C859.897,221.439,703.954,65.496,511.81,65.496z"/>
<g>
	<polygon style="fill:#FFFFFF;" points="436.538,495.286 393.316,495.286 393.316,440.5 351.697,432.435 351.697,608.076 
		393.316,593.577 393.316,532.308 460.523,532.308 497.353,482.392 449.342,456.631 	"/>
	<path style="fill:#FFFFFF;" d="M619.126,521.379L388.598,368.171l-24.046,26.354L631.91,560.95h24.037l12.814-13.177l12.793-37.908
		c0,0-35.216,26.344-36.84,26.344C630.348,526.349,619.126,521.379,619.126,521.379z"/>
	<polygon style="fill:#FFFFFF;" points="656.118,505.258 656.118,503.645 754.378,440.459 448.325,239.664 412.875,239.664 
		364.552,315.774 364.552,341.665 633.543,505.258 	"/>
</g>
</svg>
