<?xml version="1.0" encoding="iso-8859-1"?>
<!-- Generator: Adobe Illustrator 22.0.0, SVG Export Plug-In . SVG Version: 6.00 Build 0)  -->
<svg version="1.1" id="&#x56FE;&#x5C42;_1" xmlns="http://www.w3.org/2000/svg" xmlns:xlink="http://www.w3.org/1999/xlink" x="0px"
	 y="0px" viewBox="0 0 1024 1024" style="enable-background:new 0 0 1024 1024;" xml:space="preserve">
<g style="opacity:0.4;">
	<polygon style="fill:#BBBBBB;" points="608.903,125.77 416.149,125.77 319.772,292.701 416.149,459.631 608.903,459.631 
		705.28,292.701 	"/>
</g>
<g>
	<path style="fill:#BBBBBB;" d="M320.529,218.772c0.415,0.239,0.867,0.353,1.314,0.353c0.91,0,1.795-0.472,2.283-1.317l2.633-4.56
		c0.727-1.259,0.296-2.869-0.964-3.597c-0.415-0.239-0.867-0.353-1.314-0.353c-0.909,0-1.793,0.471-2.281,1.314l-2.502,4.334
		c0,0,0,0,0,0l-0.046,0.08c0,0,0,0,0,0.001l-0.005,0.008c-0.001,0.001-0.002,0.003-0.002,0.004l0,0
		c-0.001,0.001-0.001,0.002-0.002,0.003l-0.002,0.003c-0.001,0.002-0.003,0.005-0.004,0.007l-0.009,0.016
		c-0.001,0.001-0.001,0.002-0.002,0.003l0,0.001c-0.001,0.001-0.002,0.003-0.002,0.004l0,0c-0.001,0.001-0.001,0.002-0.002,0.003
		l-0.001,0.002c-0.001,0.002-0.003,0.004-0.004,0.006l-0.001,0.001c-0.001,0.001-0.001,0.002-0.002,0.003l-0.001,0.001
		c0,0.001-0.001,0.001-0.001,0.002l-0.002,0.003c-0.001,0.002-0.002,0.004-0.003,0.005l-0.001,0.001
		c-0.001,0.001-0.001,0.002-0.002,0.003l-0.011,0.02c-0.002,0.003-0.003,0.005-0.004,0.007l-0.001,0.001
		c-0.002,0.003-0.004,0.006-0.005,0.009l-0.001,0.002c-0.001,0.001-0.001,0.002-0.002,0.003l0,0
		c-0.001,0.001-0.001,0.002-0.002,0.003l-0.001,0.001c-0.001,0.002-0.002,0.004-0.003,0.005l0,0.001c0,0,0,0,0,0l-0.001,0.001
		c0,0.001-0.001,0.001-0.001,0.002l0,0.001c0,0,0,0.001-0.001,0.001l0,0.001c0,0,0,0,0,0l-0.003,0.005c0,0,0,0,0,0l-0.001,0.001
		c0,0,0,0,0,0l-0.001,0.002C318.839,216.435,319.27,218.045,320.529,218.772z"/>
	<path style="fill:#BBBBBB;" d="M316.578,357.155c-0.447,0-0.899,0.114-1.314,0.353c-1.256,0.725-1.689,2.329-0.969,3.587
		l2.056,3.561c0.006,0.01,0.011,0.019,0.017,0.029l0.001,0.002c0.001,0.002,0.003,0.005,0.004,0.008l0.002,0.004
		c0.326,0.564,0.557,0.965,0.557,0.965c0.488,0.845,1.373,1.317,2.283,1.317c0.447,0,0.899-0.114,1.314-0.353
		c1.259-0.727,1.691-2.337,0.964-3.597l-2.633-4.56C318.373,357.627,317.488,357.155,316.578,357.155z"/>
	<path style="fill:#BBBBBB;" d="M332.375,384.517c-0.447,0-0.899,0.114-1.314,0.353c-1.256,0.725-1.689,2.329-0.969,3.587
		l2.279,3.947c0.001,0.002,0.002,0.004,0.004,0.006l0.001,0.002c0.003,0.005,0.006,0.011,0.009,0.016l0.002,0.003
		c0.007,0.012,0.013,0.023,0.02,0.034l0.001,0.002c0.197,0.341,0.322,0.559,0.322,0.559c0.488,0.845,1.373,1.317,2.283,1.317
		c0.447,0,0.899-0.114,1.314-0.353c1.259-0.727,1.691-2.337,0.964-3.597l-2.633-4.56
		C334.17,384.989,333.285,384.517,332.375,384.517z"/>
	<path style="fill:#BBBBBB;" d="M328.428,205.091c0.415,0.239,0.867,0.353,1.314,0.353c0.91,0,1.795-0.472,2.283-1.317l2.633-4.56
		c0.727-1.259,0.296-2.87-0.964-3.597c-0.415-0.239-0.867-0.353-1.314-0.353c-0.91,0-1.795,0.472-2.283,1.317l-2.633,4.56
		C326.737,202.754,327.169,204.364,328.428,205.091z"/>
	<path style="fill:#BBBBBB;" d="M336.327,191.41c0.415,0.239,0.867,0.353,1.314,0.353c0.91,0,1.795-0.472,2.283-1.317l2.633-4.56
		c0.727-1.259,0.296-2.869-0.964-3.597c-0.415-0.239-0.867-0.353-1.314-0.353c-0.909,0-1.792,0.471-2.28,1.313l-2.636,4.566
		C334.636,189.074,335.068,190.684,336.327,191.41z"/>
	<path style="fill:#BBBBBB;" d="M324.476,370.836c-0.447,0-0.899,0.114-1.314,0.353c-1.258,0.726-1.69,2.334-0.966,3.593l2.638,4.57
		c0.488,0.841,1.371,1.311,2.279,1.311c0.447,0,0.899-0.114,1.314-0.353c1.259-0.727,1.691-2.337,0.964-3.597l-2.633-4.56
		C326.271,371.308,325.386,370.836,324.476,370.836z"/>
	<path style="fill:#BBBBBB;" d="M300.78,329.794c-0.447,0-0.899,0.114-1.314,0.353c-1.256,0.725-1.689,2.33-0.969,3.588l2.644,4.58
		c0.489,0.838,1.37,1.307,2.277,1.307c0.447,0,0.899-0.114,1.314-0.353c1.259-0.727,1.691-2.337,0.964-3.597l-2.633-4.56
		C302.575,330.266,301.69,329.793,300.78,329.794z"/>
	<path style="fill:#BBBBBB;" d="M296.833,259.815c0.415,0.239,0.867,0.353,1.314,0.353c0.91,0,1.795-0.472,2.283-1.317l2.633-4.56
		c0.727-1.259,0.296-2.87-0.964-3.597c-0.415-0.239-0.867-0.353-1.314-0.353c-0.91,0-1.795,0.472-2.283,1.317l-2.633,4.56
		C295.143,257.477,295.574,259.088,296.833,259.815z"/>
	<path style="fill:#BBBBBB;" d="M312.631,232.453c0.415,0.239,0.867,0.353,1.314,0.353c0.91,0,1.795-0.472,2.283-1.317l2.633-4.56
		c0.727-1.259,0.296-2.87-0.964-3.597c-0.415-0.239-0.867-0.353-1.314-0.353c-0.91,0-1.795,0.472-2.283,1.317l-2.633,4.56
		C310.94,230.116,311.371,231.726,312.631,232.453z"/>
	<path style="fill:#BBBBBB;" d="M295.52,325.94c0.447,0,0.899-0.114,1.314-0.353c1.259-0.727,1.691-2.337,0.964-3.597l-2.633-4.56
		c-0.488-0.845-1.373-1.317-2.283-1.317c-0.447,0-0.899,0.114-1.314,0.353c-1.259,0.727-1.69,2.336-0.964,3.595l2.636,4.565
		C293.727,325.469,294.611,325.94,295.52,325.94z"/>
	<path style="fill:#BBBBBB;" d="M308.679,343.474c-0.447,0-0.899,0.114-1.314,0.353c-1.258,0.727-1.69,2.335-0.965,3.594
		l2.637,4.567c0.488,0.842,1.372,1.312,2.28,1.312c0.447,0,0.899-0.114,1.314-0.353c1.259-0.727,1.691-2.337,0.964-3.597
		l-2.633-4.56C310.474,343.947,309.589,343.474,308.679,343.474z"/>
	<path style="fill:#BBBBBB;" d="M304.732,246.134c0.415,0.239,0.867,0.353,1.314,0.353c0.91,0,1.795-0.472,2.283-1.317l2.633-4.56
		c0.727-1.259,0.296-2.869-0.964-3.597c-0.415-0.239-0.867-0.353-1.314-0.353c-0.909,0-1.794,0.471-2.282,1.315l-1.482,2.567
		c-0.001,0.001-0.001,0.002-0.002,0.003l-0.057,0.098c-0.002,0.003-0.003,0.006-0.005,0.008l-0.036,0.062
		c-0.001,0.001-0.001,0.002-0.002,0.003l-0.019,0.033c-0.001,0.003-0.003,0.005-0.004,0.007l-0.005,0.008
		c-0.003,0.006-0.007,0.012-0.01,0.018l-0.005,0.009c-0.009,0.016-0.018,0.031-0.027,0.047l-0.002,0.003
		c-0.009,0.015-0.018,0.031-0.027,0.046l-0.005,0.008c-0.019,0.032-0.037,0.064-0.055,0.096l-0.003,0.005
		c-0.009,0.015-0.017,0.03-0.026,0.045l-0.002,0.004c-0.009,0.015-0.018,0.031-0.027,0.046l-0.004,0.007
		c-0.462,0.8-0.831,1.439-0.831,1.439C303.041,243.797,303.473,245.407,304.732,246.134z"/>
	<path style="fill:#BBBBBB;" d="M352.124,164.048c0.415,0.239,0.867,0.353,1.314,0.353c0.91,0,1.795-0.472,2.283-1.317l2.633-4.56
		c0.727-1.259,0.296-2.869-0.964-3.597c-0.415-0.239-0.867-0.353-1.314-0.353c-0.908,0-1.792,0.47-2.28,1.312l-2.637,4.568
		C350.434,161.714,350.866,163.322,352.124,164.048z"/>
	<path style="fill:#BBBBBB;" d="M367.922,136.687c0.415,0.239,0.867,0.353,1.314,0.353c0.91,0,1.795-0.472,2.283-1.317l2.633-4.56
		c0.727-1.259,0.296-2.869-0.964-3.597c-0.415-0.239-0.867-0.353-1.314-0.353c-0.908,0-1.791,0.47-2.279,1.311l-2.639,4.57
		C366.232,134.353,366.664,135.96,367.922,136.687z"/>
	<path style="fill:#BBBBBB;" d="M374.151,454.239c-0.488-0.845-1.373-1.317-2.283-1.317c-0.447,0-0.899,0.114-1.314,0.353
		c-1.257,0.726-1.689,2.331-0.968,3.589l2.642,4.576c0.489,0.839,1.371,1.308,2.278,1.308c0.447,0,0.899-0.114,1.314-0.353
		c1.259-0.727,1.691-2.337,0.964-3.597L374.151,454.239z"/>
	<path style="fill:#BBBBBB;" d="M366.252,440.558c-0.488-0.845-1.373-1.317-2.283-1.317c-0.447,0-0.899,0.114-1.314,0.353
		c-1.256,0.725-1.688,2.328-0.97,3.586l2.639,4.572c0.488,0.844,1.373,1.316,2.282,1.316c0.447,0,0.899-0.114,1.314-0.353
		c1.259-0.727,1.691-2.337,0.964-3.597L366.252,440.558z"/>
	<path style="fill:#BBBBBB;" d="M379.772,113.532c-0.91,0-1.795,0.472-2.283,1.317l-2.633,4.56c-0.727,1.259-0.296,2.87,0.964,3.597
		c0.415,0.239,0.867,0.353,1.314,0.353c0.91,0,1.795-0.472,2.283-1.317l2.633-4.56c0.503-0.87,0.441-1.903-0.054-2.701
		c1.66,0.902,3.412,1.644,5.215,2.191c0.255,0.078,0.512,0.114,0.766,0.114c1.129,0,2.174-0.732,2.518-1.869
		c0.422-1.392-0.363-2.862-1.754-3.284c-1.501-0.456-2.96-1.071-4.337-1.829c-1.275-0.7-2.875-0.237-3.577,1.036
		c-0.48,0.872-0.403,1.892,0.095,2.677C380.552,113.636,380.162,113.532,379.772,113.532z"/>
	<path style="fill:#BBBBBB;" d="M382.05,467.919c-0.488-0.845-1.373-1.317-2.283-1.317c-0.447,0-0.899,0.114-1.314,0.353
		c-1.259,0.727-1.691,2.337-0.964,3.597c0,0,0.503,0.872,1.07,1.853l0.002,0.004c0.02,0.034,0.04,0.069,0.059,0.103l0.001,0.001
		c0.015,0.026,0.03,0.052,0.045,0.079l0.001,0.001c0.004,0.007,0.008,0.014,0.012,0.021l0.005,0.009
		c0.009,0.016,0.019,0.033,0.028,0.049l0,0.001c0.009,0.016,0.018,0.032,0.027,0.048l0.005,0.009
		c0.004,0.007,0.008,0.014,0.012,0.021l0.004,0.006c0.001,0.002,0.003,0.005,0.004,0.007l0.004,0.008c0,0,0.001,0.001,0.001,0.001
		l0.007,0.013c0,0.001,0.001,0.001,0.001,0.002l0.005,0.008c0.001,0.002,0.002,0.004,0.004,0.006l0.098,0.171
		c0.001,0.001,0.002,0.003,0.002,0.004l0.004,0.008c0.001,0.001,0.001,0.002,0.002,0.003l0.007,0.012
		c0,0.001,0.001,0.002,0.002,0.003l0.005,0.009c0.001,0.001,0.002,0.003,0.002,0.004l0.035,0.061
		c0.002,0.003,0.004,0.007,0.006,0.01l0.001,0.001c0.001,0.002,0.003,0.005,0.004,0.007l0.006,0.011
		c0.003,0.005,0.006,0.01,0.009,0.015l0.007,0.012c0,0,0,0.001,0.001,0.001l1.144,1.981c0.488,0.844,1.372,1.315,2.282,1.315
		c0.447,0,0.899-0.114,1.314-0.353c1.259-0.727,1.691-2.337,0.964-3.597L382.05,467.919z"/>
	<path style="fill:#BBBBBB;" d="M292.531,272.532l2.633-4.56c0.727-1.259,0.296-2.87-0.964-3.597
		c-0.415-0.239-0.867-0.353-1.314-0.353c-0.91,0-1.794,0.472-2.282,1.316l-0.499,0.864c0,0,0,0.001-0.001,0.001l-0.024,0.041
		c-0.002,0.004-0.004,0.008-0.007,0.011l-0.02,0.034l0,0l-0.018,0.032c-0.001,0.001-0.001,0.002-0.002,0.003l-0.005,0.008
		c-0.001,0.001-0.002,0.003-0.002,0.004l-0.024,0.042c0,0,0,0,0,0l-0.025,0.043c-0.003,0.005-0.006,0.01-0.009,0.016l-0.005,0.009
		c-0.001,0.002-0.003,0.004-0.004,0.007l-0.001,0.002c-0.002,0.003-0.004,0.006-0.005,0.009l-0.004,0.007
		c-0.001,0.001-0.001,0.002-0.002,0.004l-0.003,0.004c-0.001,0.002-0.002,0.004-0.004,0.007l-0.006,0.01
		c-0.003,0.006-0.007,0.012-0.01,0.018l-0.001,0.001c-0.004,0.007-0.008,0.014-0.012,0.021l-0.002,0.004
		c-0.008,0.014-0.016,0.028-0.025,0.043l-0.005,0.009c-0.017,0.03-0.035,0.06-0.052,0.091l-0.001,0.002
		c-0.009,0.016-0.018,0.031-0.027,0.047l-0.001,0.002c-0.005,0.008-0.009,0.016-0.014,0.024l-0.002,0.003
		c-0.003,0.006-0.007,0.012-0.01,0.018l-0.007,0.011c-0.771,1.335-1.796,3.111-1.796,3.111c-0.727,1.259-0.296,2.87,0.964,3.597
		c0.415,0.239,0.867,0.353,1.314,0.353C291.159,273.849,292.044,273.377,292.531,272.532z"/>
	<path style="fill:#BBBBBB;" d="M344.225,177.729c0.415,0.239,0.867,0.353,1.314,0.353c0.91,0,1.795-0.472,2.283-1.317l2.633-4.56
		c0.727-1.259,0.296-2.87-0.964-3.597c-0.415-0.239-0.867-0.353-1.314-0.353c-0.91,0-1.795,0.472-2.283,1.317l-2.633,4.56
		C342.535,175.392,342.966,177.002,344.225,177.729z"/>
	<path style="fill:#BBBBBB;" d="M340.274,398.198c-0.447,0-0.899,0.114-1.314,0.353c-1.257,0.726-1.689,2.333-0.967,3.591
		l2.64,4.572c0.488,0.841,1.371,1.31,2.279,1.31c0.447,0,0.899-0.114,1.314-0.353c1.259-0.727,1.691-2.337,0.964-3.597l-2.633-4.56
		C342.069,398.67,341.184,398.198,340.274,398.198z"/>
	<path style="fill:#BBBBBB;" d="M356.071,425.56c-0.447,0-0.899,0.114-1.314,0.353c-1.257,0.726-1.689,2.332-0.967,3.59l2.641,4.574
		c0.489,0.84,1.371,1.309,2.278,1.309c0.447,0,0.899-0.114,1.314-0.353c1.259-0.727,1.691-2.337,0.964-3.597l-2.633-4.56
		C357.866,426.032,356.981,425.56,356.071,425.56z"/>
	<path style="fill:#BBBBBB;" d="M348.172,411.879c-0.447,0-0.899,0.114-1.314,0.353c-1.256,0.725-1.688,2.329-0.97,3.586
		l2.479,4.293c0.001,0.001,0.001,0.002,0.002,0.003l0.003,0.005c0.002,0.003,0.004,0.006,0.005,0.009l0.009,0.016
		c0.001,0.001,0.001,0.002,0.002,0.003l0.002,0.004c0,0,0,0,0,0.001l0.003,0.005c0.002,0.003,0.003,0.005,0.005,0.008l0.002,0.004
		c0.002,0.003,0.004,0.007,0.006,0.01l0.001,0.003c0,0.001,0.001,0.002,0.001,0.002l0.006,0.01c0,0.001,0.001,0.002,0.001,0.003
		l0.001,0.002c0.07,0.121,0.109,0.19,0.109,0.19c0.488,0.845,1.373,1.317,2.283,1.317c0.447,0,0.899-0.114,1.314-0.353
		c1.259-0.727,1.691-2.337,0.964-3.597l-2.633-4.56C349.967,412.351,349.082,411.879,348.172,411.879z"/>
	<path style="fill:#BBBBBB;" d="M392.581,486.161l-2.633-4.56c-0.488-0.845-1.373-1.317-2.283-1.317
		c-0.447,0-0.899,0.114-1.314,0.353c-1.257,0.726-1.689,2.33-0.968,3.589l2.643,4.578c0.489,0.839,1.371,1.308,2.277,1.308
		c0.447,0,0.899-0.114,1.314-0.353C392.877,489.03,393.308,487.42,392.581,486.161z"/>
	<path style="fill:#BBBBBB;" d="M360.023,150.368c0.415,0.239,0.867,0.353,1.314,0.353c0.91,0,1.795-0.472,2.283-1.317l2.633-4.56
		c0.727-1.259,0.296-2.87-0.964-3.597c-0.415-0.239-0.867-0.353-1.314-0.353c-0.91,0-1.795,0.472-2.283,1.317l-2.633,4.56
		C358.332,148.03,358.764,149.641,360.023,150.368z"/>
	<path style="fill:#BBBBBB;" d="M691.159,200.884c0.447,0,0.899-0.114,1.314-0.353c1.256-0.725,1.689-2.329,0.969-3.587
		l-2.645-4.581c-0.489-0.838-1.37-1.306-2.276-1.306c-0.447,0-0.899,0.114-1.314,0.353c-1.259,0.727-1.691,2.337-0.964,3.597
		l2.633,4.56C689.364,200.412,690.249,200.884,691.159,200.884z"/>
	<path style="fill:#BBBBBB;" d="M657.281,144.843c0.488,0.845,1.373,1.317,2.283,1.317c0.447,0,0.899-0.114,1.314-0.353
		c1.256-0.725,1.688-2.328,0.97-3.586l-1.424-2.466c-0.002-0.004-0.004-0.007-0.006-0.011l-0.001-0.002
		c-0.002-0.003-0.004-0.007-0.006-0.01l-0.01-0.018c-0.614-1.064-1.192-2.064-1.192-2.064c-0.488-0.845-1.373-1.317-2.283-1.317
		c-0.447,0-0.899,0.114-1.314,0.353c-1.259,0.727-1.691,2.337-0.964,3.597L657.281,144.843z"/>
	<path style="fill:#BBBBBB;" d="M683.26,187.203c0.447,0,0.899-0.114,1.314-0.353c1.255-0.724,1.688-2.326,0.971-3.583l-2.644-4.58
		c-0.489-0.841-1.371-1.311-2.279-1.311c-0.447,0-0.899,0.114-1.314,0.353c-1.259,0.727-1.691,2.337-0.964,3.597l2.633,4.56
		C681.465,186.731,682.35,187.203,683.26,187.203z"/>
	<path style="fill:#BBBBBB;" d="M287.266,303.749c-0.488-0.845-1.373-1.317-2.283-1.317c-0.447,0-0.899,0.114-1.314,0.353
		c-1.257,0.725-1.689,2.33-0.969,3.588l2.644,4.579c0.489,0.838,1.37,1.307,2.277,1.307c0.447,0,0.899-0.114,1.314-0.353
		c1.259-0.727,1.691-2.337,0.964-3.597L287.266,303.749z"/>
	<path style="fill:#BBBBBB;" d="M667.463,159.841c0.447,0,0.899-0.114,1.314-0.353c1.255-0.724,1.688-2.326,0.972-3.583
		l-2.645-4.581c-0.489-0.84-1.371-1.31-2.278-1.31c-0.447,0-0.899,0.114-1.314,0.353c-1.259,0.727-1.691,2.337-0.964,3.597
		l2.633,4.56C665.668,159.369,666.553,159.841,667.463,159.841z"/>
	<path style="fill:#BBBBBB;" d="M699.057,214.565c0.447,0,0.899-0.114,1.314-0.353c1.255-0.725,1.688-2.326,0.971-3.584
		l-2.643-4.579c-0.488-0.841-1.372-1.311-2.28-1.311c-0.447,0-0.899,0.114-1.314,0.353c-1.259,0.727-1.691,2.337-0.964,3.597
		l2.633,4.56C697.263,214.093,698.147,214.565,699.057,214.565z"/>
	<path style="fill:#BBBBBB;" d="M706.956,228.246c0.447,0,0.899-0.114,1.314-0.353c1.256-0.725,1.689-2.329,0.969-3.587l-2.644-4.58
		c-0.489-0.838-1.37-1.306-2.276-1.306c-0.447,0-0.899,0.114-1.314,0.353c-1.259,0.727-1.691,2.337-0.964,3.597l2.633,4.56
		C705.161,227.774,706.046,228.246,706.956,228.246z"/>
	<path style="fill:#BBBBBB;" d="M733.635,277.092l2.633,4.56c0.488,0.845,1.373,1.317,2.283,1.317c0.447,0,0.899-0.114,1.314-0.353
		c1.256-0.725,1.689-2.33,0.969-3.588l-2.643-4.579c-0.489-0.839-1.37-1.307-2.277-1.307c-0.447,0-0.899,0.114-1.314,0.353
		C733.34,274.223,732.908,275.833,733.635,277.092z"/>
	<path style="fill:#BBBBBB;" d="M728.014,259.461c-0.447,0-0.899,0.114-1.314,0.353c-1.259,0.727-1.691,2.337-0.964,3.597
		l2.633,4.56c0.488,0.845,1.373,1.317,2.283,1.317c0.447,0,0.899-0.114,1.314-0.353c1.255-0.725,1.688-2.327,0.971-3.585
		l-2.642-4.576C729.807,259.932,728.923,259.461,728.014,259.461z"/>
	<path style="fill:#BBBBBB;" d="M720.116,245.781c-0.447,0-0.899,0.114-1.314,0.353c-1.259,0.727-1.691,2.337-0.964,3.597
		l2.633,4.56c0.488,0.845,1.373,1.317,2.283,1.317c0.447,0,0.899-0.114,1.314-0.353c1.256-0.725,1.689-2.33,0.969-3.588l-2.644-4.58
		C721.903,246.249,721.022,245.781,720.116,245.781z"/>
	<path style="fill:#BBBBBB;" d="M714.855,241.927c0.447,0,0.899-0.114,1.314-0.353c1.255-0.725,1.688-2.327,0.971-3.584
		l-2.643-4.577c-0.488-0.842-1.372-1.313-2.28-1.312c-0.447,0-0.899,0.114-1.314,0.353c-1.259,0.727-1.691,2.337-0.964,3.597
		l2.633,4.56C713.06,241.454,713.945,241.927,714.855,241.927z"/>
	<path style="fill:#BBBBBB;" d="M675.361,173.522c0.447,0,0.899-0.114,1.314-0.353c1.256-0.725,1.688-2.329,0.97-3.586L675,165.001
		c-0.489-0.838-1.37-1.306-2.276-1.306c-0.447,0-0.899,0.114-1.314,0.353c-1.259,0.727-1.691,2.337-0.964,3.597l2.633,4.56
		C673.566,173.05,674.451,173.522,675.361,173.522z"/>
	<path style="fill:#BBBBBB;" d="M390.654,92.047c-0.727,1.259-0.296,2.87,0.964,3.597c0.415,0.239,0.867,0.353,1.314,0.353
		c0.91,0,1.795-0.472,2.283-1.317l2.633-4.56c0.487-0.844,0.454-1.845,0-2.633h-4.561L390.654,92.047z"/>
	<path style="fill:#BBBBBB;" d="M403.818,87.487c-1.454,0-2.633,1.179-2.633,2.633c0,1.454,1.179,2.633,2.633,2.633h5.266
		c1.454,0,2.633-1.179,2.633-2.633c0-1.454-1.179-2.633-2.633-2.633H403.818z"/>
	<path style="fill:#BBBBBB;" d="M383.719,109.325c0.415,0.239,0.867,0.353,1.314,0.353c0.91,0,1.795-0.472,2.283-1.317l2.633-4.56
		c0.727-1.259,0.296-2.869-0.964-3.597c-0.415-0.239-0.867-0.353-1.314-0.353c-0.907,0-1.79,0.47-2.279,1.31l-2.64,4.573
		C382.029,106.992,382.461,108.599,383.719,109.325z"/>
	<path style="fill:#BBBBBB;" d="M279.367,290.068c-0.487-0.844-1.371-1.316-2.28-1.317l-2.28,3.95c0,0,0.041,0.071,0.112,0.195
		l0.002,0.003c0.009,0.015,0.018,0.031,0.028,0.048v0c0.005,0.009,0.01,0.017,0.015,0.026l0,0.001
		c0.005,0.009,0.01,0.017,0.015,0.026l0.001,0.002c0.01,0.018,0.021,0.037,0.033,0.057l0.001,0.002
		c0.005,0.009,0.011,0.019,0.017,0.029l0.001,0.002c0.003,0.005,0.006,0.01,0.009,0.015l0,0c0.001,0.002,0.003,0.005,0.004,0.007
		l0.007,0.012c0.001,0.001,0.001,0.002,0.002,0.003l0.002,0.003c0.001,0.002,0.002,0.004,0.003,0.005l0.002,0.003
		c0.001,0.002,0.003,0.005,0.004,0.007l0,0c0.001,0.002,0.002,0.003,0.003,0.005l0.004,0.006c0.004,0.007,0.008,0.014,0.013,0.022
		l0.001,0.002c0.001,0.002,0.002,0.003,0.003,0.004l0.003,0.006c0.006,0.011,0.012,0.021,0.019,0.032l0,0.001
		c0.005,0.009,0.011,0.019,0.016,0.028l0.011,0.019c0.001,0.001,0.002,0.003,0.002,0.004l0.003,0.005
		c0.002,0.004,0.005,0.008,0.007,0.012l0.007,0.012c0.001,0.001,0.001,0.002,0.002,0.003l0.024,0.041l0,0l0.004,0.007
		c0.003,0.005,0.005,0.009,0.008,0.014l0.01,0.018c0,0,0.001,0.001,0.001,0.001l0.046,0.08l0.006,0.01c0,0,0.001,0.001,0.001,0.001
		l2.184,3.784c0.488,0.843,1.372,1.314,2.281,1.314c0.447,0,0.899-0.114,1.314-0.353c1.259-0.727,1.691-2.337,0.964-3.597
		L279.367,290.068z"/>
	<path style="fill:#BBBBBB;" d="M284.633,286.213l2.633-4.56c0.727-1.259,0.296-2.87-0.964-3.597
		c-0.415-0.239-0.867-0.353-1.314-0.353c-0.91,0-1.795,0.472-2.283,1.317l-2.633,4.56c-0.727,1.259-0.296,2.87,0.964,3.597
		c0.415,0.239,0.867,0.353,1.314,0.353C283.26,287.53,284.145,287.057,284.633,286.213z"/>
	<path style="fill:#BBBBBB;" d="M649.383,131.163c0.488,0.845,1.373,1.317,2.283,1.317c0.447,0,0.899-0.114,1.314-0.353
		c1.259-0.727,1.691-2.337,0.964-3.597l-2.633-4.56c-0.488-0.845-1.373-1.317-2.283-1.317c-0.447,0-0.899,0.114-1.314,0.353
		c-1.259,0.727-1.691,2.337-0.964,3.597L649.383,131.163z"/>
	<path style="fill:#BBBBBB;" d="M641.484,117.482c0.488,0.845,1.373,1.317,2.283,1.317c0.447,0,0.899-0.114,1.314-0.353
		c1.259-0.727,1.691-2.337,0.964-3.597l-2.633-4.56c-0.488-0.845-1.373-1.317-2.283-1.317c-0.447,0-0.899,0.114-1.314,0.353
		c-1.259,0.727-1.691,2.337-0.964,3.597L641.484,117.482z"/>
	<path style="fill:#BBBBBB;" d="M655.612,448.714c-0.415-0.239-0.867-0.353-1.314-0.353c-0.91,0-1.795,0.472-2.283,1.317
		l-2.633,4.56c-0.727,1.259-0.296,2.87,0.964,3.597c0.415,0.239,0.867,0.353,1.314,0.353c0.91,0,1.795-0.472,2.283-1.317l2.633-4.56
		C657.303,451.052,656.872,449.442,655.612,448.714z"/>
	<path style="fill:#BBBBBB;" d="M609.184,92.753h5.266c1.454,0,2.633-1.179,2.633-2.633c0-1.454-1.179-2.633-2.633-2.633h-5.266
		c-1.454,0-2.633,1.179-2.633,2.633C606.551,91.574,607.73,92.753,609.184,92.753z"/>
	<path style="fill:#BBBBBB;" d="M630.952,99.24l2.633,4.56c0.488,0.845,1.373,1.317,2.283,1.317c0.447,0,0.899-0.114,1.314-0.353
		c1.259-0.727,1.691-2.337,0.964-3.597l-2.633-4.56c-0.488-0.845-1.373-1.317-2.283-1.317c-0.447,0-0.899,0.114-1.314,0.353
		C630.657,96.371,630.225,97.981,630.952,99.24z"/>
	<path style="fill:#BBBBBB;" d="M624.981,92.753h5.266c0.974,0,1.825-0.529,2.28-1.316l-2.28-3.95h-5.266
		c-1.454,0-2.633,1.179-2.633,2.633C622.348,91.574,623.527,92.753,624.981,92.753z"/>
	<path style="fill:#BBBBBB;" d="M663.511,435.034c-0.415-0.239-0.867-0.353-1.314-0.353c-0.91,0-1.795,0.472-2.283,1.317
		l-2.633,4.56c-0.727,1.259-0.295,2.869,0.964,3.597c0.415,0.239,0.867,0.353,1.314,0.353c0.91,0,1.795-0.472,2.283-1.317
		l2.633-4.56C665.202,437.371,664.77,435.761,663.511,435.034z"/>
	<path style="fill:#BBBBBB;" d="M593.387,92.753h5.266c1.454,0,2.633-1.179,2.633-2.633c0-1.454-1.179-2.633-2.633-2.633h-5.266
		c-1.454,0-2.633,1.179-2.633,2.633C590.754,91.574,591.932,92.753,593.387,92.753z"/>
	<path style="fill:#BBBBBB;" d="M671.41,421.353c-0.415-0.239-0.867-0.353-1.314-0.353c-0.91,0-1.795,0.472-2.283,1.317l-2.633,4.56
		c-0.727,1.259-0.296,2.87,0.964,3.597c0.415,0.239,0.867,0.353,1.314,0.353c0.91,0,1.795-0.472,2.283-1.317l2.633-4.56
		C673.1,423.69,672.669,422.08,671.41,421.353z"/>
	<path style="fill:#BBBBBB;" d="M622.348,495.281c0-1.454-1.179-2.633-2.633-2.633h-5.266c-1.454,0-2.633,1.179-2.633,2.633
		c0,1.454,1.179,2.633,2.633,2.633h5.266C621.17,497.914,622.348,496.735,622.348,495.281z"/>
	<path style="fill:#BBBBBB;" d="M639.815,476.076c-0.415-0.239-0.867-0.353-1.314-0.353c-0.91,0-1.795,0.472-2.283,1.317
		l-2.633,4.56c-0.727,1.259-0.296,2.87,0.964,3.597c0.415,0.239,0.867,0.353,1.314,0.353c0.91,0,1.795-0.472,2.283-1.317l2.633-4.56
		C641.506,478.414,641.074,476.803,639.815,476.076z"/>
	<path style="fill:#BBBBBB;" d="M646.044,470.552l2.633-4.56c0.727-1.259,0.296-2.87-0.964-3.597
		c-0.415-0.239-0.867-0.353-1.314-0.353c-0.91,0-1.795,0.472-2.283,1.317l-2.633,4.56c-0.212,0.368-0.315,0.765-0.338,1.162
		c-1.175-0.497-2.37-0.943-3.596-1.273c-1.401-0.378-2.849,0.454-3.227,1.858c-0.378,1.405,0.453,2.849,1.858,3.228
		c1.513,0.408,2.992,0.976,4.395,1.691c0.383,0.195,0.791,0.287,1.193,0.287c0.958,0,1.883-0.525,2.348-1.439
		c0.269-0.527,0.334-1.099,0.24-1.64C645.042,471.633,645.665,471.21,646.044,470.552z"/>
	<path style="fill:#BBBBBB;" d="M631.916,489.757c-0.415-0.239-0.867-0.353-1.314-0.353c-0.91,0-1.795,0.472-2.283,1.317
		l-2.633,4.56c-0.487,0.844-0.454,1.845,0,2.633h4.561l2.633-4.56C633.607,492.095,633.176,490.484,631.916,489.757z"/>
	<path style="fill:#BBBBBB;" d="M588.121,492.648h-5.266c-1.454,0-2.633,1.179-2.633,2.633c0,1.454,1.179,2.633,2.633,2.633h5.266
		c1.454,0,2.633-1.179,2.633-2.633C590.754,493.827,589.575,492.648,588.121,492.648z"/>
	<path style="fill:#BBBBBB;" d="M561.792,92.753h5.266c1.454,0,2.633-1.179,2.633-2.633c0-1.454-1.179-2.633-2.633-2.633h-5.266
		c-1.454,0-2.633,1.179-2.633,2.633C559.159,91.574,560.338,92.753,561.792,92.753z"/>
	<path style="fill:#BBBBBB;" d="M572.323,492.648h-5.266c-1.454,0-2.633,1.179-2.633,2.633c0,1.454,1.179,2.633,2.633,2.633h5.266
		c1.454,0,2.633-1.179,2.633-2.633C574.956,493.827,573.778,492.648,572.323,492.648z"/>
	<path style="fill:#BBBBBB;" d="M577.589,92.753h5.266c1.454,0,2.633-1.179,2.633-2.633c0-1.454-1.179-2.633-2.633-2.633h-5.266
		c-1.454,0-2.633,1.179-2.633,2.633C574.956,91.574,576.135,92.753,577.589,92.753z"/>
	<path style="fill:#BBBBBB;" d="M556.526,492.648h-5.266c-1.454,0-2.633,1.179-2.633,2.633c0,1.454,1.179,2.633,2.633,2.633h5.266
		c1.454,0,2.633-1.179,2.633-2.633C559.159,493.827,557.98,492.648,556.526,492.648z"/>
	<path style="fill:#BBBBBB;" d="M726.7,325.586c-0.415-0.239-0.867-0.353-1.314-0.353c-0.91,0-1.795,0.472-2.283,1.317l-2.633,4.56
		c-0.727,1.259-0.296,2.87,0.964,3.597c0.415,0.239,0.867,0.353,1.314,0.353c0.91,0,1.795-0.472,2.283-1.317l2.633-4.56
		C728.391,327.924,727.96,326.313,726.7,325.586z"/>
	<path style="fill:#BBBBBB;" d="M734.599,311.905c-0.415-0.239-0.867-0.353-1.314-0.353c-0.91,0-1.795,0.472-2.283,1.317
		l-2.633,4.56c-0.727,1.259-0.296,2.87,0.964,3.597c0.415,0.239,0.867,0.353,1.314,0.353c0.91,0,1.795-0.472,2.283-1.317l2.633-4.56
		C736.29,314.243,735.858,312.633,734.599,311.905z"/>
	<path style="fill:#BBBBBB;" d="M679.308,407.672c-0.415-0.239-0.867-0.353-1.314-0.353c-0.91,0-1.795,0.472-2.283,1.317
		l-2.633,4.56c-0.727,1.259-0.296,2.869,0.964,3.597c0.415,0.239,0.867,0.353,1.314,0.353c0.91,0,1.795-0.472,2.283-1.317
		l2.633-4.56C680.999,410.009,680.568,408.399,679.308,407.672z"/>
	<path style="fill:#BBBBBB;" d="M746.087,288.128c-0.489-0.837-1.37-1.305-2.275-1.305c-0.447,0-0.899,0.114-1.314,0.353
		c-1.259,0.727-1.691,2.337-0.964,3.597l2.633,4.56c0.487,0.844,1.371,1.316,2.28,1.317l2.28-3.95L746.087,288.128z"/>
	<path style="fill:#BBBBBB;" d="M718.802,339.267c-0.415-0.239-0.867-0.353-1.314-0.353c-0.91,0-1.795,0.472-2.283,1.317
		l-2.633,4.56c-0.727,1.259-0.296,2.87,0.964,3.597c0.415,0.239,0.867,0.353,1.314,0.353c0.91,0,1.795-0.472,2.283-1.317l2.633-4.56
		C720.492,341.605,720.061,339.994,718.802,339.267z"/>
	<path style="fill:#BBBBBB;" d="M742.498,298.225c-0.415-0.239-0.867-0.353-1.314-0.353c-0.91,0-1.795,0.472-2.283,1.317
		l-2.633,4.56c-0.727,1.259-0.296,2.87,0.964,3.597c0.415,0.239,0.867,0.353,1.314,0.353c0.91,0,1.795-0.472,2.283-1.317l2.633-4.56
		C744.189,300.562,743.757,298.952,742.498,298.225z"/>
	<path style="fill:#BBBBBB;" d="M687.207,393.991c-0.415-0.239-0.867-0.353-1.314-0.353c-0.91,0-1.795,0.472-2.283,1.317
		l-2.633,4.56c-0.727,1.259-0.296,2.87,0.964,3.597c0.415,0.239,0.867,0.353,1.314,0.353c0.91,0,1.795-0.472,2.283-1.317l2.633-4.56
		C688.898,396.328,688.466,394.718,687.207,393.991z"/>
	<path style="fill:#BBBBBB;" d="M710.903,352.948c-0.415-0.239-0.867-0.353-1.314-0.353c-0.91,0-1.795,0.472-2.283,1.317
		l-2.633,4.56c-0.727,1.259-0.296,2.869,0.964,3.597c0.415,0.239,0.867,0.353,1.314,0.353c0.91,0,1.795-0.472,2.283-1.317
		l2.633-4.56C712.594,355.285,712.162,353.675,710.903,352.948z"/>
	<path style="fill:#BBBBBB;" d="M695.106,380.31c-0.415-0.239-0.867-0.353-1.314-0.353c-0.91,0-1.795,0.472-2.283,1.317l-2.633,4.56
		c-0.727,1.259-0.296,2.869,0.964,3.597c0.415,0.239,0.867,0.353,1.314,0.353c0.91,0,1.795-0.472,2.283-1.317l2.633-4.56
		C696.796,382.647,696.365,381.037,695.106,380.31z"/>
	<path style="fill:#BBBBBB;" d="M703.004,366.629c-0.415-0.239-0.867-0.353-1.314-0.353c-0.91,0-1.795,0.472-2.283,1.317
		l-2.633,4.56c-0.727,1.259-0.296,2.87,0.964,3.597c0.415,0.239,0.867,0.353,1.314,0.353c0.91,0,1.795-0.472,2.283-1.317l2.633-4.56
		C704.695,368.966,704.264,367.356,703.004,366.629z"/>
	<path style="fill:#BBBBBB;" d="M445.945,492.648h-5.266c-1.454,0-2.633,1.179-2.633,2.633c0,1.454,1.179,2.633,2.633,2.633h5.266
		c1.454,0,2.633-1.179,2.633-2.633C448.578,493.827,447.399,492.648,445.945,492.648z"/>
	<path style="fill:#BBBBBB;" d="M477.539,492.648h-5.266c-1.454,0-2.633,1.179-2.633,2.633c0,1.454,1.179,2.633,2.633,2.633h5.266
		c1.454,0,2.633-1.179,2.633-2.633C480.172,493.827,478.993,492.648,477.539,492.648z"/>
	<path style="fill:#BBBBBB;" d="M467.008,92.753h5.266c1.454,0,2.633-1.179,2.633-2.633c0-1.454-1.179-2.633-2.633-2.633h-5.266
		c-1.454,0-2.633,1.179-2.633,2.633C464.375,91.574,465.554,92.753,467.008,92.753z"/>
	<path style="fill:#BBBBBB;" d="M482.805,92.753h5.266c1.454,0,2.633-1.179,2.633-2.633c0-1.454-1.179-2.633-2.633-2.633h-5.266
		c-1.454,0-2.633,1.179-2.633,2.633C480.172,91.574,481.351,92.753,482.805,92.753z"/>
	<path style="fill:#BBBBBB;" d="M461.742,492.648h-5.266c-1.454,0-2.633,1.179-2.633,2.633c0,1.454,1.179,2.633,2.633,2.633h5.266
		c1.454,0,2.633-1.179,2.633-2.633C464.375,493.827,463.196,492.648,461.742,492.648z"/>
	<path style="fill:#BBBBBB;" d="M493.337,492.648h-5.266c-1.454,0-2.633,1.179-2.633,2.633c0,1.454,1.179,2.633,2.633,2.633h5.266
		c1.454,0,2.633-1.179,2.633-2.633C495.97,493.827,494.791,492.648,493.337,492.648z"/>
	<path style="fill:#BBBBBB;" d="M398.553,492.648h-5.266c-0.974,0-1.825,0.529-2.28,1.316l2.28,3.95c0,0,0,0,0,0h5.266
		c1.454,0,2.633-1.179,2.633-2.633C401.185,493.827,400.007,492.648,398.553,492.648z"/>
	<path style="fill:#BBBBBB;" d="M414.35,492.648h-5.266c-1.454,0-2.633,1.179-2.633,2.633c0,1.454,1.179,2.633,2.633,2.633h5.266
		c1.454,0,2.633-1.179,2.633-2.633C416.983,493.827,415.804,492.648,414.35,492.648z"/>
	<path style="fill:#BBBBBB;" d="M545.994,92.753h5.266c1.454,0,2.633-1.179,2.633-2.633c0-1.454-1.179-2.633-2.633-2.633h-5.266
		c-1.454,0-2.633,1.179-2.633,2.633C543.362,91.574,544.54,92.753,545.994,92.753z"/>
	<path style="fill:#BBBBBB;" d="M430.147,492.648h-5.266c-1.454,0-2.633,1.179-2.633,2.633c0,1.454,1.179,2.633,2.633,2.633h5.266
		c1.454,0,2.633-1.179,2.633-2.633C432.78,493.827,431.601,492.648,430.147,492.648z"/>
	<path style="fill:#BBBBBB;" d="M435.413,92.753h5.266c1.454,0,2.633-1.179,2.633-2.633c0-1.454-1.179-2.633-2.633-2.633h-5.266
		c-1.454,0-2.633,1.179-2.633,2.633C432.78,91.574,433.959,92.753,435.413,92.753z"/>
	<path style="fill:#BBBBBB;" d="M498.602,92.753h5.266c1.454,0,2.633-1.179,2.633-2.633c0-1.454-1.179-2.633-2.633-2.633h-5.266
		c-1.454,0-2.633,1.179-2.633,2.633C495.97,91.574,497.148,92.753,498.602,92.753z"/>
	<path style="fill:#BBBBBB;" d="M451.21,92.753h5.266c1.454,0,2.633-1.179,2.633-2.633c0-1.454-1.179-2.633-2.633-2.633h-5.266
		c-1.454,0-2.633,1.179-2.633,2.633C448.577,91.574,449.756,92.753,451.21,92.753z"/>
	<path style="fill:#BBBBBB;" d="M509.134,492.648h-5.266c-1.454,0-2.633,1.179-2.633,2.633c0,1.454,1.179,2.633,2.633,2.633h5.266
		c1.454,0,2.633-1.179,2.633-2.633C511.767,493.827,510.588,492.648,509.134,492.648z"/>
	<path style="fill:#BBBBBB;" d="M540.729,492.648h-5.266c-1.454,0-2.633,1.179-2.633,2.633c0,1.454,1.179,2.633,2.633,2.633h5.266
		c1.454,0,2.633-1.179,2.633-2.633C543.362,493.827,542.183,492.648,540.729,492.648z"/>
	<path style="fill:#BBBBBB;" d="M530.197,92.753h5.266c1.454,0,2.633-1.179,2.633-2.633c0-1.454-1.179-2.633-2.633-2.633h-5.266
		c-1.454,0-2.633,1.179-2.633,2.633C527.564,91.574,528.743,92.753,530.197,92.753z"/>
	<path style="fill:#BBBBBB;" d="M524.931,492.648h-5.266c-1.454,0-2.633,1.179-2.633,2.633c0,1.454,1.179,2.633,2.633,2.633h5.266
		c1.454,0,2.633-1.179,2.633-2.633C527.564,493.827,526.385,492.648,524.931,492.648z"/>
	<path style="fill:#BBBBBB;" d="M514.4,92.753h5.266c1.454,0,2.633-1.179,2.633-2.633c0-1.454-1.179-2.633-2.633-2.633H514.4
		c-1.454,0-2.633,1.179-2.633,2.633C511.767,91.574,512.946,92.753,514.4,92.753z"/>
	<path style="fill:#BBBBBB;" d="M376.808,107.684c1.154-0.885,1.372-2.538,0.487-3.692c-0.958-1.248-1.787-2.598-2.464-4.012
		c-0.629-1.311-2.201-1.864-3.512-1.237c-1.311,0.629-1.865,2.201-1.237,3.512c0.835,1.743,1.856,3.406,3.035,4.942
		c0.519,0.676,1.3,1.03,2.091,1.03C375.766,108.228,376.33,108.051,376.808,107.684z"/>
	<path style="fill:#BBBBBB;" d="M372.799,78.211c0.451,0.302,0.96,0.447,1.465,0.447c0.848,0,1.681-0.409,2.189-1.165
		c0.875-1.304,1.89-2.522,3.016-3.622c1.041-1.016,1.061-2.682,0.045-3.723c-1.015-1.039-2.681-1.061-3.723-0.045
		c-1.385,1.352-2.634,2.85-3.71,4.455C371.27,75.765,371.592,77.4,372.799,78.211z"/>
	<path style="fill:#BBBBBB;" d="M369.984,93.594c0.028,0,0.055-0.001,0.084-0.001c1.453-0.046,2.595-1.261,2.549-2.714
		c-0.008-0.238-0.012-0.477-0.011-0.723c0-1.336,0.116-2.675,0.346-3.979c0.253-1.432-0.704-2.797-2.136-3.05
		c-1.432-0.249-2.797,0.704-3.05,2.136c-0.283,1.605-0.426,3.251-0.426,4.887c-0.001,0.299,0.005,0.597,0.014,0.894
		C367.399,92.469,368.568,93.594,369.984,93.594z"/>
	<path style="fill:#BBBBBB;" d="M418.153,87.932c-0.705,0.472-1.17,1.276-1.17,2.188c0,0.848,0.408,1.594,1.03,2.075
		c-0.079,0.892-0.196,1.778-0.378,2.648c-0.298,1.424,0.615,2.819,2.038,3.116c0.181,0.038,0.363,0.057,0.541,0.057
		c1.22,0,2.315-0.853,2.574-2.094c0.218-1.043,0.371-2.103,0.469-3.17h1.624c1.454,0,2.633-1.179,2.633-2.633
		c0-1.454-1.179-2.633-2.633-2.633h-1.779c-0.43-0.978-1.426-1.634-2.568-1.568C419.355,85.993,418.417,86.839,418.153,87.932z"/>
	<path style="fill:#BBBBBB;" d="M398.385,117.999c0.103,0,0.208-0.006,0.314-0.019c1.924-0.228,3.828-0.658,5.66-1.279
		c1.378-0.467,2.115-1.961,1.649-3.339c-0.467-1.377-1.958-2.114-3.339-1.649c-1.485,0.503-3.03,0.852-4.591,1.038
		c-1.444,0.171-2.475,1.48-2.304,2.925C395.933,117.014,397.069,117.999,398.385,117.999z"/>
	<path style="fill:#BBBBBB;" d="M401.291,68.179c1.515,0.408,2.993,0.976,4.394,1.69c0.383,0.195,0.791,0.288,1.194,0.288
		c0.958,0,1.883-0.525,2.347-1.438c0.661-1.295,0.146-2.881-1.15-3.541c-1.727-0.88-3.549-1.581-5.417-2.083
		c-1.403-0.378-2.85,0.454-3.226,1.858C399.054,66.358,399.887,67.802,401.291,68.179z"/>
	<path style="fill:#BBBBBB;" d="M415.572,79.687c0.469,0.904,1.388,1.421,2.339,1.421c0.409,0,0.823-0.095,1.21-0.296
		c1.291-0.67,1.795-2.259,1.125-3.55c-0.89-1.714-1.963-3.344-3.19-4.843c-0.922-1.127-2.581-1.291-3.705-0.37
		c-1.126,0.921-1.291,2.58-0.37,3.705C413.979,76.972,414.85,78.295,415.572,79.687z"/>
	<path style="fill:#BBBBBB;" d="M414.288,110.821c1.427-1.307,2.722-2.766,3.849-4.336c0.848-1.181,0.578-2.826-0.603-3.674
		c-1.181-0.847-2.825-0.577-3.674,0.603c-0.917,1.277-1.969,2.463-3.129,3.525c-1.072,0.982-1.145,2.648-0.163,3.72
		c0.519,0.567,1.229,0.854,1.942,0.854C413.145,111.513,413.783,111.284,414.288,110.821z"/>
	<path style="fill:#BBBBBB;" d="M386.452,69.009c0.307,0,0.619-0.054,0.923-0.168c1.468-0.55,3.001-0.949,4.556-1.184
		c1.438-0.218,2.427-1.56,2.209-2.997c-0.218-1.439-1.57-2.425-2.997-2.209c-1.916,0.291-3.805,0.781-5.615,1.459
		c-1.361,0.51-2.052,2.028-1.542,3.389C384.382,68.356,385.386,69.009,386.452,69.009z"/>
	<path style="fill:#BBBBBB;" d="M604.96,498.306c1.453-0.045,2.595-1.26,2.549-2.714c-0.008-0.24-0.012-0.481-0.012-0.724
		c0-1.337,0.116-2.674,0.346-3.976c0.253-1.432-0.703-2.797-2.135-3.051c-1.43-0.248-2.798,0.703-3.051,2.135
		c-0.155,0.88-0.259,1.773-0.33,2.672h-3.677c-1.454,0-2.633,1.179-2.633,2.633c0,1.454,1.179,2.633,2.633,2.633h4.853
		c0.401,0.246,0.869,0.393,1.371,0.393C604.905,498.307,604.932,498.307,604.96,498.306z"/>
	<path style="fill:#BBBBBB;" d="M626.035,467.163c-1.914,0.289-3.803,0.78-5.616,1.459c-1.361,0.51-2.052,2.027-1.542,3.39
		c0.397,1.057,1.4,1.71,2.466,1.71c0.307,0,0.619-0.055,0.923-0.168c1.471-0.552,3.003-0.95,4.555-1.184
		c1.438-0.217,2.427-1.559,2.21-2.997C628.815,467.935,627.476,466.944,626.035,467.163z"/>
	<path style="fill:#BBBBBB;" d="M610.683,474.816c-1.384,1.35-2.632,2.849-3.711,4.456c-0.811,1.207-0.489,2.842,0.719,3.652
		c0.451,0.303,0.96,0.447,1.465,0.447c0.848,0,1.68-0.409,2.189-1.166c0.876-1.305,1.891-2.524,3.015-3.62
		c1.041-1.016,1.062-2.682,0.046-3.723C613.389,473.822,611.723,473.802,610.683,474.816z"/>
	<path style="fill:#BBBBBB;" d="M655.427,490.632c-1.451,0.091-2.554,1.342-2.463,2.792c0.03,0.478,0.045,0.959,0.045,1.444
		c0,1.579-0.163,3.156-0.483,4.689c-0.298,1.423,0.615,2.818,2.038,3.116c0.182,0.037,0.363,0.055,0.542,0.055
		c1.22,0,2.315-0.852,2.574-2.094c0.395-1.885,0.595-3.825,0.595-5.766c0-0.595-0.019-1.187-0.055-1.773
		C658.129,491.644,656.905,490.545,655.427,490.632z"/>
	<path style="fill:#BBBBBB;" d="M637.562,516.427c-1.482,0.503-3.027,0.852-4.593,1.04c-1.444,0.172-2.474,1.484-2.301,2.927
		c0.16,1.337,1.297,2.319,2.611,2.319c0.104,0,0.21-0.006,0.316-0.019c1.928-0.23,3.83-0.661,5.657-1.279
		c1.378-0.467,2.115-1.962,1.649-3.339C640.434,516.698,638.943,515.959,637.562,516.427z"/>
	<path style="fill:#BBBBBB;" d="M623.633,516.648c-1.502-0.456-2.961-1.071-4.338-1.829c-1.274-0.703-2.874-0.237-3.577,1.036
		c-0.701,1.274-0.237,2.876,1.036,3.577c1.697,0.935,3.496,1.693,5.347,2.256c0.255,0.077,0.513,0.114,0.766,0.114
		c1.129,0,2.173-0.733,2.518-1.868C625.81,518.541,625.024,517.071,623.633,516.648z"/>
	<path style="fill:#BBBBBB;" d="M648.243,476.762c-1.125,0.92-1.291,2.579-0.37,3.705c0.998,1.219,1.869,2.543,2.591,3.934
		c0.469,0.904,1.388,1.421,2.339,1.421c0.409,0,0.823-0.095,1.211-0.296c1.29-0.67,1.794-2.259,1.124-3.55
		c-0.89-1.714-1.962-3.344-3.19-4.844C651.027,476.005,649.367,475.843,648.243,476.762z"/>
	<path style="fill:#BBBBBB;" d="M652.426,507.523c-1.181-0.843-2.825-0.579-3.674,0.604c-0.918,1.278-1.97,2.463-3.128,3.523
		c-1.073,0.982-1.147,2.647-0.165,3.72c0.519,0.567,1.23,0.855,1.943,0.855c0.635,0,1.271-0.228,1.777-0.69
		c1.426-1.305,2.722-2.764,3.85-4.338C653.877,510.015,653.607,508.371,652.426,507.523z"/>
	<path style="fill:#BBBBBB;" d="M609.722,504.694c-0.627-1.31-2.201-1.867-3.512-1.237c-1.312,0.629-1.865,2.201-1.237,3.512
		c0.834,1.742,1.856,3.404,3.036,4.942c0.518,0.675,1.3,1.03,2.09,1.03c0.559,0,1.123-0.177,1.601-0.544
		c1.154-0.886,1.371-2.539,0.485-3.692C611.228,507.457,610.399,506.108,609.722,504.694z"/>
	<path style="fill:#BBBBBB;" d="M730.538,216.643c0.724,1.254,2.343,1.688,3.597,0.964s1.688-2.343,0.964-3.597l-65.125-112.799
		l6.846-3.821l-17.615-10.513l-0.297,20.512l6.468-3.61L730.538,216.643z"/>
	<path style="fill:#BBBBBB;" d="M296.937,368.594c-0.724-1.254-2.342-1.688-3.597-0.964c-1.254,0.724-1.688,2.342-0.964,3.597
		l65.125,112.799l-6.846,3.821l17.615,10.513l0.297-20.512l-6.468,3.61L296.937,368.594z"/>
	<path style="fill:#BBBBBB;" d="M611.116,120.622H412.417l-99.349,172.078l99.349,172.078h198.699l99.349-172.078L611.116,120.622z
		 M629.243,422.851l-63.501,36.663H457.138l-62.521-36.096l-55.533-96.186l0-69.06l55.957-96.92l61.25-35.363h112.37l59.124,34.135
		l56.666,98.148v69.06L629.243,422.851z"/>
</g>
<linearGradient id="SVGID_1_" gradientUnits="userSpaceOnUse" x1="512.421" y1="525.5234" x2="512.421" y2="959.9506">
	<stop  offset="0" style="stop-color:#BBBBBB"/>
	<stop  offset="1" style="stop-color:#BBBBBB;stop-opacity:0.1"/>
</linearGradient>
<rect x="507.813" y="525.523" style="fill:url(#SVGID_1_);" width="9.215" height="434.427"/>
<rect x="65.725" y="66.868" style="fill:none;" width="893.608" height="856.089"/>
<g>
	<circle style="fill:#FFFFFF;" cx="513" cy="238.552" r="47.48"/>
	<ellipse style="fill:#FFFFFF;" cx="513" cy="355.382" rx="102.78" ry="49.574"/>
</g>
<g>
	<circle style="fill:#17ADBC;" cx="513" cy="355.786" r="9.107"/>
	<circle style="fill:#17ADBC;" cx="513" cy="386.304" r="9.107"/>
	<path style="fill:#17ADBC;" d="M513,305.808c-11.35,0-22.269,0.89-32.477,2.528c0.064,0.055,0.114,0.116,0.181,0.17l28.386,22.661
		c2.287,1.826,5.534,1.826,7.821,0l28.386-22.661c0.067-0.053,0.117-0.115,0.181-0.17C535.268,306.698,524.35,305.808,513,305.808z"
		/>
</g>
</svg>
