<?xml version="1.0" encoding="iso-8859-1"?>
<!-- Generator: Adobe Illustrator 22.0.0, SVG Export Plug-In . SVG Version: 6.00 Build 0)  -->
<svg version="1.1" id="&#x56FE;&#x5C42;_1" xmlns="http://www.w3.org/2000/svg" xmlns:xlink="http://www.w3.org/1999/xlink" x="0px"
	 y="0px" viewBox="0 0 1024 1024" style="enable-background:new 0 0 1024 1024;" xml:space="preserve">
<rect x="65.725" y="66.868" style="fill:none;" width="893.608" height="856.089"/>
<g style="opacity:0.4;">
	<polygon style="fill:#FFC41D;" points="608.634,127.206 416.149,127.206 319.905,293.904 416.149,460.602 608.634,460.602 
		704.876,293.904 	"/>
</g>
<g>
	<path style="fill:#FFC41D;" d="M320.662,220.078c0.414,0.239,0.866,0.352,1.312,0.352c0.908,0,1.792-0.472,2.28-1.315l2.629-4.554
		c0.726-1.258,0.294-2.866-0.962-3.592c-0.414-0.239-0.866-0.352-1.312-0.352c-0.907,0-1.79,0.471-2.278,1.312l-2.499,4.328l0,0
		l-0.046,0.08c0,0,0,0,0,0.001l-0.004,0.008c-0.001,0.001-0.001,0.003-0.003,0.004l0,0c0,0.001-0.001,0.003-0.001,0.004
		l-0.001,0.003c-0.001,0.003-0.003,0.005-0.004,0.007l-0.009,0.016c0,0.001-0.001,0.001-0.001,0.003l0,0
		c-0.001,0.001-0.001,0.003-0.003,0.004l0,0c0,0.001-0.001,0.003-0.001,0.003l-0.001,0.003c-0.001,0.003-0.003,0.004-0.004,0.007
		v0.001c0,0.001-0.001,0.001-0.001,0.003v0.001c0,0,0,0.001-0.001,0.001l-0.001,0.003c-0.001,0.001-0.003,0.004-0.003,0.005
		l-0.001,0.001c0,0.001-0.001,0.003-0.001,0.003l-0.012,0.02c-0.001,0.003-0.003,0.005-0.004,0.008l-0.001,0.001
		c-0.001,0.003-0.004,0.007-0.005,0.009l-0.001,0.003c0,0.001-0.001,0.003-0.001,0.003l0,0c0,0.001-0.001,0.003-0.001,0.004
		l-0.001,0.001c-0.001,0.001-0.003,0.004-0.003,0.005v0.001l0,0l-0.001,0.001c0,0.001-0.001,0.001-0.001,0.003v0.001
		c0,0,0,0,0,0.001l0,0l0,0l-0.003,0.005l0,0v0.001l0,0l-0.001,0.003C318.974,217.745,319.405,219.352,320.662,220.078z"/>
	<path style="fill:#FFC41D;" d="M316.716,358.269c-0.446,0-0.898,0.113-1.312,0.352c-1.254,0.724-1.687,2.326-0.968,3.582
		l2.053,3.556c0.005,0.009,0.011,0.02,0.017,0.029l0.001,0.003c0.001,0.003,0.003,0.005,0.004,0.008l0.003,0.004
		c0.325,0.564,0.556,0.964,0.556,0.964c0.486,0.844,1.371,1.315,2.28,1.315c0.446,0,0.898-0.113,1.312-0.352
		c1.258-0.726,1.688-2.333,0.962-3.592l-2.629-4.554C318.509,358.741,317.625,358.269,316.716,358.269z"/>
	<path style="fill:#FFC41D;" d="M332.491,385.593c-0.446,0-0.898,0.113-1.312,0.352c-1.254,0.724-1.687,2.326-0.968,3.582
		l2.276,3.943c0.001,0.003,0.003,0.004,0.004,0.007l0.001,0.003c0.003,0.005,0.007,0.011,0.009,0.016l0.003,0.004
		c0.007,0.012,0.013,0.022,0.02,0.034l0.001,0.001c0.196,0.34,0.322,0.557,0.322,0.557c0.486,0.844,1.371,1.315,2.28,1.315
		c0.446,0,0.898-0.113,1.312-0.352c1.258-0.726,1.688-2.333,0.962-3.592l-2.629-4.554
		C334.284,386.063,333.401,385.593,332.491,385.593z"/>
	<path style="fill:#FFC41D;" d="M328.55,206.417c0.414,0.239,0.866,0.352,1.312,0.352c0.908,0,1.793-0.472,2.28-1.315l2.629-4.554
		c0.726-1.258,0.294-2.866-0.962-3.592c-0.414-0.239-0.866-0.352-1.312-0.352c-0.908,0-1.792,0.472-2.28,1.315l-2.629,4.554
		C326.862,204.082,327.293,205.691,328.55,206.417z"/>
	<path style="fill:#FFC41D;" d="M336.437,192.755c0.414,0.239,0.866,0.352,1.312,0.352c0.908,0,1.792-0.472,2.28-1.315l2.629-4.554
		c0.726-1.258,0.294-2.866-0.962-3.592c-0.414-0.239-0.866-0.352-1.312-0.352c-0.907,0-1.789,0.471-2.277,1.311l-2.632,4.559
		C334.749,190.422,335.181,192.03,336.437,192.755z"/>
	<path style="fill:#FFC41D;" d="M324.603,371.93c-0.446,0-0.898,0.113-1.312,0.352c-1.257,0.726-1.688,2.331-0.965,3.588
		l2.634,4.563c0.488,0.84,1.37,1.309,2.277,1.309c0.446,0,0.898-0.113,1.312-0.352c1.258-0.726,1.688-2.335,0.962-3.591
		l-2.629-4.554C326.396,372.402,325.513,371.93,324.603,371.93z"/>
	<path style="fill:#FFC41D;" d="M300.94,330.944c-0.446,0-0.898,0.113-1.312,0.352c-1.254,0.724-1.687,2.327-0.968,3.582l2.64,4.574
		c0.488,0.837,1.368,1.304,2.273,1.304c0.446,0,0.898-0.113,1.312-0.352c1.258-0.726,1.688-2.333,0.962-3.592l-2.629-4.554
		C302.733,331.416,301.85,330.944,300.94,330.944z"/>
	<path style="fill:#FFC41D;" d="M296.999,261.064c0.414,0.239,0.866,0.352,1.312,0.352c0.908,0,1.793-0.472,2.28-1.315l2.629-4.554
		c0.726-1.258,0.294-2.866-0.962-3.592c-0.414-0.239-0.866-0.352-1.312-0.352c-0.908,0-1.792,0.472-2.28,1.315l-2.629,4.554
		C295.311,258.73,295.742,260.338,296.999,261.064z"/>
	<path style="fill:#FFC41D;" d="M312.774,233.741c0.414,0.239,0.866,0.352,1.312,0.352c0.908,0,1.793-0.472,2.28-1.315l2.629-4.554
		c0.726-1.258,0.294-2.866-0.962-3.592c-0.414-0.239-0.866-0.352-1.312-0.352c-0.908,0-1.792,0.472-2.28,1.315l-2.629,4.554
		C311.086,231.406,311.518,233.014,312.774,233.741z"/>
	<path style="fill:#FFC41D;" d="M295.687,327.097c0.446,0,0.898-0.113,1.312-0.352c1.258-0.726,1.688-2.333,0.962-3.591
		l-2.629-4.554c-0.486-0.844-1.371-1.315-2.28-1.315c-0.446,0-0.898,0.113-1.312,0.352c-1.257,0.726-1.688,2.333-0.964,3.59
		l2.632,4.559C293.897,326.626,294.78,327.097,295.687,327.097z"/>
	<path style="fill:#FFC41D;" d="M308.828,344.607c-0.446,0-0.898,0.113-1.312,0.352c-1.257,0.726-1.688,2.332-0.964,3.589
		l2.633,4.562c0.488,0.841,1.37,1.311,2.277,1.311c0.446,0,0.898-0.113,1.312-0.352c1.258-0.726,1.688-2.333,0.962-3.592
		l-2.629-4.554C310.621,345.078,309.738,344.607,308.828,344.607z"/>
	<path style="fill:#FFC41D;" d="M304.887,247.402c0.414,0.239,0.866,0.352,1.312,0.352c0.908,0,1.792-0.472,2.28-1.315l2.629-4.554
		c0.726-1.258,0.294-2.866-0.962-3.592c-0.414-0.239-0.866-0.352-1.312-0.352c-0.908,0-1.79,0.471-2.278,1.313l-1.48,2.563
		c0,0.001-0.001,0.003-0.001,0.004l-0.057,0.099c-0.001,0.003-0.003,0.005-0.005,0.008l-0.035,0.062
		c0,0.001-0.001,0.001-0.001,0.003l-0.018,0.033c-0.001,0.003-0.003,0.005-0.004,0.008l-0.005,0.008
		c-0.004,0.007-0.007,0.012-0.011,0.018l-0.005,0.009c-0.009,0.016-0.018,0.032-0.026,0.046l-0.001,0.003
		c-0.009,0.016-0.017,0.03-0.026,0.046l-0.004,0.008c-0.018,0.032-0.037,0.064-0.055,0.096l-0.003,0.005
		c-0.009,0.014-0.017,0.03-0.026,0.045l-0.003,0.004c-0.009,0.016-0.017,0.03-0.026,0.046l-0.004,0.007
		c-0.461,0.799-0.829,1.437-0.829,1.437C303.199,245.068,303.63,246.677,304.887,247.402z"/>
	<path style="fill:#FFC41D;" d="M352.213,165.431c0.414,0.239,0.866,0.352,1.312,0.352c0.908,0,1.792-0.472,2.28-1.315l2.629-4.554
		c0.726-1.258,0.294-2.866-0.962-3.592c-0.414-0.239-0.866-0.352-1.312-0.352c-0.907,0-1.789,0.469-2.277,1.311l-2.633,4.562
		C350.525,163.099,350.956,164.705,352.213,165.431z"/>
	<path style="fill:#FFC41D;" d="M367.988,138.107c0.414,0.239,0.866,0.352,1.312,0.352c0.908,0,1.792-0.472,2.28-1.315l2.629-4.554
		c0.726-1.258,0.294-2.866-0.962-3.592c-0.414-0.239-0.866-0.352-1.312-0.352c-0.907,0-1.788,0.469-2.276,1.309l-2.634,4.564
		C366.301,135.777,366.733,137.383,367.988,138.107z"/>
	<path style="fill:#FFC41D;" d="M374.209,455.217c-0.486-0.844-1.371-1.315-2.28-1.315c-0.446,0-0.898,0.113-1.312,0.352
		c-1.255,0.724-1.687,2.328-0.966,3.584l2.638,4.57c0.488,0.839,1.369,1.307,2.274,1.307c0.446,0,0.898-0.113,1.312-0.352
		c1.258-0.726,1.688-2.335,0.962-3.591L374.209,455.217z"/>
	<path style="fill:#FFC41D;" d="M366.321,441.554c-0.486-0.844-1.371-1.315-2.28-1.315c-0.446,0-0.898,0.113-1.312,0.352
		c-1.254,0.724-1.685,2.326-0.969,3.581l2.636,4.566c0.488,0.843,1.371,1.315,2.28,1.315c0.446,0,0.898-0.113,1.312-0.352
		c1.258-0.726,1.688-2.333,0.962-3.592L366.321,441.554z"/>
	<path style="fill:#FFC41D;" d="M379.822,114.986c-0.908,0-1.792,0.472-2.28,1.315l-2.629,4.554
		c-0.726,1.258-0.296,2.866,0.962,3.592c0.414,0.239,0.866,0.352,1.312,0.352c0.908,0,1.793-0.472,2.28-1.315l2.629-4.554
		c0.502-0.869,0.44-1.9-0.054-2.698c1.658,0.902,3.406,1.642,5.208,2.188c0.255,0.078,0.511,0.114,0.765,0.114
		c1.128,0,2.17-0.731,2.515-1.865c0.422-1.39-0.363-2.858-1.752-3.28c-1.499-0.455-2.957-1.069-4.33-1.827
		c-1.273-0.699-2.871-0.237-3.572,1.035c-0.48,0.87-0.402,1.889,0.095,2.673C380.602,115.089,380.211,114.986,379.822,114.986z"/>
	<path style="fill:#FFC41D;" d="M382.096,468.879c-0.486-0.844-1.371-1.315-2.28-1.315c-0.446,0-0.898,0.113-1.312,0.352
		c-1.258,0.726-1.688,2.333-0.962,3.592c0,0,0.502,0.87,1.069,1.851l0.003,0.004c0.02,0.034,0.039,0.068,0.059,0.103v0.001
		c0.016,0.026,0.03,0.053,0.046,0.079v0.001c0.004,0.007,0.008,0.014,0.012,0.021l0.005,0.009c0.009,0.016,0.018,0.033,0.028,0.049
		l0,0c0.009,0.016,0.018,0.032,0.028,0.047l0.005,0.009c0.004,0.007,0.008,0.013,0.012,0.021l0.004,0.007
		c0.001,0.003,0.003,0.005,0.004,0.008l0.004,0.008c0,0,0,0.001,0.001,0.001l0.008,0.013c0,0,0.001,0.001,0.001,0.003l0.004,0.008
		c0.001,0.003,0.003,0.004,0.004,0.007l0.099,0.171c0.001,0.001,0.001,0.003,0.003,0.004l0.004,0.008
		c0,0.001,0.001,0.001,0.001,0.003l0.007,0.012c0,0.001,0.001,0.003,0.001,0.003l0.005,0.008c0.001,0.001,0.001,0.003,0.003,0.004
		l0.035,0.062c0.001,0.004,0.004,0.007,0.005,0.01v0.001c0.001,0.003,0.003,0.005,0.004,0.008l0.007,0.011
		c0.003,0.005,0.005,0.01,0.009,0.014l0.007,0.012c0,0,0,0,0,0.001l1.142,1.979c0.488,0.843,1.37,1.313,2.278,1.313
		c0.446,0,0.898-0.113,1.312-0.352c1.258-0.726,1.688-2.333,0.962-3.591L382.096,468.879z"/>
	<path style="fill:#FFC41D;" d="M292.703,273.763l2.629-4.554c0.726-1.258,0.294-2.866-0.962-3.592
		c-0.414-0.239-0.866-0.352-1.312-0.352c-0.908,0-1.792,0.471-2.28,1.315l-0.498,0.862c0,0,0,0,0,0.001l-0.024,0.041
		c-0.003,0.004-0.004,0.008-0.007,0.012l-0.02,0.034l0,0l-0.018,0.032c0,0.001-0.001,0.001-0.001,0.003l-0.005,0.008
		c-0.001,0.001-0.001,0.003-0.003,0.004l-0.025,0.042l0,0l-0.025,0.043c-0.003,0.005-0.007,0.011-0.009,0.016l-0.005,0.008
		c-0.001,0.003-0.003,0.004-0.004,0.007l-0.001,0.001c-0.001,0.003-0.004,0.007-0.005,0.009l-0.004,0.007
		c-0.001,0.001-0.001,0.003-0.003,0.004l-0.003,0.004c-0.001,0.003-0.003,0.004-0.004,0.007l-0.005,0.011
		c-0.004,0.005-0.007,0.012-0.01,0.017l-0.001,0.001c-0.004,0.007-0.008,0.014-0.012,0.021l-0.003,0.004
		c-0.008,0.014-0.016,0.029-0.025,0.042l-0.005,0.009c-0.017,0.03-0.034,0.06-0.053,0.091l-0.001,0.001
		c-0.009,0.016-0.018,0.032-0.028,0.047l-0.001,0.001c-0.004,0.008-0.009,0.016-0.013,0.024l-0.001,0.003
		c-0.004,0.005-0.007,0.012-0.011,0.017l-0.007,0.012c-0.77,1.333-1.794,3.106-1.794,3.106c-0.726,1.258-0.296,2.866,0.962,3.591
		c0.414,0.239,0.866,0.352,1.312,0.352C291.332,275.079,292.216,274.607,292.703,273.763z"/>
	<path style="fill:#FFC41D;" d="M344.325,179.093c0.414,0.239,0.866,0.352,1.312,0.352c0.908,0,1.793-0.472,2.28-1.315l2.629-4.554
		c0.726-1.258,0.294-2.866-0.962-3.592c-0.414-0.239-0.866-0.352-1.312-0.352c-0.908,0-1.792,0.472-2.28,1.315l-2.629,4.554
		C342.637,176.759,343.068,178.367,344.325,179.093z"/>
	<path style="fill:#FFC41D;" d="M340.379,399.254c-0.446,0-0.898,0.113-1.312,0.352c-1.255,0.726-1.687,2.329-0.965,3.586
		l2.636,4.566c0.488,0.84,1.37,1.308,2.276,1.308c0.446,0,0.898-0.113,1.312-0.352c1.258-0.726,1.688-2.335,0.962-3.591
		l-2.629-4.554C342.172,399.726,341.288,399.254,340.379,399.254z"/>
	<path style="fill:#FFC41D;" d="M356.154,426.578c-0.446,0-0.898,0.113-1.312,0.352c-1.255,0.724-1.687,2.328-0.966,3.585
		l2.637,4.568c0.488,0.839,1.369,1.308,2.276,1.308c0.446,0,0.898-0.113,1.312-0.352c1.258-0.726,1.688-2.335,0.962-3.591
		l-2.629-4.554C357.947,427.049,357.064,426.578,356.154,426.578z"/>
	<path style="fill:#FFC41D;" d="M348.266,412.916c-0.446,0-0.898,0.113-1.312,0.352c-1.254,0.724-1.687,2.326-0.968,3.581
		l2.475,4.287c0,0.001,0.001,0.003,0.001,0.004l0.003,0.005c0.001,0.003,0.004,0.007,0.005,0.009l0.009,0.016
		c0,0.001,0.001,0.003,0.001,0.003l0.003,0.004l0,0l0.003,0.004c0.001,0.003,0.003,0.005,0.005,0.008l0.003,0.004
		c0.003,0.004,0.004,0.007,0.005,0.011l0.001,0.003c0,0.001,0.001,0.001,0.001,0.003l0.005,0.011c0,0.001,0.001,0.001,0.001,0.003
		l0.001,0.001c0.07,0.121,0.109,0.189,0.109,0.189c0.486,0.844,1.371,1.315,2.28,1.315c0.446,0,0.898-0.113,1.312-0.352
		c1.258-0.726,1.688-2.333,0.962-3.592l-2.629-4.554C350.059,413.388,349.176,412.916,348.266,412.916z"/>
	<path style="fill:#FFC41D;" d="M392.613,487.094l-2.629-4.554c-0.486-0.844-1.371-1.315-2.28-1.315
		c-0.446,0-0.898,0.113-1.312,0.352c-1.255,0.724-1.687,2.327-0.968,3.584l2.64,4.571c0.488,0.837,1.368,1.305,2.274,1.305
		c0.446,0,0.898-0.113,1.312-0.352C392.909,489.96,393.34,488.352,392.613,487.094z"/>
	<path style="fill:#FFC41D;" d="M360.1,151.77c0.414,0.239,0.866,0.352,1.312,0.352c0.908,0,1.793-0.472,2.28-1.315l2.629-4.554
		c0.726-1.258,0.294-2.866-0.962-3.592c-0.414-0.239-0.866-0.352-1.312-0.352c-0.908,0-1.792,0.472-2.28,1.315l-2.629,4.554
		C358.412,149.435,358.844,151.043,360.1,151.77z"/>
	<path style="fill:#FFC41D;" d="M690.775,202.215c0.446,0,0.898-0.113,1.312-0.352c1.254-0.724,1.687-2.326,0.968-3.582
		l-2.641-4.575c-0.488-0.836-1.369-1.304-2.273-1.304c-0.446,0-0.898,0.113-1.312,0.352c-1.258,0.726-1.688,2.335-0.962,3.592
		l2.629,4.554C688.982,201.743,689.866,202.215,690.775,202.215z"/>
	<path style="fill:#FFC41D;" d="M656.944,146.252c0.486,0.844,1.371,1.315,2.28,1.315c0.446,0,0.898-0.113,1.312-0.352
		c1.254-0.724,1.685-2.326,0.969-3.581l-1.421-2.462c-0.003-0.004-0.004-0.008-0.007-0.011l-0.001-0.001
		c-0.003-0.004-0.004-0.007-0.007-0.011l-0.011-0.018c-0.613-1.062-1.19-2.061-1.19-2.061c-0.486-0.844-1.371-1.315-2.28-1.315
		c-0.446,0-0.898,0.113-1.312,0.352c-1.258,0.726-1.688,2.335-0.962,3.592L656.944,146.252z"/>
	<path style="fill:#FFC41D;" d="M682.887,188.554c0.446,0,0.898-0.113,1.312-0.352c1.253-0.723,1.685-2.323,0.97-3.578l-2.641-4.575
		c-0.488-0.84-1.37-1.309-2.276-1.308c-0.446,0-0.898,0.113-1.312,0.352c-1.258,0.726-1.688,2.333-0.962,3.592l2.629,4.554
		C681.094,188.082,681.979,188.554,682.887,188.554z"/>
	<path style="fill:#FFC41D;" d="M287.444,304.936c-0.486-0.844-1.371-1.315-2.28-1.315c-0.446,0-0.898,0.113-1.312,0.352
		c-1.254,0.724-1.687,2.327-0.968,3.584l2.64,4.572c0.488,0.837,1.368,1.305,2.273,1.305c0.446,0,0.898-0.113,1.312-0.352
		c1.258-0.726,1.688-2.333,0.962-3.592L287.444,304.936z"/>
	<path style="fill:#FFC41D;" d="M667.112,161.23c0.446,0,0.898-0.113,1.312-0.352c1.253-0.723,1.685-2.323,0.97-3.578l-2.641-4.575
		c-0.488-0.839-1.368-1.308-2.276-1.308c-0.446,0-0.898,0.113-1.312,0.352c-1.258,0.726-1.688,2.333-0.962,3.592l2.629,4.554
		C665.318,160.758,666.203,161.23,667.112,161.23z"/>
	<path style="fill:#FFC41D;" d="M698.662,215.877c0.446,0,0.898-0.113,1.312-0.352c1.253-0.723,1.685-2.323,0.97-3.578l-2.64-4.572
		c-0.488-0.84-1.37-1.309-2.277-1.309c-0.446,0-0.898,0.113-1.312,0.352c-1.258,0.726-1.688,2.333-0.962,3.592l2.629,4.554
		C696.869,215.406,697.754,215.877,698.662,215.877z"/>
	<path style="fill:#FFC41D;" d="M706.55,229.539c0.446,0,0.898-0.113,1.312-0.352c1.254-0.724,1.687-2.326,0.968-3.582l-2.641-4.574
		c-0.488-0.837-1.369-1.304-2.273-1.304c-0.446,0-0.898,0.113-1.312,0.352c-1.258,0.726-1.688,2.335-0.962,3.592l2.629,4.554
		C704.757,229.067,705.642,229.539,706.55,229.539z"/>
	<path style="fill:#FFC41D;" d="M733.192,278.317l2.629,4.554c0.486,0.844,1.371,1.315,2.28,1.315c0.446,0,0.898-0.113,1.312-0.352
		c1.254-0.724,1.687-2.327,0.968-3.584l-2.64-4.572c-0.488-0.837-1.369-1.305-2.274-1.305c-0.446,0-0.898,0.113-1.312,0.352
		C732.896,275.452,732.466,277.06,733.192,278.317z"/>
	<path style="fill:#FFC41D;" d="M727.578,260.711c-0.446,0-0.898,0.113-1.312,0.352c-1.258,0.726-1.688,2.333-0.962,3.591
		l2.629,4.554c0.486,0.844,1.371,1.315,2.28,1.315c0.446,0,0.898-0.113,1.312-0.352c1.254-0.723,1.685-2.324,0.969-3.58l-2.638-4.57
		C729.369,261.181,728.485,260.711,727.578,260.711z"/>
	<path style="fill:#FFC41D;" d="M719.691,247.049c-0.446,0-0.898,0.113-1.312,0.352c-1.258,0.726-1.688,2.333-0.962,3.592
		l2.629,4.554c0.486,0.844,1.371,1.315,2.28,1.315c0.446,0,0.898-0.113,1.312-0.352c1.254-0.724,1.687-2.327,0.968-3.582
		l-2.64-4.574C721.476,247.517,720.597,247.049,719.691,247.049z"/>
	<path style="fill:#FFC41D;" d="M714.438,243.201c0.446,0,0.898-0.113,1.312-0.352c1.253-0.723,1.685-2.323,0.969-3.58l-2.638-4.571
		c-0.488-0.841-1.37-1.311-2.277-1.311c-0.446,0-0.898,0.113-1.312,0.352c-1.258,0.726-1.688,2.333-0.962,3.592l2.629,4.554
		C712.644,242.729,713.529,243.201,714.438,243.201z"/>
	<path style="fill:#FFC41D;" d="M674.999,174.891c0.446,0,0.898-0.113,1.312-0.352c1.254-0.724,1.687-2.326,0.969-3.581
		l-2.641-4.575c-0.489-0.836-1.369-1.304-2.273-1.304c-0.446,0-0.898,0.113-1.312,0.352c-1.258,0.726-1.688,2.335-0.962,3.592
		l2.629,4.554C673.206,174.42,674.091,174.891,674.999,174.891z"/>
	<path style="fill:#FFC41D;" d="M390.689,93.53c-0.726,1.258-0.296,2.866,0.962,3.592c0.414,0.239,0.866,0.352,1.312,0.352
		c0.908,0,1.793-0.472,2.28-1.315l2.629-4.554c0.486-0.843,0.454-1.843,0-2.629h-4.554L390.689,93.53z"/>
	<path style="fill:#FFC41D;" d="M403.835,88.976c-1.453,0-2.629,1.177-2.629,2.629c0,1.453,1.177,2.629,2.629,2.629h5.258
		c1.453,0,2.629-1.177,2.629-2.629c0-1.453-1.177-2.629-2.629-2.629H403.835z"/>
	<path style="fill:#FFC41D;" d="M383.763,110.784c0.414,0.239,0.866,0.352,1.312,0.352c0.908,0,1.792-0.472,2.28-1.315l2.629-4.554
		c0.726-1.258,0.294-2.866-0.962-3.592c-0.414-0.239-0.866-0.352-1.312-0.352c-0.906,0-1.788,0.469-2.276,1.308l-2.636,4.567
		C382.077,108.455,382.508,110.058,383.763,110.784z"/>
	<path style="fill:#FFC41D;" d="M279.557,291.275c-0.486-0.843-1.368-1.315-2.277-1.315l-2.277,3.944c0,0,0.041,0.071,0.112,0.195
		l0.001,0.003c0.009,0.014,0.018,0.032,0.028,0.047l0,0c0.005,0.008,0.01,0.017,0.014,0.026v0.001
		c0.005,0.008,0.01,0.017,0.014,0.026l0.001,0.003c0.011,0.018,0.021,0.037,0.033,0.057l0.001,0.001
		c0.005,0.009,0.011,0.018,0.017,0.029l0.001,0.003c0.003,0.005,0.005,0.009,0.008,0.014l0,0c0.001,0.003,0.003,0.005,0.004,0.007
		l0.007,0.012c0,0.001,0.001,0.003,0.001,0.004l0.001,0.003c0.001,0.001,0.003,0.004,0.003,0.005l0.001,0.003
		c0.001,0.003,0.003,0.005,0.004,0.007l0,0c0.001,0.001,0.003,0.004,0.003,0.005l0.004,0.007c0.004,0.007,0.008,0.014,0.013,0.022
		l0.001,0.001c0.001,0.001,0.001,0.003,0.003,0.004l0.003,0.005c0.007,0.011,0.012,0.021,0.018,0.032v0.001
		c0.005,0.009,0.01,0.018,0.016,0.028l0.012,0.02c0.001,0.001,0.001,0.003,0.003,0.004l0.003,0.005
		c0.003,0.004,0.004,0.008,0.007,0.012l0.007,0.012c0,0.001,0.001,0.003,0.001,0.004l0.024,0.041l0,0l0.004,0.007
		c0.003,0.004,0.005,0.009,0.008,0.013l0.01,0.018c0,0,0,0.001,0.001,0.001l0.046,0.08l0.005,0.009c0,0,0,0.001,0.001,0.001
		l2.181,3.778c0.488,0.841,1.37,1.312,2.278,1.312c0.446,0,0.898-0.113,1.312-0.352c1.258-0.726,1.688-2.333,0.962-3.591
		L279.557,291.275z"/>
	<path style="fill:#FFC41D;" d="M284.815,287.426l2.629-4.554c0.726-1.258,0.294-2.866-0.962-3.591
		c-0.414-0.239-0.866-0.352-1.312-0.352c-0.908,0-1.792,0.472-2.28,1.315l-2.629,4.554c-0.726,1.258-0.296,2.866,0.962,3.592
		c0.414,0.239,0.866,0.352,1.312,0.352C283.444,288.74,284.329,288.268,284.815,287.426z"/>
	<path style="fill:#FFC41D;" d="M649.057,132.591c0.486,0.844,1.371,1.315,2.28,1.315c0.446,0,0.898-0.113,1.312-0.352
		c1.258-0.726,1.688-2.333,0.962-3.592l-2.629-4.554c-0.486-0.844-1.371-1.315-2.28-1.315c-0.446,0-0.898,0.113-1.312,0.352
		c-1.258,0.726-1.688,2.333-0.962,3.592L649.057,132.591z"/>
	<path style="fill:#FFC41D;" d="M641.169,118.929c0.486,0.844,1.371,1.315,2.28,1.315c0.446,0,0.898-0.113,1.312-0.352
		c1.258-0.726,1.688-2.333,0.962-3.592l-2.629-4.554c-0.486-0.844-1.371-1.315-2.28-1.315c-0.446,0-0.898,0.113-1.312,0.352
		c-1.258,0.726-1.688,2.335-0.962,3.592L641.169,118.929z"/>
	<path style="fill:#FFC41D;" d="M655.278,449.7c-0.414-0.239-0.866-0.352-1.312-0.352c-0.908,0-1.792,0.472-2.28,1.315l-2.629,4.554
		c-0.726,1.258-0.294,2.866,0.962,3.592c0.414,0.239,0.866,0.352,1.312,0.352c0.908,0,1.792-0.472,2.28-1.315l2.629-4.554
		C656.965,452.034,656.536,450.427,655.278,449.7z"/>
	<path style="fill:#FFC41D;" d="M608.914,94.234h5.258c1.453,0,2.629-1.177,2.629-2.629c0-1.453-1.177-2.629-2.629-2.629h-5.258
		c-1.453,0-2.629,1.177-2.629,2.629C606.285,93.058,607.463,94.234,608.914,94.234z"/>
	<path style="fill:#FFC41D;" d="M630.652,100.713l2.629,4.554c0.486,0.844,1.371,1.315,2.28,1.315c0.446,0,0.898-0.113,1.312-0.352
		c1.258-0.726,1.688-2.333,0.962-3.592l-2.629-4.554c-0.486-0.844-1.371-1.315-2.28-1.315c-0.446,0-0.898,0.113-1.312,0.352
		C630.356,97.848,629.927,99.456,630.652,100.713z"/>
	<path style="fill:#FFC41D;" d="M624.689,94.234h5.258c0.973,0,1.822-0.528,2.277-1.315l-2.277-3.944h-5.258
		c-1.453,0-2.629,1.177-2.629,2.629C622.06,93.058,623.238,94.234,624.689,94.234z"/>
	<path style="fill:#FFC41D;" d="M663.165,436.038c-0.414-0.239-0.866-0.352-1.312-0.352c-0.908,0-1.792,0.472-2.28,1.315
		l-2.629,4.554c-0.726,1.258-0.294,2.866,0.962,3.591c0.414,0.239,0.866,0.352,1.312,0.352c0.908,0,1.793-0.472,2.28-1.315
		l2.629-4.554C664.853,438.372,664.423,436.764,663.165,436.038z"/>
	<path style="fill:#FFC41D;" d="M593.139,94.234h5.258c1.453,0,2.629-1.177,2.629-2.629c0-1.453-1.177-2.629-2.629-2.629h-5.258
		c-1.453,0-2.629,1.177-2.629,2.629C590.509,93.058,591.687,94.234,593.139,94.234z"/>
	<path style="fill:#FFC41D;" d="M671.053,422.377c-0.414-0.239-0.866-0.352-1.312-0.352c-0.908,0-1.792,0.472-2.28,1.315
		l-2.629,4.554c-0.726,1.258-0.294,2.866,0.962,3.592c0.414,0.239,0.866,0.352,1.312,0.352c0.908,0,1.792-0.472,2.28-1.315
		l2.629-4.554C672.741,424.71,672.311,423.102,671.053,422.377z"/>
	<path style="fill:#FFC41D;" d="M622.06,496.201c0-1.453-1.177-2.629-2.629-2.629h-5.258c-1.453,0-2.629,1.177-2.629,2.629
		c0,1.453,1.177,2.629,2.629,2.629h5.258C620.883,498.831,622.06,497.654,622.06,496.201z"/>
	<path style="fill:#FFC41D;" d="M639.502,477.024c-0.414-0.239-0.866-0.352-1.312-0.352c-0.908,0-1.792,0.472-2.28,1.315
		l-2.629,4.554c-0.726,1.258-0.294,2.866,0.962,3.591c0.414,0.239,0.866,0.352,1.312,0.352c0.908,0,1.792-0.472,2.28-1.315
		l2.629-4.554C641.19,479.357,640.76,477.749,639.502,477.024z"/>
	<path style="fill:#FFC41D;" d="M645.723,471.508l2.629-4.554c0.726-1.258,0.296-2.866-0.962-3.592
		c-0.414-0.239-0.866-0.352-1.312-0.352c-0.908,0-1.792,0.472-2.28,1.315l-2.629,4.554c-0.212,0.367-0.314,0.764-0.338,1.161
		c-1.173-0.496-2.366-0.941-3.591-1.271c-1.399-0.377-2.845,0.454-3.222,1.855c-0.377,1.403,0.452,2.845,1.855,3.223
		c1.51,0.408,2.988,0.974,4.388,1.688c0.383,0.195,0.79,0.287,1.191,0.287c0.957,0,1.881-0.523,2.345-1.437
		c0.268-0.526,0.333-1.098,0.239-1.638C644.723,472.587,645.344,472.164,645.723,471.508z"/>
	<path style="fill:#FFC41D;" d="M631.615,490.685c-0.414-0.239-0.866-0.352-1.312-0.352c-0.908,0-1.792,0.472-2.28,1.315
		l-2.629,4.554c-0.486,0.843-0.454,1.843,0,2.629h4.554l2.629-4.554C633.302,493.02,632.873,491.412,631.615,490.685z"/>
	<path style="fill:#FFC41D;" d="M587.88,493.572h-5.258c-1.453,0-2.629,1.177-2.629,2.629c0,1.453,1.177,2.629,2.629,2.629h5.258
		c1.453,0,2.629-1.177,2.629-2.629C590.509,494.749,589.333,493.572,587.88,493.572z"/>
	<path style="fill:#FFC41D;" d="M561.588,94.234h5.258c1.453,0,2.629-1.177,2.629-2.629c0-1.453-1.177-2.629-2.629-2.629h-5.258
		c-1.453,0-2.629,1.177-2.629,2.629C558.959,93.058,560.137,94.234,561.588,94.234z"/>
	<path style="fill:#FFC41D;" d="M572.105,493.572h-5.258c-1.453,0-2.629,1.177-2.629,2.629c0,1.453,1.177,2.629,2.629,2.629h5.258
		c1.453,0,2.629-1.177,2.629-2.629C574.734,494.749,573.557,493.572,572.105,493.572z"/>
	<path style="fill:#FFC41D;" d="M577.363,94.234h5.258c1.453,0,2.629-1.177,2.629-2.629c0-1.453-1.177-2.629-2.629-2.629h-5.258
		c-1.453,0-2.629,1.177-2.629,2.629C574.734,93.058,575.912,94.234,577.363,94.234z"/>
	<path style="fill:#FFC41D;" d="M556.329,493.572h-5.258c-1.453,0-2.629,1.177-2.629,2.629c0,1.453,1.177,2.629,2.629,2.629h5.258
		c1.453,0,2.629-1.177,2.629-2.629C558.959,494.749,557.782,493.572,556.329,493.572z"/>
	<path style="fill:#FFC41D;" d="M726.266,326.744c-0.414-0.239-0.866-0.352-1.312-0.352c-0.908,0-1.792,0.472-2.28,1.315
		l-2.629,4.554c-0.726,1.258-0.296,2.866,0.962,3.592c0.414,0.239,0.866,0.352,1.312,0.352c0.908,0,1.793-0.472,2.28-1.315
		l2.629-4.554C727.954,329.078,727.525,327.47,726.266,326.744z"/>
	<path style="fill:#FFC41D;" d="M734.154,313.081c-0.414-0.239-0.866-0.352-1.312-0.352c-0.908,0-1.792,0.472-2.28,1.315
		l-2.629,4.554c-0.726,1.258-0.296,2.866,0.962,3.591c0.414,0.239,0.866,0.352,1.312,0.352c0.908,0,1.792-0.472,2.28-1.315
		l2.629-4.554C735.842,315.416,735.412,313.808,734.154,313.081z"/>
	<path style="fill:#FFC41D;" d="M678.94,408.714c-0.414-0.239-0.866-0.352-1.312-0.352c-0.908,0-1.792,0.472-2.28,1.315
		l-2.629,4.554c-0.726,1.258-0.294,2.866,0.962,3.592c0.414,0.239,0.866,0.352,1.312,0.352c0.908,0,1.793-0.472,2.28-1.315
		l2.629-4.554C680.628,411.049,680.199,409.441,678.94,408.714z"/>
	<path style="fill:#FFC41D;" d="M745.627,289.337c-0.489-0.836-1.369-1.303-2.273-1.303c-0.446,0-0.898,0.113-1.312,0.352
		c-1.258,0.726-1.688,2.333-0.962,3.591l2.629,4.554c0.486,0.843,1.369,1.315,2.277,1.315l2.277-3.944L745.627,289.337z"/>
	<path style="fill:#FFC41D;" d="M718.379,340.406c-0.414-0.239-0.866-0.352-1.312-0.352c-0.908,0-1.793,0.472-2.28,1.315
		l-2.629,4.554c-0.726,1.258-0.296,2.866,0.962,3.591c0.414,0.239,0.866,0.352,1.312,0.352c0.908,0,1.792-0.472,2.28-1.315
		l2.629-4.554C720.067,342.739,719.637,341.131,718.379,340.406z"/>
	<path style="fill:#FFC41D;" d="M742.042,299.42c-0.414-0.239-0.866-0.352-1.312-0.352c-0.908,0-1.792,0.472-2.28,1.315
		l-2.629,4.554c-0.726,1.258-0.296,2.866,0.962,3.592c0.414,0.239,0.866,0.352,1.312,0.352c0.908,0,1.793-0.472,2.28-1.315
		l2.629-4.554C743.73,301.753,743.3,300.146,742.042,299.42z"/>
	<path style="fill:#FFC41D;" d="M686.828,395.053c-0.414-0.239-0.866-0.352-1.312-0.352c-0.908,0-1.793,0.472-2.28,1.315
		l-2.629,4.554c-0.726,1.258-0.296,2.866,0.962,3.591c0.414,0.239,0.866,0.352,1.312,0.352c0.908,0,1.792-0.472,2.28-1.315
		l2.629-4.554C688.516,397.387,688.086,395.778,686.828,395.053z"/>
	<path style="fill:#FFC41D;" d="M710.491,354.067c-0.414-0.239-0.866-0.352-1.312-0.352c-0.908,0-1.792,0.472-2.28,1.315
		l-2.629,4.554c-0.726,1.258-0.296,2.866,0.962,3.592c0.414,0.239,0.866,0.352,1.312,0.352c0.908,0,1.793-0.472,2.28-1.315
		l2.629-4.554C712.179,356.402,711.749,354.793,710.491,354.067z"/>
	<path style="fill:#FFC41D;" d="M694.716,381.391c-0.414-0.239-0.866-0.352-1.312-0.352c-0.908,0-1.792,0.472-2.28,1.315
		l-2.629,4.554c-0.726,1.258-0.296,2.866,0.962,3.592c0.414,0.239,0.866,0.352,1.312,0.352c0.908,0,1.793-0.472,2.28-1.315
		l2.629-4.554C696.404,383.725,695.974,382.117,694.716,381.391z"/>
	<path style="fill:#FFC41D;" d="M702.603,367.728c-0.414-0.239-0.866-0.352-1.312-0.352c-0.908,0-1.793,0.472-2.28,1.315
		l-2.629,4.554c-0.726,1.258-0.296,2.866,0.962,3.591c0.414,0.239,0.866,0.352,1.312,0.352c0.908,0,1.792-0.472,2.28-1.315
		l2.629-4.554C704.291,370.063,703.862,368.455,702.603,367.728z"/>
	<path style="fill:#FFC41D;" d="M445.902,493.572h-5.258c-1.453,0-2.629,1.177-2.629,2.629c0,1.453,1.177,2.629,2.629,2.629h5.258
		c1.453,0,2.629-1.177,2.629-2.629C448.531,494.749,447.355,493.572,445.902,493.572z"/>
	<path style="fill:#FFC41D;" d="M477.453,493.572h-5.258c-1.453,0-2.629,1.177-2.629,2.629c0,1.453,1.177,2.629,2.629,2.629h5.258
		c1.453,0,2.629-1.177,2.629-2.629C480.082,494.749,478.906,493.572,477.453,493.572z"/>
	<path style="fill:#FFC41D;" d="M466.936,94.234h5.258c1.453,0,2.629-1.177,2.629-2.629c0-1.453-1.177-2.629-2.629-2.629h-5.258
		c-1.453,0-2.629,1.177-2.629,2.629C464.307,93.058,465.485,94.234,466.936,94.234z"/>
	<path style="fill:#FFC41D;" d="M482.711,94.234h5.258c1.453,0,2.629-1.177,2.629-2.629c0-1.453-1.177-2.629-2.629-2.629h-5.258
		c-1.453,0-2.629,1.177-2.629,2.629C480.082,93.058,481.26,94.234,482.711,94.234z"/>
	<path style="fill:#FFC41D;" d="M461.678,493.572h-5.258c-1.453,0-2.629,1.177-2.629,2.629c0,1.453,1.177,2.629,2.629,2.629h5.258
		c1.453,0,2.629-1.177,2.629-2.629C464.307,494.749,463.13,493.572,461.678,493.572z"/>
	<path style="fill:#FFC41D;" d="M493.228,493.572h-5.258c-1.453,0-2.629,1.177-2.629,2.629c0,1.453,1.177,2.629,2.629,2.629h5.258
		c1.453,0,2.629-1.177,2.629-2.629C495.857,494.749,494.681,493.572,493.228,493.572z"/>
	<path style="fill:#FFC41D;" d="M398.576,493.572h-5.258c-0.973,0-1.822,0.528-2.277,1.315l2.277,3.944l0,0h5.258
		c1.453,0,2.629-1.177,2.629-2.629C401.206,494.749,400.029,493.572,398.576,493.572z"/>
	<path style="fill:#FFC41D;" d="M414.352,493.572h-5.258c-1.453,0-2.629,1.177-2.629,2.629c0,1.453,1.177,2.629,2.629,2.629h5.258
		c1.453,0,2.629-1.177,2.629-2.629C416.981,494.749,415.804,493.572,414.352,493.572z"/>
	<path style="fill:#FFC41D;" d="M545.813,94.234h5.258c1.453,0,2.629-1.177,2.629-2.629c0-1.453-1.177-2.629-2.629-2.629h-5.258
		c-1.453,0-2.629,1.177-2.629,2.629C543.183,93.058,544.361,94.234,545.813,94.234z"/>
	<path style="fill:#FFC41D;" d="M430.127,493.572h-5.258c-1.453,0-2.629,1.177-2.629,2.629c0,1.453,1.177,2.629,2.629,2.629h5.258
		c1.453,0,2.629-1.177,2.629-2.629C432.756,494.749,431.58,493.572,430.127,493.572z"/>
	<path style="fill:#FFC41D;" d="M435.385,94.234h5.258c1.453,0,2.629-1.177,2.629-2.629c0-1.453-1.177-2.629-2.629-2.629h-5.258
		c-1.453,0-2.629,1.177-2.629,2.629C432.756,93.058,433.934,94.234,435.385,94.234z"/>
	<path style="fill:#FFC41D;" d="M498.487,94.234h5.258c1.453,0,2.629-1.177,2.629-2.629c0-1.453-1.177-2.629-2.629-2.629h-5.258
		c-1.453,0-2.629,1.177-2.629,2.629C495.857,93.058,497.035,94.234,498.487,94.234z"/>
	<path style="fill:#FFC41D;" d="M451.161,94.234h5.258c1.453,0,2.629-1.177,2.629-2.629c0-1.453-1.177-2.629-2.629-2.629h-5.258
		c-1.453,0-2.629,1.177-2.629,2.629C448.531,93.058,449.709,94.234,451.161,94.234z"/>
	<path style="fill:#FFC41D;" d="M509.004,493.572h-5.258c-1.453,0-2.629,1.177-2.629,2.629c0,1.453,1.177,2.629,2.629,2.629h5.258
		c1.453,0,2.629-1.177,2.629-2.629C511.633,494.749,510.456,493.572,509.004,493.572z"/>
	<path style="fill:#FFC41D;" d="M540.554,493.572h-5.258c-1.453,0-2.629,1.177-2.629,2.629c0,1.453,1.177,2.629,2.629,2.629h5.258
		c1.453,0,2.629-1.177,2.629-2.629C543.183,494.749,542.007,493.572,540.554,493.572z"/>
	<path style="fill:#FFC41D;" d="M530.037,94.234h5.258c1.453,0,2.629-1.177,2.629-2.629c0-1.453-1.177-2.629-2.629-2.629h-5.258
		c-1.453,0-2.629,1.177-2.629,2.629C527.408,93.058,528.586,94.234,530.037,94.234z"/>
	<path style="fill:#FFC41D;" d="M524.779,493.572h-5.258c-1.453,0-2.629,1.177-2.629,2.629c0,1.453,1.177,2.629,2.629,2.629h5.258
		c1.453,0,2.629-1.177,2.629-2.629C527.408,494.749,526.232,493.572,524.779,493.572z"/>
	<path style="fill:#FFC41D;" d="M514.262,94.234h5.258c1.453,0,2.629-1.177,2.629-2.629c0-1.453-1.177-2.629-2.629-2.629h-5.258
		c-1.453,0-2.629,1.177-2.629,2.629C511.633,93.058,512.811,94.234,514.262,94.234z"/>
	<path style="fill:#FFC41D;" d="M376.862,109.146c1.152-0.883,1.37-2.535,0.486-3.686c-0.957-1.246-1.784-2.595-2.461-4.007
		c-0.628-1.309-2.198-1.861-3.507-1.234c-1.309,0.628-1.863,2.198-1.234,3.507c0.833,1.741,1.854,3.401,3.031,4.935
		c0.518,0.676,1.299,1.029,2.088,1.029C375.822,109.689,376.386,109.512,376.862,109.146z"/>
	<path style="fill:#FFC41D;" d="M372.859,79.713c0.45,0.301,0.958,0.446,1.463,0.446c0.847,0,1.679-0.409,2.186-1.163
		c0.874-1.303,1.888-2.519,3.012-3.616c1.04-1.014,1.06-2.679,0.045-3.718c-1.014-1.039-2.678-1.06-3.718-0.045
		c-1.383,1.35-2.629,2.846-3.705,4.449C371.332,77.271,371.653,78.903,372.859,79.713z"/>
	<path style="fill:#FFC41D;" d="M370.048,95.074c0.028,0,0.055,0,0.083-0.001c1.451-0.046,2.591-1.259,2.546-2.711
		c-0.008-0.238-0.012-0.476-0.011-0.722c0-1.334,0.116-2.671,0.346-3.973c0.252-1.43-0.703-2.794-2.134-3.046
		c-1.43-0.248-2.794,0.703-3.046,2.134c-0.283,1.603-0.426,3.247-0.426,4.88c0,0.298,0.004,0.597,0.013,0.893
		C367.466,93.952,368.635,95.074,370.048,95.074z"/>
	<path style="fill:#FFC41D;" d="M418.15,89.42c-0.705,0.472-1.169,1.274-1.169,2.185c0,0.847,0.408,1.592,1.029,2.073
		c-0.079,0.89-0.196,1.776-0.377,2.645c-0.297,1.422,0.614,2.815,2.035,3.112c0.181,0.038,0.362,0.057,0.54,0.057
		c1.219,0,2.311-0.852,2.571-2.092c0.218-1.041,0.371-2.099,0.468-3.166h1.621c1.453,0,2.629-1.177,2.629-2.629
		c0-1.453-1.177-2.629-2.629-2.629h-1.776c-0.43-0.977-1.424-1.631-2.564-1.566C419.35,87.484,418.412,88.329,418.15,89.42z"/>
	<path style="fill:#FFC41D;" d="M398.409,119.446c0.104,0,0.208-0.005,0.313-0.018c1.921-0.227,3.823-0.657,5.652-1.276
		c1.375-0.465,2.113-1.959,1.647-3.334c-0.465-1.375-1.955-2.111-3.334-1.647c-1.483,0.502-3.026,0.851-4.585,1.037
		c-1.442,0.171-2.471,1.479-2.301,2.921C395.96,118.463,397.095,119.446,398.409,119.446z"/>
	<path style="fill:#FFC41D;" d="M401.311,69.696c1.513,0.408,2.988,0.975,4.387,1.688c0.383,0.195,0.79,0.288,1.192,0.288
		c0.957,0,1.88-0.525,2.344-1.436c0.66-1.294,0.146-2.876-1.149-3.536c-1.725-0.878-3.544-1.579-5.41-2.081
		c-1.4-0.377-2.846,0.454-3.222,1.856C399.077,67.877,399.909,69.319,401.311,69.696z"/>
	<path style="fill:#FFC41D;" d="M415.573,81.187c0.468,0.903,1.386,1.42,2.336,1.42c0.409,0,0.822-0.095,1.208-0.296
		c1.288-0.669,1.792-2.256,1.123-3.545c-0.889-1.712-1.96-3.339-3.185-4.836c-0.922-1.125-2.577-1.29-3.699-0.369
		c-1.124,0.92-1.288,2.577-0.369,3.699C413.981,78.476,414.851,79.797,415.573,81.187z"/>
	<path style="fill:#FFC41D;" d="M414.29,112.277c1.425-1.305,2.719-2.762,3.844-4.33c0.848-1.179,0.577-2.822-0.602-3.669
		c-1.179-0.847-2.821-0.576-3.669,0.602c-0.915,1.275-1.967,2.46-3.125,3.521c-1.07,0.981-1.144,2.644-0.163,3.715
		c0.519,0.567,1.228,0.853,1.939,0.853C413.149,112.969,413.785,112.74,414.29,112.277z"/>
	<path style="fill:#FFC41D;" d="M386.494,70.524c0.306,0,0.618-0.054,0.922-0.167c1.466-0.55,2.997-0.948,4.55-1.182
		c1.436-0.218,2.424-1.558,2.206-2.993c-0.218-1.437-1.568-2.422-2.993-2.206c-1.914,0.291-3.801,0.78-5.608,1.457
		c-1.359,0.51-2.049,2.026-1.539,3.385C384.426,69.872,385.428,70.524,386.494,70.524z"/>
	<path style="fill:#FFC41D;" d="M604.697,499.222c1.451-0.045,2.591-1.258,2.546-2.711c-0.008-0.241-0.012-0.48-0.012-0.723
		c0-1.336,0.116-2.67,0.346-3.971c0.252-1.43-0.702-2.794-2.132-3.046c-1.428-0.247-2.794,0.702-3.046,2.132
		c-0.155,0.878-0.259,1.771-0.329,2.667h-3.672c-1.453,0-2.629,1.177-2.629,2.629c0,1.453,1.177,2.629,2.629,2.629h4.847
		c0.401,0.246,0.868,0.393,1.37,0.393C604.64,499.224,604.668,499.224,604.697,499.222z"/>
	<path style="fill:#FFC41D;" d="M625.742,468.123c-1.911,0.289-3.798,0.78-5.608,1.457c-1.359,0.51-2.049,2.025-1.539,3.385
		c0.396,1.056,1.397,1.708,2.464,1.708c0.306,0,0.618-0.055,0.922-0.168c1.468-0.551,2.999-0.949,4.549-1.182
		c1.436-0.217,2.424-1.558,2.207-2.992S627.18,467.904,625.742,468.123z"/>
	<path style="fill:#FFC41D;" d="M610.411,475.764c-1.382,1.347-2.629,2.845-3.706,4.45c-0.81,1.205-0.488,2.838,0.718,3.647
		c0.45,0.302,0.958,0.447,1.463,0.447c0.847,0,1.677-0.409,2.186-1.165c0.875-1.303,1.888-2.52,3.012-3.615
		c1.04-1.014,1.061-2.678,0.046-3.718C613.113,474.773,611.45,474.752,610.411,475.764z"/>
	<path style="fill:#FFC41D;" d="M655.092,491.559c-1.449,0.091-2.55,1.341-2.46,2.788c0.03,0.477,0.045,0.958,0.045,1.442
		c0,1.576-0.163,3.151-0.482,4.683c-0.297,1.421,0.614,2.815,2.035,3.112c0.181,0.037,0.363,0.055,0.542,0.055
		c1.219,0,2.311-0.851,2.571-2.092c0.394-1.883,0.594-3.819,0.594-5.758c0-0.594-0.018-1.184-0.055-1.771
		C657.791,492.57,656.568,491.473,655.092,491.559z"/>
	<path style="fill:#FFC41D;" d="M637.253,517.318c-1.479,0.502-3.022,0.851-4.587,1.039c-1.442,0.172-2.47,1.482-2.298,2.924
		c0.16,1.336,1.295,2.316,2.607,2.316c0.104,0,0.21-0.007,0.315-0.02c1.925-0.23,3.826-0.66,5.649-1.278
		c1.375-0.465,2.113-1.959,1.647-3.334C640.12,517.589,638.631,516.85,637.253,517.318z"/>
	<path style="fill:#FFC41D;" d="M623.343,517.539c-1.5-0.456-2.958-1.069-4.332-1.827c-1.273-0.702-2.87-0.237-3.572,1.035
		c-0.701,1.273-0.237,2.872,1.035,3.572c1.695,0.933,3.49,1.691,5.34,2.253c0.255,0.078,0.513,0.114,0.765,0.114
		c1.128,0,2.17-0.732,2.515-1.865C625.516,519.429,624.733,517.961,623.343,517.539z"/>
	<path style="fill:#FFC41D;" d="M647.918,477.709c-1.124,0.919-1.29,2.575-0.369,3.699c0.996,1.217,1.867,2.54,2.587,3.928
		c0.468,0.903,1.386,1.418,2.336,1.418c0.409,0,0.822-0.095,1.209-0.296c1.288-0.669,1.792-2.256,1.123-3.544
		c-0.889-1.712-1.96-3.339-3.185-4.838C650.699,476.953,649.041,476.791,647.918,477.709z"/>
	<path style="fill:#FFC41D;" d="M652.096,508.426c-1.179-0.843-2.821-0.577-3.669,0.603c-0.916,1.276-1.968,2.46-3.124,3.518
		c-1.071,0.981-1.145,2.644-0.164,3.715c0.519,0.567,1.229,0.853,1.94,0.853c0.634,0,1.27-0.227,1.775-0.689
		c1.424-1.303,2.717-2.761,3.845-4.332C653.545,510.916,653.275,509.274,652.096,508.426z"/>
	<path style="fill:#FFC41D;" d="M609.452,505.602c-0.627-1.308-2.198-1.864-3.506-1.234c-1.311,0.628-1.863,2.198-1.236,3.507
		c0.833,1.739,1.854,3.4,3.031,4.935c0.518,0.674,1.298,1.028,2.088,1.028c0.559,0,1.121-0.177,1.599-0.543
		c1.152-0.885,1.37-2.536,0.485-3.688C610.955,508.36,610.127,507.014,609.452,505.602z"/>
	<path style="fill:#FFC41D;" d="M730.099,217.952c0.723,1.253,2.339,1.685,3.591,0.962s1.685-2.339,0.962-3.592l-65.034-112.642
		l6.836-3.816l-17.589-10.497l-0.297,20.483l6.459-3.606L730.099,217.952z"/>
	<path style="fill:#FFC41D;" d="M297.103,369.691c-0.723-1.253-2.339-1.685-3.591-0.962s-1.685,2.339-0.962,3.592l65.034,112.642
		l-6.836,3.816l17.589,10.498l0.297-20.483l-6.459,3.606L297.103,369.691z"/>
	<path style="fill:#FFC41D;" d="M610.844,122.066H412.422l-99.211,171.838l99.211,171.838h198.422l99.211-171.838L610.844,122.066z
		 M628.946,423.873l-63.413,36.612H457.08l-62.433-36.047l-55.455-96.052v-68.963l55.879-96.784l61.165-35.313h112.212l59.04,34.088
		l56.586,98.011v68.963L628.946,423.873z"/>
</g>
<linearGradient id="SVGID_1_" gradientUnits="userSpaceOnUse" x1="512.2861" y1="499.5981" x2="512.2861" y2="65.7769" gradientTransform="matrix(1 0 0 -1 0 1026)">
	<stop  offset="0" style="stop-color:#FFC41D"/>
	<stop  offset="1" style="stop-color:#FFC41D;stop-opacity:0.1"/>
</linearGradient>
<rect x="507.685" y="526.402" style="fill:url(#SVGID_1_);" width="9.202" height="433.821"/>
<path style="fill:#FFC41D;" d="M531.407,203.976h-38.719c-4.748,0-8.542,4.279-8.542,9.57c0,5.3,3.801,9.599,8.542,9.599h38.958
	c4.509,0,8.311-4.3,8.311-9.599C539.956,208.255,536.162,203.976,531.407,203.976L531.407,203.976z M573.444,210.364h-19.274
	c0.194,1.043,0.306,2.108,0.306,3.182c0.007,8.049-5.762,15.987-12.626,15.987h-59.232c-7.222,0-12.998-7.93-12.998-15.987
	c0.008-1.074,0.119-2.132,0.321-3.182h-19.528c-15.674,0-19.528,9.011-19.528,22.009v128.719c0,13.953,5.515,21.763,20.72,21.763
	h120.654c15.205,0,22.599-6.127,22.599-21.763V232.373C594.857,219.375,587.941,210.364,573.444,210.364L573.444,210.364z
	 M553.64,337.45h-83.85c-3.086,0-6.171-3.838-6.171-6.976c0-3.123,2.608-5.799,5.702-5.799h83.603c3.094,0,5.702,2.438,5.933,5.799
	C558.858,333.612,556.726,337.45,553.64,337.45L553.64,337.45z M553.976,303.374h-83.834c-3.094,0-5.068-3.369-5.068-6.507
	c0-3.13,2.616-6.275,5.709-6.275h83.604c3.085,0,5.694,2.907,5.932,6.275c0,3.13-3.257,6.507-6.335,6.507H553.976z M553.976,268.366
	h-83.834c-3.094,0-5.068-3.362-5.068-6.5c0-3.138,2.616-6.275,5.709-6.275h83.604c3.085,0,5.694,2.906,5.932,6.275
	c0,3.13-3.257,6.5-6.335,6.5H553.976z M553.976,268.366"/>
<rect x="430.911" y="203.863" style="fill:none;" width="163.961" height="179.211"/>
</svg>
