<?xml version="1.0" encoding="iso-8859-1"?>
<!-- Generator: Adobe Illustrator 22.0.0, SVG Export Plug-In . SVG Version: 6.00 Build 0)  -->
<svg version="1.1" id="&#x56FE;&#x5C42;_1" xmlns="http://www.w3.org/2000/svg" xmlns:xlink="http://www.w3.org/1999/xlink" x="0px"
	 y="0px" viewBox="0 0 1024 1024" style="enable-background:new 0 0 1024 1024;" xml:space="preserve">
<rect x="65.725" y="66.868" style="fill:none;" width="893.608" height="856.089"/>
<g style="opacity:0.4;">
	<polygon style="fill:#BBBBBB;" points="604.914,129.335 413.074,129.335 317.154,295.473 413.074,461.611 604.914,461.611 
		700.834,295.473 	"/>
</g>
<g>
	<path style="fill:#BBBBBB;" d="M318.849,221.895c0.413,0.238,0.863,0.352,1.308,0.352c0.906,0,1.786-0.47,2.272-1.311l2.62-4.539
		c0.724-1.253,0.294-2.856-0.959-3.58c-0.413-0.238-0.863-0.351-1.308-0.351c-0.905,0-1.784,0.469-2.27,1.308l-2.49,4.313
		c0,0,0,0,0,0l-0.046,0.079c0,0,0,0,0,0.001l-0.005,0.008c-0.001,0.001-0.002,0.003-0.002,0.004l0,0
		c-0.001,0.001-0.001,0.002-0.002,0.003l-0.002,0.003c-0.001,0.002-0.003,0.005-0.004,0.007l-0.009,0.016
		c-0.001,0.001-0.001,0.002-0.002,0.003l0,0.001c-0.001,0.001-0.002,0.003-0.002,0.004l0,0c-0.001,0.001-0.001,0.002-0.002,0.003
		l-0.001,0.002c-0.001,0.002-0.002,0.004-0.004,0.006l-0.001,0.001c-0.001,0.001-0.001,0.002-0.002,0.003l-0.001,0.001
		c0,0.001-0.001,0.001-0.001,0.002l-0.002,0.003c-0.001,0.002-0.002,0.004-0.003,0.005l-0.001,0.001
		c-0.001,0.001-0.001,0.002-0.002,0.003l-0.011,0.02c-0.001,0.003-0.003,0.005-0.004,0.007l-0.001,0.001
		c-0.002,0.003-0.004,0.006-0.005,0.009l-0.001,0.002c-0.001,0.001-0.001,0.002-0.002,0.003l0,0
		c-0.001,0.001-0.001,0.002-0.002,0.003l-0.001,0.001c-0.001,0.002-0.002,0.004-0.003,0.005l0,0.001c0,0,0,0,0,0l-0.001,0.001
		c0,0.001-0.001,0.001-0.001,0.002l0,0.001c0,0,0,0.001-0.001,0.001l0,0.001c0,0,0,0,0,0l-0.003,0.005c0,0,0,0,0,0l-0.001,0.001
		c0,0,0,0,0,0l-0.001,0.002C317.167,219.569,317.596,221.172,318.849,221.895z"/>
	<path style="fill:#BBBBBB;" d="M314.916,359.622c-0.445,0-0.895,0.113-1.308,0.352c-1.25,0.722-1.681,2.318-0.964,3.57l2.046,3.544
		c0.006,0.01,0.011,0.019,0.017,0.029l0.001,0.002c0.001,0.002,0.003,0.005,0.004,0.008l0.002,0.004
		c0.324,0.562,0.555,0.961,0.555,0.961c0.485,0.841,1.366,1.311,2.272,1.311c0.444,0,0.895-0.113,1.308-0.352
		c1.253-0.724,1.683-2.326,0.959-3.58l-2.62-4.539C316.703,360.092,315.822,359.622,314.916,359.622z"/>
	<path style="fill:#BBBBBB;" d="M330.639,386.854c-0.445,0-0.895,0.113-1.308,0.352c-1.25,0.722-1.681,2.318-0.965,3.57l2.268,3.929
		c0.001,0.002,0.002,0.004,0.004,0.006l0.001,0.002c0.003,0.005,0.006,0.011,0.009,0.016l0.002,0.003
		c0.007,0.011,0.013,0.023,0.02,0.034l0.001,0.002c0.196,0.339,0.321,0.556,0.321,0.556c0.485,0.841,1.366,1.311,2.272,1.311
		c0.444,0,0.895-0.113,1.308-0.351c1.253-0.724,1.683-2.326,0.959-3.58l-2.62-4.539
		C332.425,387.324,331.544,386.854,330.639,386.854z"/>
	<path style="fill:#BBBBBB;" d="M326.711,208.279c0.413,0.238,0.863,0.351,1.308,0.351c0.906,0,1.786-0.47,2.272-1.311l2.62-4.539
		c0.724-1.253,0.294-2.856-0.959-3.58c-0.413-0.238-0.863-0.351-1.308-0.351c-0.906,0-1.786,0.47-2.272,1.311l-2.62,4.539
		C325.028,205.953,325.457,207.555,326.711,208.279z"/>
	<path style="fill:#BBBBBB;" d="M334.572,194.663c0.413,0.238,0.863,0.352,1.308,0.352c0.906,0,1.786-0.47,2.272-1.311l2.62-4.539
		c0.724-1.253,0.294-2.856-0.959-3.58c-0.413-0.238-0.863-0.351-1.308-0.351c-0.904,0-1.784,0.469-2.27,1.307l-2.624,4.544
		C332.889,192.338,333.319,193.94,334.572,194.663z"/>
	<path style="fill:#BBBBBB;" d="M322.777,373.238c-0.444,0-0.895,0.113-1.308,0.352c-1.252,0.723-1.682,2.323-0.961,3.576
		l2.626,4.548c0.486,0.837,1.365,1.305,2.269,1.305c0.445,0,0.895-0.113,1.308-0.351c1.253-0.724,1.683-2.326,0.959-3.58
		l-2.62-4.539C324.564,373.708,323.683,373.238,322.777,373.238z"/>
	<path style="fill:#BBBBBB;" d="M299.194,332.39c-0.445,0-0.895,0.113-1.308,0.351c-1.25,0.722-1.681,2.319-0.964,3.571l2.631,4.558
		c0.487,0.834,1.364,1.3,2.266,1.3c0.444,0,0.895-0.113,1.308-0.352c1.253-0.724,1.683-2.326,0.959-3.58l-2.62-4.539
		C300.98,332.86,300.1,332.39,299.194,332.39z"/>
	<path style="fill:#BBBBBB;" d="M295.266,262.743c0.413,0.238,0.863,0.352,1.308,0.352c0.906,0,1.786-0.47,2.272-1.311l2.62-4.539
		c0.724-1.253,0.294-2.856-0.959-3.58c-0.413-0.238-0.863-0.352-1.308-0.351c-0.906,0-1.786,0.47-2.272,1.311l-2.62,4.539
		C293.583,260.417,294.012,262.02,295.266,262.743z"/>
	<path style="fill:#BBBBBB;" d="M310.988,235.511c0.413,0.238,0.863,0.352,1.308,0.352c0.906,0,1.786-0.47,2.272-1.311l2.62-4.539
		c0.724-1.253,0.294-2.856-0.959-3.58c-0.413-0.238-0.863-0.352-1.308-0.351c-0.906,0-1.786,0.47-2.272,1.311l-2.62,4.539
		C309.305,233.185,309.735,234.788,310.988,235.511z"/>
	<path style="fill:#BBBBBB;" d="M293.958,328.554c0.444,0,0.895-0.113,1.308-0.351c1.253-0.724,1.683-2.326,0.959-3.58l-2.62-4.539
		c-0.485-0.841-1.366-1.311-2.272-1.311c-0.444,0-0.895,0.113-1.308,0.352c-1.253,0.723-1.682,2.325-0.96,3.578l2.623,4.544
		C292.174,328.086,293.054,328.554,293.958,328.554z"/>
	<path style="fill:#BBBBBB;" d="M307.055,346.006c-0.444,0-0.895,0.113-1.308,0.352c-1.252,0.723-1.682,2.324-0.961,3.577
		l2.624,4.546c0.486,0.838,1.365,1.306,2.269,1.306c0.444,0,0.895-0.113,1.308-0.351c1.253-0.724,1.683-2.326,0.959-3.58
		l-2.62-4.539C308.842,346.476,307.961,346.006,307.055,346.006z"/>
	<path style="fill:#BBBBBB;" d="M303.127,249.127c0.413,0.238,0.863,0.352,1.308,0.352c0.906,0,1.786-0.47,2.272-1.311l2.62-4.539
		c0.724-1.253,0.294-2.856-0.959-3.58c-0.413-0.238-0.863-0.351-1.308-0.351c-0.905,0-1.785,0.469-2.271,1.309l-1.475,2.554
		c-0.001,0.001-0.001,0.002-0.002,0.003l-0.057,0.098c-0.002,0.003-0.003,0.006-0.005,0.008l-0.036,0.062
		c-0.001,0.001-0.001,0.002-0.002,0.003l-0.019,0.033c-0.001,0.002-0.003,0.005-0.004,0.007l-0.005,0.008
		c-0.003,0.006-0.007,0.012-0.01,0.018l-0.005,0.009c-0.009,0.016-0.018,0.031-0.027,0.046l-0.002,0.003
		c-0.009,0.015-0.018,0.031-0.026,0.046l-0.005,0.008c-0.018,0.032-0.037,0.064-0.055,0.095l-0.003,0.005
		c-0.009,0.015-0.017,0.03-0.026,0.045l-0.002,0.004c-0.009,0.015-0.018,0.03-0.026,0.046l-0.004,0.007
		c-0.46,0.796-0.827,1.432-0.827,1.432C301.444,246.801,301.874,248.404,303.127,249.127z"/>
	<path style="fill:#BBBBBB;" d="M350.294,167.431c0.413,0.238,0.863,0.352,1.308,0.352c0.906,0,1.786-0.47,2.272-1.311l2.62-4.539
		c0.724-1.253,0.294-2.856-0.959-3.58c-0.413-0.238-0.863-0.351-1.308-0.351c-0.904,0-1.783,0.468-2.269,1.306l-2.625,4.547
		C348.612,165.107,349.042,166.708,350.294,167.431z"/>
	<path style="fill:#BBBBBB;" d="M366.017,140.199c0.413,0.238,0.863,0.352,1.308,0.352c0.906,0,1.786-0.47,2.272-1.311l2.62-4.539
		c0.724-1.253,0.294-2.856-0.959-3.579c-0.413-0.238-0.863-0.352-1.308-0.352c-0.903,0-1.782,0.468-2.268,1.305l-2.626,4.549
		C364.335,137.876,364.765,139.476,366.017,140.199z"/>
	<path style="fill:#BBBBBB;" d="M372.217,456.245c-0.485-0.841-1.366-1.311-2.272-1.311c-0.445,0-0.895,0.113-1.308,0.352
		c-1.251,0.722-1.681,2.32-0.963,3.572l2.629,4.554c0.486,0.836,1.364,1.302,2.267,1.302c0.445,0,0.895-0.113,1.308-0.351
		c1.253-0.724,1.683-2.326,0.959-3.58L372.217,456.245z"/>
	<path style="fill:#BBBBBB;" d="M364.355,442.629c-0.485-0.841-1.366-1.311-2.272-1.311c-0.445,0-0.895,0.113-1.308,0.352
		c-1.25,0.722-1.68,2.317-0.965,3.569l2.627,4.55c0.485,0.84,1.366,1.31,2.271,1.31c0.444,0,0.895-0.113,1.308-0.351
		c1.253-0.724,1.683-2.326,0.959-3.58L364.355,442.629z"/>
	<path style="fill:#BBBBBB;" d="M377.811,117.154c-0.906,0-1.786,0.47-2.272,1.311l-2.62,4.539c-0.724,1.253-0.294,2.856,0.959,3.58
		c0.413,0.238,0.863,0.351,1.308,0.351c0.906,0,1.786-0.47,2.272-1.311l2.62-4.539c0.5-0.866,0.439-1.893-0.054-2.688
		c1.652,0.898,3.395,1.636,5.191,2.181c0.254,0.077,0.51,0.114,0.762,0.114c1.124,0,2.164-0.729,2.507-1.86
		c0.42-1.385-0.361-2.848-1.746-3.268c-1.494-0.454-2.946-1.066-4.316-1.821c-1.269-0.697-2.862-0.236-3.56,1.031
		c-0.478,0.868-0.401,1.883,0.094,2.664C378.587,117.258,378.199,117.154,377.811,117.154z"/>
	<path style="fill:#BBBBBB;" d="M380.078,469.861c-0.485-0.841-1.366-1.311-2.272-1.311c-0.444,0-0.895,0.113-1.308,0.352
		c-1.253,0.724-1.683,2.326-0.959,3.579c0,0,0.501,0.868,1.065,1.844l0.002,0.004c0.02,0.034,0.039,0.068,0.059,0.103l0.001,0.001
		c0.015,0.026,0.03,0.052,0.045,0.078l0.001,0.001c0.004,0.007,0.008,0.014,0.012,0.021l0.005,0.009
		c0.009,0.016,0.019,0.033,0.028,0.049l0,0.001c0.009,0.016,0.018,0.032,0.027,0.047l0.005,0.009
		c0.004,0.007,0.008,0.014,0.012,0.021l0.004,0.006c0.001,0.002,0.003,0.005,0.004,0.007l0.004,0.008c0,0,0.001,0.001,0.001,0.001
		l0.007,0.013c0,0.001,0.001,0.001,0.001,0.002l0.004,0.008c0.001,0.002,0.002,0.004,0.004,0.006l0.098,0.17
		c0.001,0.001,0.002,0.003,0.002,0.004l0.004,0.008c0.001,0.001,0.001,0.002,0.002,0.003l0.007,0.012
		c0,0.001,0.001,0.002,0.002,0.003l0.005,0.008c0.001,0.001,0.002,0.003,0.002,0.004l0.035,0.061
		c0.002,0.003,0.004,0.007,0.006,0.01l0.001,0.001c0.001,0.002,0.003,0.005,0.004,0.007l0.006,0.011
		c0.003,0.005,0.006,0.01,0.009,0.015l0.007,0.012c0,0,0,0.001,0.001,0.001l1.139,1.972c0.486,0.84,1.366,1.309,2.271,1.309
		c0.444,0,0.895-0.113,1.308-0.352c1.253-0.724,1.683-2.326,0.959-3.58L380.078,469.861z"/>
	<path style="fill:#BBBBBB;" d="M290.984,275.4l2.62-4.539c0.724-1.253,0.294-2.856-0.959-3.58
		c-0.413-0.238-0.863-0.351-1.308-0.351c-0.905,0-1.786,0.47-2.271,1.31l-0.496,0.859c0,0,0,0.001-0.001,0.001l-0.024,0.041
		c-0.002,0.004-0.004,0.008-0.007,0.011l-0.02,0.034l0,0l-0.018,0.032c-0.001,0.001-0.001,0.002-0.002,0.003l-0.005,0.008
		c-0.001,0.001-0.002,0.003-0.003,0.004l-0.024,0.042c0,0,0,0,0,0l-0.025,0.043c-0.003,0.005-0.006,0.01-0.009,0.016l-0.005,0.008
		c-0.001,0.002-0.003,0.004-0.004,0.007l-0.001,0.002c-0.002,0.003-0.004,0.006-0.005,0.009l-0.004,0.006
		c-0.001,0.001-0.001,0.002-0.002,0.004l-0.003,0.004c-0.001,0.002-0.003,0.004-0.004,0.007l-0.006,0.01
		c-0.003,0.006-0.007,0.012-0.01,0.018l-0.001,0.001c-0.004,0.007-0.008,0.014-0.012,0.021l-0.002,0.004
		c-0.008,0.014-0.016,0.028-0.024,0.042l-0.005,0.009c-0.017,0.03-0.035,0.06-0.052,0.09l-0.001,0.002
		c-0.009,0.016-0.018,0.031-0.027,0.047l-0.001,0.002c-0.005,0.008-0.009,0.016-0.014,0.024l-0.002,0.003
		c-0.003,0.006-0.007,0.012-0.01,0.018l-0.007,0.011c-0.767,1.329-1.788,3.097-1.788,3.097c-0.724,1.253-0.294,2.856,0.959,3.58
		c0.413,0.238,0.863,0.352,1.308,0.352C289.618,276.711,290.499,276.241,290.984,275.4z"/>
	<path style="fill:#BBBBBB;" d="M342.433,181.047c0.413,0.238,0.863,0.352,1.308,0.352c0.906,0,1.786-0.47,2.272-1.311l2.62-4.539
		c0.724-1.253,0.294-2.856-0.959-3.58c-0.413-0.238-0.863-0.352-1.308-0.351c-0.906,0-1.786,0.47-2.272,1.311l-2.62,4.539
		C340.75,178.721,341.18,180.324,342.433,181.047z"/>
	<path style="fill:#BBBBBB;" d="M338.5,400.47c-0.444,0-0.895,0.113-1.308,0.352c-1.251,0.723-1.681,2.322-0.962,3.574l2.627,4.55
		c0.486,0.837,1.365,1.304,2.268,1.304c0.445,0,0.895-0.113,1.308-0.351c1.253-0.724,1.683-2.326,0.959-3.58l-2.62-4.539
		C340.286,400.94,339.406,400.47,338.5,400.47z"/>
	<path style="fill:#BBBBBB;" d="M354.222,427.702c-0.444,0-0.895,0.113-1.308,0.352c-1.251,0.722-1.681,2.321-0.963,3.573
		l2.628,4.553c0.486,0.836,1.365,1.303,2.268,1.303c0.445,0,0.895-0.113,1.308-0.351c1.253-0.724,1.683-2.326,0.959-3.58
		l-2.62-4.539C356.009,428.172,355.128,427.702,354.222,427.702z"/>
	<path style="fill:#BBBBBB;" d="M346.361,414.086c-0.445,0-0.895,0.113-1.308,0.352c-1.25,0.722-1.68,2.318-0.965,3.569l2.467,4.273
		c0.001,0.001,0.001,0.002,0.002,0.003l0.003,0.005c0.002,0.003,0.004,0.006,0.005,0.009l0.009,0.016
		c0.001,0.001,0.001,0.002,0.002,0.003l0.002,0.004c0,0,0,0,0,0.001l0.003,0.005c0.002,0.003,0.003,0.005,0.005,0.008l0.002,0.004
		c0.002,0.003,0.004,0.007,0.006,0.01l0.001,0.003c0,0.001,0.001,0.002,0.001,0.002l0.006,0.01c0,0.001,0.001,0.002,0.001,0.003
		l0.001,0.001c0.069,0.12,0.109,0.189,0.109,0.189c0.485,0.841,1.366,1.311,2.272,1.311c0.444,0,0.895-0.113,1.308-0.351
		c1.253-0.724,1.683-2.326,0.959-3.58l-2.62-4.539C348.148,414.556,347.267,414.086,346.361,414.086z"/>
	<path style="fill:#BBBBBB;" d="M390.559,488.015l-2.62-4.539c-0.485-0.841-1.366-1.311-2.272-1.311
		c-0.445,0-0.895,0.113-1.308,0.352c-1.251,0.722-1.681,2.319-0.964,3.572l2.63,4.556c0.487,0.835,1.364,1.301,2.266,1.301
		c0.445,0,0.895-0.113,1.308-0.351C390.854,490.871,391.283,489.269,390.559,488.015z"/>
	<path style="fill:#BBBBBB;" d="M358.155,153.815c0.413,0.238,0.863,0.352,1.308,0.352c0.906,0,1.786-0.47,2.272-1.311l2.62-4.539
		c0.724-1.253,0.294-2.856-0.959-3.58c-0.413-0.238-0.863-0.352-1.308-0.351c-0.906,0-1.786,0.47-2.272,1.311l-2.62,4.539
		C356.473,151.489,356.902,153.092,358.155,153.815z"/>
	<path style="fill:#BBBBBB;" d="M687.721,204.092c0.444,0,0.895-0.113,1.308-0.352c1.25-0.722,1.681-2.318,0.965-3.57l-2.632-4.559
		c-0.487-0.834-1.364-1.3-2.266-1.3c-0.445,0-0.895,0.113-1.308,0.351c-1.253,0.724-1.683,2.326-0.959,3.58l2.62,4.539
		C685.934,203.622,686.815,204.092,687.721,204.092z"/>
	<path style="fill:#BBBBBB;" d="M654.004,148.317c0.485,0.841,1.366,1.311,2.272,1.311c0.445,0,0.895-0.113,1.308-0.352
		c1.25-0.722,1.68-2.317,0.965-3.569l-1.417-2.454c-0.002-0.004-0.004-0.007-0.006-0.011l-0.001-0.002
		c-0.002-0.003-0.004-0.007-0.006-0.01l-0.01-0.018c-0.611-1.059-1.186-2.054-1.186-2.054c-0.485-0.841-1.366-1.311-2.272-1.311
		c-0.445,0-0.895,0.113-1.308,0.351c-1.253,0.724-1.683,2.326-0.959,3.58L654.004,148.317z"/>
	<path style="fill:#BBBBBB;" d="M679.859,190.476c0.445,0,0.895-0.113,1.308-0.352c1.249-0.721,1.68-2.315,0.967-3.566L679.502,182
		c-0.486-0.837-1.365-1.304-2.268-1.304c-0.444,0-0.895,0.113-1.308,0.351c-1.253,0.724-1.683,2.326-0.959,3.58l2.62,4.539
		C678.073,190.006,678.954,190.476,679.859,190.476z"/>
	<path style="fill:#BBBBBB;" d="M285.743,306.469c-0.485-0.841-1.366-1.311-2.272-1.311c-0.445,0-0.895,0.113-1.308,0.351
		c-1.251,0.722-1.681,2.319-0.964,3.571l2.631,4.557c0.487,0.834,1.364,1.301,2.266,1.301c0.444,0,0.895-0.113,1.308-0.352
		c1.253-0.724,1.683-2.326,0.959-3.58L285.743,306.469z"/>
	<path style="fill:#BBBBBB;" d="M664.137,163.244c0.445,0,0.895-0.113,1.308-0.352c1.249-0.721,1.68-2.315,0.967-3.566l-2.633-4.56
		c-0.486-0.836-1.365-1.303-2.268-1.303c-0.444,0-0.895,0.113-1.308,0.351c-1.253,0.724-1.683,2.326-0.959,3.58l2.62,4.539
		C662.351,162.774,663.231,163.244,664.137,163.244z"/>
	<path style="fill:#BBBBBB;" d="M695.582,217.708c0.445,0,0.895-0.113,1.308-0.352c1.249-0.721,1.68-2.315,0.966-3.567l-2.631-4.557
		c-0.486-0.837-1.365-1.305-2.269-1.305c-0.444,0-0.895,0.113-1.308,0.351c-1.253,0.724-1.683,2.326-0.959,3.58l2.62,4.539
		C693.795,217.238,694.676,217.708,695.582,217.708z"/>
	<path style="fill:#BBBBBB;" d="M703.443,231.324c0.444,0,0.895-0.113,1.308-0.352c1.25-0.722,1.681-2.318,0.964-3.57l-2.632-4.559
		c-0.487-0.834-1.364-1.3-2.266-1.3c-0.445,0-0.895,0.113-1.308,0.351c-1.253,0.724-1.683,2.326-0.959,3.58l2.62,4.539
		C701.657,230.854,702.537,231.324,703.443,231.324z"/>
	<path style="fill:#BBBBBB;" d="M729.996,279.939l2.62,4.539c0.485,0.841,1.366,1.311,2.272,1.311c0.445,0,0.895-0.113,1.308-0.352
		c1.25-0.722,1.681-2.319,0.964-3.571l-2.631-4.557c-0.487-0.835-1.364-1.301-2.266-1.301c-0.444,0-0.895,0.113-1.308,0.351
		C729.701,277.083,729.272,278.685,729.996,279.939z"/>
	<path style="fill:#BBBBBB;" d="M724.401,262.392c-0.444,0-0.895,0.113-1.308,0.352c-1.253,0.724-1.683,2.326-0.959,3.58l2.62,4.539
		c0.485,0.841,1.366,1.311,2.272,1.311c0.445,0,0.895-0.113,1.308-0.352c1.249-0.721,1.68-2.316,0.966-3.568l-2.629-4.554
		C726.185,262.86,725.306,262.392,724.401,262.392z"/>
	<path style="fill:#BBBBBB;" d="M716.54,248.776c-0.444,0-0.895,0.113-1.308,0.351c-1.253,0.724-1.683,2.326-0.959,3.58l2.62,4.539
		c0.485,0.841,1.366,1.311,2.272,1.311c0.444,0,0.895-0.113,1.308-0.352c1.25-0.722,1.681-2.319,0.964-3.571l-2.631-4.558
		C718.319,249.242,717.442,248.775,716.54,248.776z"/>
	<path style="fill:#BBBBBB;" d="M711.304,244.94c0.445,0,0.895-0.113,1.308-0.352c1.249-0.721,1.68-2.316,0.966-3.567l-2.63-4.555
		c-0.486-0.838-1.365-1.306-2.269-1.306c-0.444,0-0.895,0.113-1.308,0.351c-1.253,0.724-1.683,2.326-0.959,3.58l2.62,4.539
		C709.518,244.47,710.399,244.94,711.304,244.94z"/>
	<path style="fill:#BBBBBB;" d="M671.998,176.86c0.445,0,0.895-0.113,1.308-0.352c1.25-0.722,1.68-2.318,0.965-3.569l-2.633-4.56
		c-0.487-0.834-1.364-1.299-2.265-1.299c-0.445,0-0.895,0.113-1.308,0.351c-1.253,0.724-1.683,2.326-0.959,3.58l2.62,4.539
		C670.212,176.39,671.093,176.86,671.998,176.86z"/>
	<path style="fill:#BBBBBB;" d="M388.641,95.771c-0.724,1.253-0.294,2.856,0.959,3.58c0.413,0.238,0.863,0.351,1.308,0.351
		c0.906,0,1.786-0.47,2.272-1.311l2.62-4.539c0.485-0.84,0.452-1.836,0-2.62h-4.539L388.641,95.771z"/>
	<path style="fill:#BBBBBB;" d="M401.743,91.233c-1.447,0-2.62,1.173-2.62,2.62c0,1.447,1.173,2.62,2.62,2.62h5.241
		c1.447,0,2.62-1.173,2.62-2.62c0-1.447-1.173-2.62-2.62-2.62H401.743z"/>
	<path style="fill:#BBBBBB;" d="M381.739,112.967c0.413,0.238,0.863,0.352,1.308,0.352c0.906,0,1.786-0.47,2.272-1.311l2.62-4.539
		c0.724-1.253,0.294-2.856-0.959-3.579c-0.413-0.238-0.863-0.352-1.308-0.352c-0.903,0-1.782,0.467-2.268,1.304l-2.628,4.551
		C380.058,110.646,380.488,112.244,381.739,112.967z"/>
	<path style="fill:#BBBBBB;" d="M277.882,292.853c-0.485-0.84-1.364-1.31-2.269-1.311l-2.27,3.931c0,0,0.041,0.07,0.112,0.194
		l0.002,0.003c0.009,0.015,0.018,0.031,0.027,0.047v0c0.005,0.008,0.01,0.017,0.015,0.026l0,0.001
		c0.005,0.008,0.01,0.017,0.015,0.026l0.001,0.002c0.01,0.018,0.021,0.037,0.033,0.056l0.001,0.002
		c0.005,0.009,0.011,0.019,0.016,0.028l0.001,0.002c0.003,0.005,0.006,0.01,0.008,0.015l0,0c0.001,0.002,0.003,0.005,0.004,0.007
		l0.007,0.012c0.001,0.001,0.001,0.002,0.002,0.003l0.002,0.003c0.001,0.002,0.002,0.004,0.003,0.005l0.002,0.003
		c0.001,0.002,0.003,0.005,0.004,0.007l0,0c0.001,0.002,0.002,0.003,0.003,0.005l0.004,0.006c0.004,0.007,0.008,0.014,0.012,0.022
		l0.001,0.002c0.001,0.002,0.002,0.003,0.003,0.004l0.003,0.006c0.006,0.01,0.012,0.021,0.018,0.032l0,0.001
		c0.005,0.009,0.011,0.019,0.016,0.028l0.011,0.019c0.001,0.001,0.001,0.003,0.002,0.004l0.003,0.005
		c0.002,0.004,0.004,0.008,0.007,0.012l0.007,0.012c0.001,0.001,0.001,0.002,0.002,0.003l0.023,0.041l0,0l0.004,0.006
		c0.003,0.005,0.005,0.009,0.008,0.014l0.01,0.018c0,0,0.001,0.001,0.001,0.001l0.046,0.08l0.006,0.01c0,0,0.001,0.001,0.001,0.001
		l2.174,3.766c0.486,0.839,1.366,1.308,2.27,1.308c0.444,0,0.895-0.113,1.308-0.352c1.253-0.724,1.683-2.326,0.959-3.58
		L277.882,292.853z"/>
	<path style="fill:#BBBBBB;" d="M283.123,289.016l2.62-4.539c0.724-1.253,0.294-2.856-0.959-3.58
		c-0.413-0.238-0.863-0.351-1.308-0.351c-0.906,0-1.786,0.47-2.272,1.311l-2.62,4.539c-0.724,1.253-0.294,2.856,0.959,3.579
		c0.413,0.238,0.863,0.352,1.308,0.352C281.757,290.327,282.638,289.857,283.123,289.016z"/>
	<path style="fill:#BBBBBB;" d="M646.143,134.701c0.485,0.841,1.366,1.311,2.272,1.311c0.445,0,0.895-0.113,1.308-0.352
		c1.253-0.724,1.683-2.326,0.959-3.579l-2.62-4.539c-0.485-0.841-1.366-1.311-2.272-1.311c-0.444,0-0.895,0.113-1.308,0.351
		c-1.253,0.724-1.683,2.326-0.959,3.58L646.143,134.701z"/>
	<path style="fill:#BBBBBB;" d="M638.282,121.085c0.485,0.841,1.366,1.311,2.272,1.311c0.445,0,0.895-0.113,1.308-0.352
		c1.253-0.724,1.683-2.326,0.959-3.58l-2.62-4.539c-0.485-0.841-1.366-1.311-2.272-1.311c-0.445,0-0.895,0.113-1.308,0.351
		c-1.253,0.724-1.683,2.326-0.959,3.58L638.282,121.085z"/>
	<path style="fill:#BBBBBB;" d="M652.343,450.747c-0.413-0.238-0.863-0.352-1.308-0.351c-0.906,0-1.786,0.47-2.272,1.311
		l-2.62,4.539c-0.724,1.253-0.294,2.856,0.959,3.58c0.413,0.238,0.863,0.352,1.308,0.352c0.906,0,1.786-0.47,2.272-1.311l2.62-4.539
		C654.026,453.073,653.596,451.47,652.343,450.747z"/>
	<path style="fill:#BBBBBB;" d="M606.135,96.474h5.241c1.447,0,2.62-1.173,2.62-2.62c0-1.447-1.173-2.62-2.62-2.62h-5.241
		c-1.447,0-2.62,1.173-2.62,2.62C603.514,95.3,604.687,96.474,606.135,96.474z"/>
	<path style="fill:#BBBBBB;" d="M627.8,102.93l2.62,4.539c0.485,0.841,1.366,1.311,2.272,1.311c0.445,0,0.895-0.113,1.308-0.352
		c1.253-0.724,1.683-2.326,0.959-3.579l-2.62-4.539c-0.485-0.841-1.366-1.311-2.272-1.311c-0.444,0-0.895,0.113-1.308,0.351
		C627.506,100.075,627.076,101.677,627.8,102.93z"/>
	<path style="fill:#BBBBBB;" d="M621.857,96.474h5.241c0.97,0,1.816-0.527,2.27-1.31l-2.27-3.931h-5.241
		c-1.447,0-2.62,1.173-2.62,2.62C619.237,95.3,620.41,96.474,621.857,96.474z"/>
	<path style="fill:#BBBBBB;" d="M660.204,437.131c-0.413-0.238-0.863-0.352-1.308-0.352c-0.906,0-1.786,0.47-2.272,1.311
		l-2.62,4.539c-0.724,1.253-0.294,2.856,0.959,3.58c0.413,0.238,0.863,0.351,1.308,0.351c0.906,0,1.786-0.47,2.272-1.311l2.62-4.539
		C661.887,439.457,661.457,437.854,660.204,437.131z"/>
	<path style="fill:#BBBBBB;" d="M590.412,96.474h5.241c1.447,0,2.62-1.173,2.62-2.62c0-1.447-1.173-2.62-2.62-2.62h-5.241
		c-1.447,0-2.62,1.173-2.62,2.62C587.792,95.3,588.965,96.474,590.412,96.474z"/>
	<path style="fill:#BBBBBB;" d="M668.065,423.515c-0.413-0.238-0.863-0.352-1.308-0.351c-0.906,0-1.786,0.47-2.272,1.311
		l-2.62,4.539c-0.724,1.253-0.294,2.856,0.959,3.58c0.413,0.238,0.863,0.351,1.308,0.351c0.906,0,1.786-0.47,2.272-1.311l2.62-4.539
		C669.748,425.841,669.318,424.238,668.065,423.515z"/>
	<path style="fill:#BBBBBB;" d="M619.237,497.093c0-1.447-1.173-2.62-2.62-2.62h-5.241c-1.447,0-2.62,1.173-2.62,2.62
		c0,1.447,1.173,2.62,2.62,2.62h5.241C618.063,499.713,619.237,498.54,619.237,497.093z"/>
	<path style="fill:#BBBBBB;" d="M636.62,477.979c-0.413-0.238-0.863-0.352-1.308-0.351c-0.906,0-1.786,0.47-2.272,1.311l-2.62,4.539
		c-0.724,1.253-0.294,2.856,0.959,3.58c0.413,0.238,0.863,0.352,1.308,0.352c0.906,0,1.786-0.47,2.272-1.311l2.62-4.539
		C638.303,480.305,637.874,478.703,636.62,477.979z"/>
	<path style="fill:#BBBBBB;" d="M642.82,472.481l2.62-4.539c0.724-1.253,0.294-2.856-0.959-3.58
		c-0.413-0.238-0.863-0.352-1.308-0.352c-0.906,0-1.786,0.47-2.272,1.311l-2.62,4.539c-0.211,0.366-0.313,0.762-0.336,1.157
		c-1.169-0.494-2.358-0.939-3.579-1.267c-1.395-0.376-2.835,0.452-3.212,1.849c-0.376,1.398,0.451,2.835,1.849,3.213
		c1.506,0.406,2.978,0.971,4.374,1.683c0.381,0.194,0.787,0.285,1.187,0.285c0.954,0,1.874-0.522,2.337-1.432
		c0.267-0.524,0.332-1.094,0.239-1.633C641.823,473.557,642.442,473.136,642.82,472.481z"/>
	<path style="fill:#BBBBBB;" d="M628.759,491.595c-0.413-0.238-0.863-0.352-1.308-0.352c-0.906,0-1.786,0.47-2.272,1.311
		l-2.62,4.539c-0.485,0.84-0.452,1.836,0,2.62h4.539l2.62-4.539C630.442,493.921,630.012,492.319,628.759,491.595z"/>
	<path style="fill:#BBBBBB;" d="M585.171,494.472h-5.241c-1.447,0-2.62,1.173-2.62,2.62c0,1.447,1.173,2.62,2.62,2.62h5.241
		c1.447,0,2.62-1.173,2.62-2.62C587.792,495.646,586.619,494.472,585.171,494.472z"/>
	<path style="fill:#BBBBBB;" d="M558.967,96.474h5.241c1.447,0,2.62-1.173,2.62-2.62c0-1.447-1.173-2.62-2.62-2.62h-5.241
		c-1.447,0-2.62,1.173-2.62,2.62C556.347,95.3,557.52,96.474,558.967,96.474z"/>
	<path style="fill:#BBBBBB;" d="M569.449,494.472h-5.241c-1.447,0-2.62,1.173-2.62,2.62c0,1.447,1.173,2.62,2.62,2.62h5.241
		c1.447,0,2.62-1.173,2.62-2.62C572.069,495.646,570.896,494.472,569.449,494.472z"/>
	<path style="fill:#BBBBBB;" d="M574.69,96.474h5.241c1.447,0,2.62-1.173,2.62-2.62c0-1.447-1.173-2.62-2.62-2.62h-5.241
		c-1.447,0-2.62,1.173-2.62,2.62C572.069,95.3,573.243,96.474,574.69,96.474z"/>
	<path style="fill:#BBBBBB;" d="M553.727,494.472h-5.241c-1.447,0-2.62,1.173-2.62,2.62c0,1.447,1.173,2.62,2.62,2.62h5.241
		c1.447,0,2.62-1.173,2.62-2.62C556.347,495.646,555.174,494.472,553.727,494.472z"/>
	<path style="fill:#BBBBBB;" d="M723.094,328.203c-0.413-0.238-0.863-0.352-1.308-0.352c-0.906,0-1.786,0.47-2.272,1.311
		l-2.62,4.539c-0.724,1.253-0.294,2.856,0.959,3.58c0.413,0.238,0.863,0.351,1.308,0.351c0.906,0,1.786-0.47,2.272-1.311l2.62-4.539
		C724.776,330.529,724.347,328.926,723.094,328.203z"/>
	<path style="fill:#BBBBBB;" d="M730.955,314.587c-0.413-0.238-0.863-0.352-1.308-0.352c-0.906,0-1.786,0.47-2.272,1.311
		l-2.62,4.539c-0.724,1.253-0.294,2.856,0.959,3.58c0.413,0.238,0.863,0.351,1.308,0.351c0.906,0,1.786-0.47,2.272-1.311l2.62-4.539
		C732.638,316.913,732.208,315.31,730.955,314.587z"/>
	<path style="fill:#BBBBBB;" d="M675.926,409.899c-0.413-0.238-0.863-0.352-1.308-0.352c-0.906,0-1.786,0.47-2.272,1.311
		l-2.62,4.539c-0.724,1.253-0.294,2.856,0.959,3.58c0.413,0.238,0.863,0.351,1.308,0.351c0.906,0,1.786-0.47,2.272-1.311l2.62-4.539
		C677.609,412.225,677.18,410.622,675.926,409.899z"/>
	<path style="fill:#BBBBBB;" d="M742.389,290.922c-0.487-0.833-1.363-1.298-2.265-1.298c-0.445,0-0.895,0.113-1.308,0.352
		c-1.253,0.724-1.683,2.326-0.959,3.58l2.62,4.539c0.485,0.84,1.364,1.31,2.269,1.311l2.27-3.931L742.389,290.922z"/>
	<path style="fill:#BBBBBB;" d="M715.232,341.819c-0.413-0.238-0.863-0.352-1.308-0.352c-0.906,0-1.786,0.47-2.272,1.311
		l-2.62,4.539c-0.724,1.253-0.294,2.856,0.959,3.58c0.413,0.238,0.863,0.351,1.308,0.351c0.906,0,1.786-0.47,2.272-1.311l2.62-4.539
		C716.915,344.145,716.486,342.542,715.232,341.819z"/>
	<path style="fill:#BBBBBB;" d="M738.816,300.971c-0.413-0.238-0.863-0.352-1.308-0.352c-0.906,0-1.786,0.47-2.272,1.311
		l-2.62,4.539c-0.724,1.253-0.294,2.856,0.959,3.58c0.413,0.238,0.863,0.351,1.308,0.351c0.906,0,1.786-0.47,2.272-1.311l2.62-4.539
		C740.499,303.297,740.069,301.694,738.816,300.971z"/>
	<path style="fill:#BBBBBB;" d="M683.788,396.283c-0.413-0.238-0.863-0.352-1.308-0.352c-0.906,0-1.786,0.47-2.272,1.311
		l-2.62,4.539c-0.724,1.253-0.294,2.856,0.959,3.58c0.413,0.238,0.863,0.351,1.308,0.351c0.906,0,1.786-0.47,2.272-1.311l2.62-4.539
		C685.47,398.609,685.041,397.006,683.788,396.283z"/>
	<path style="fill:#BBBBBB;" d="M707.371,355.435c-0.413-0.238-0.863-0.352-1.308-0.352c-0.906,0-1.786,0.47-2.272,1.311
		l-2.62,4.539c-0.724,1.253-0.294,2.856,0.959,3.58c0.413,0.238,0.863,0.351,1.308,0.351c0.906,0,1.786-0.47,2.272-1.311l2.62-4.539
		C709.054,357.761,708.625,356.158,707.371,355.435z"/>
	<path style="fill:#BBBBBB;" d="M691.649,382.667c-0.413-0.238-0.863-0.352-1.308-0.352c-0.906,0-1.786,0.47-2.272,1.311
		l-2.62,4.539c-0.724,1.253-0.294,2.856,0.959,3.58c0.413,0.238,0.863,0.351,1.308,0.351c0.906,0,1.786-0.47,2.272-1.311l2.62-4.539
		C693.332,384.993,692.902,383.39,691.649,382.667z"/>
	<path style="fill:#BBBBBB;" d="M699.51,369.051c-0.413-0.238-0.863-0.352-1.308-0.352c-0.906,0-1.786,0.47-2.272,1.311l-2.62,4.539
		c-0.724,1.253-0.294,2.856,0.959,3.58c0.413,0.238,0.863,0.351,1.308,0.351c0.906,0,1.786-0.47,2.272-1.311l2.62-4.539
		C701.193,371.377,700.763,369.774,699.51,369.051z"/>
	<path style="fill:#BBBBBB;" d="M443.67,494.472h-5.241c-1.447,0-2.62,1.173-2.62,2.62c0,1.447,1.173,2.62,2.62,2.62h5.241
		c1.447,0,2.62-1.173,2.62-2.62C446.29,495.646,445.117,494.472,443.67,494.472z"/>
	<path style="fill:#BBBBBB;" d="M475.115,494.472h-5.241c-1.447,0-2.62,1.173-2.62,2.62c0,1.447,1.173,2.62,2.62,2.62h5.241
		c1.447,0,2.62-1.173,2.62-2.62C477.735,495.646,476.562,494.472,475.115,494.472z"/>
	<path style="fill:#BBBBBB;" d="M464.633,96.474h5.241c1.447,0,2.62-1.173,2.62-2.62c0-1.447-1.173-2.62-2.62-2.62h-5.241
		c-1.447,0-2.62,1.173-2.62,2.62C462.012,95.3,463.186,96.474,464.633,96.474z"/>
	<path style="fill:#BBBBBB;" d="M480.355,96.474h5.241c1.447,0,2.62-1.173,2.62-2.62c0-1.447-1.173-2.62-2.62-2.62h-5.241
		c-1.447,0-2.62,1.173-2.62,2.62C477.735,95.3,478.908,96.474,480.355,96.474z"/>
	<path style="fill:#BBBBBB;" d="M459.392,494.472h-5.241c-1.447,0-2.62,1.173-2.62,2.62c0,1.447,1.173,2.62,2.62,2.62h5.241
		c1.447,0,2.62-1.173,2.62-2.62C462.013,495.646,460.839,494.472,459.392,494.472z"/>
	<path style="fill:#BBBBBB;" d="M490.837,494.472h-5.241c-1.447,0-2.62,1.173-2.62,2.62c0,1.447,1.173,2.62,2.62,2.62h5.241
		c1.447,0,2.62-1.173,2.62-2.62C493.457,495.646,492.284,494.472,490.837,494.472z"/>
	<path style="fill:#BBBBBB;" d="M396.502,494.472h-5.241c-0.97,0-1.816,0.527-2.27,1.31l2.27,3.931c0,0,0,0,0,0h5.241
		c1.447,0,2.62-1.173,2.62-2.62C399.123,495.646,397.95,494.472,396.502,494.472z"/>
	<path style="fill:#BBBBBB;" d="M412.225,494.472h-5.241c-1.447,0-2.62,1.173-2.62,2.62c0,1.447,1.173,2.62,2.62,2.62h5.241
		c1.447,0,2.62-1.173,2.62-2.62C414.845,495.646,413.672,494.472,412.225,494.472z"/>
	<path style="fill:#BBBBBB;" d="M543.245,96.474h5.241c1.447,0,2.62-1.173,2.62-2.62c0-1.447-1.173-2.62-2.62-2.62h-5.241
		c-1.447,0-2.62,1.173-2.62,2.62C540.625,95.3,541.798,96.474,543.245,96.474z"/>
	<path style="fill:#BBBBBB;" d="M427.947,494.472h-5.241c-1.447,0-2.62,1.173-2.62,2.62c0,1.447,1.173,2.62,2.62,2.62h5.241
		c1.447,0,2.62-1.173,2.62-2.62C430.568,495.646,429.394,494.472,427.947,494.472z"/>
	<path style="fill:#BBBBBB;" d="M433.188,96.474h5.241c1.447,0,2.62-1.173,2.62-2.62c0-1.447-1.173-2.62-2.62-2.62h-5.241
		c-1.447,0-2.62,1.173-2.62,2.62C430.568,95.3,431.741,96.474,433.188,96.474z"/>
	<path style="fill:#BBBBBB;" d="M496.078,96.474h5.241c1.447,0,2.62-1.173,2.62-2.62c0-1.447-1.173-2.62-2.62-2.62h-5.241
		c-1.447,0-2.62,1.173-2.62,2.62C493.457,95.3,494.63,96.474,496.078,96.474z"/>
	<path style="fill:#BBBBBB;" d="M448.91,96.474h5.241c1.447,0,2.62-1.173,2.62-2.62c0-1.447-1.173-2.62-2.62-2.62h-5.241
		c-1.447,0-2.62,1.173-2.62,2.62C446.29,95.3,447.463,96.474,448.91,96.474z"/>
	<path style="fill:#BBBBBB;" d="M506.559,494.472h-5.241c-1.447,0-2.62,1.173-2.62,2.62c0,1.447,1.173,2.62,2.62,2.62h5.241
		c1.447,0,2.62-1.173,2.62-2.62C509.18,495.646,508.007,494.472,506.559,494.472z"/>
	<path style="fill:#BBBBBB;" d="M538.004,494.472h-5.241c-1.447,0-2.62,1.173-2.62,2.62c0,1.447,1.173,2.62,2.62,2.62h5.241
		c1.447,0,2.62-1.173,2.62-2.62C540.625,495.646,539.451,494.472,538.004,494.472z"/>
	<path style="fill:#BBBBBB;" d="M527.523,96.474h5.241c1.447,0,2.62-1.173,2.62-2.62c0-1.447-1.173-2.62-2.62-2.62h-5.241
		c-1.447,0-2.62,1.173-2.62,2.62C524.902,95.3,526.075,96.474,527.523,96.474z"/>
	<path style="fill:#BBBBBB;" d="M522.282,494.472h-5.241c-1.447,0-2.62,1.173-2.62,2.62c0,1.447,1.173,2.62,2.62,2.62h5.241
		c1.447,0,2.62-1.173,2.62-2.62C524.902,495.646,523.729,494.472,522.282,494.472z"/>
	<path style="fill:#BBBBBB;" d="M511.8,96.474h5.241c1.447,0,2.62-1.173,2.62-2.62c0-1.447-1.173-2.62-2.62-2.62H511.8
		c-1.447,0-2.62,1.173-2.62,2.62C509.18,95.3,510.353,96.474,511.8,96.474z"/>
	<path style="fill:#BBBBBB;" d="M374.861,111.334c1.148-0.881,1.365-2.526,0.484-3.674c-0.953-1.242-1.779-2.586-2.453-3.993
		c-0.626-1.304-2.19-1.855-3.496-1.231c-1.305,0.626-1.856,2.19-1.231,3.496c0.831,1.734,1.848,3.389,3.021,4.918
		c0.516,0.673,1.294,1.026,2.081,1.026C373.824,111.875,374.385,111.699,374.861,111.334z"/>
	<path style="fill:#BBBBBB;" d="M370.871,82.001c0.448,0.301,0.956,0.445,1.458,0.445c0.844,0,1.673-0.407,2.178-1.16
		c0.871-1.298,1.881-2.51,3.002-3.604c1.036-1.011,1.056-2.67,0.045-3.705c-1.01-1.034-2.668-1.056-3.705-0.045
		c-1.379,1.345-2.621,2.837-3.693,4.433C369.349,79.566,369.67,81.194,370.871,82.001z"/>
	<path style="fill:#BBBBBB;" d="M368.07,97.311c0.028,0,0.055-0.001,0.083-0.001c1.446-0.045,2.583-1.255,2.537-2.701
		c-0.008-0.237-0.012-0.475-0.011-0.72c0-1.33,0.116-2.663,0.345-3.96c0.251-1.425-0.701-2.784-2.126-3.036
		c-1.425-0.248-2.784,0.701-3.036,2.126c-0.281,1.597-0.424,3.236-0.424,4.863c-0.001,0.297,0.004,0.594,0.013,0.89
		C365.496,96.191,366.66,97.311,368.07,97.311z"/>
	<path style="fill:#BBBBBB;" d="M416.01,91.675c-0.702,0.47-1.164,1.27-1.164,2.178c0,0.844,0.406,1.586,1.025,2.066
		c-0.079,0.887-0.195,1.77-0.376,2.636c-0.296,1.417,0.612,2.805,2.029,3.101c0.18,0.038,0.361,0.056,0.539,0.056
		c1.214,0,2.304-0.849,2.562-2.084c0.217-1.038,0.369-2.093,0.467-3.155h1.616c1.447,0,2.62-1.173,2.62-2.62
		c0-1.447-1.173-2.62-2.62-2.62h-1.77c-0.428-0.973-1.419-1.626-2.555-1.561C417.206,89.746,416.272,90.588,416.01,91.675z"/>
	<path style="fill:#BBBBBB;" d="M396.336,121.6c0.103,0,0.207-0.006,0.312-0.019c1.915-0.227,3.81-0.655,5.633-1.272
		c1.371-0.464,2.105-1.952,1.642-3.323c-0.464-1.37-1.949-2.104-3.323-1.642c-1.478,0.501-3.016,0.848-4.57,1.033
		c-1.437,0.17-2.464,1.473-2.293,2.911C393.895,120.62,395.026,121.6,396.336,121.6z"/>
	<path style="fill:#BBBBBB;" d="M399.227,72.017c1.508,0.406,2.979,0.972,4.373,1.682c0.381,0.194,0.788,0.287,1.188,0.287
		c0.954,0,1.874-0.523,2.336-1.431c0.658-1.289,0.145-2.867-1.145-3.524c-1.718-0.876-3.532-1.574-5.391-2.073
		c-1.396-0.376-2.836,0.452-3.211,1.85C397.002,70.204,397.83,71.641,399.227,72.017z"/>
	<path style="fill:#BBBBBB;" d="M413.441,83.469c0.466,0.899,1.381,1.414,2.328,1.414c0.407,0,0.82-0.095,1.205-0.295
		c1.285-0.667,1.786-2.249,1.12-3.533c-0.885-1.706-1.954-3.328-3.175-4.82c-0.918-1.121-2.569-1.285-3.688-0.368
		c-1.12,0.917-1.285,2.568-0.368,3.688C411.855,80.768,412.723,82.084,413.441,83.469z"/>
	<path style="fill:#BBBBBB;" d="M412.163,114.456c1.42-1.301,2.709-2.753,3.831-4.316c0.844-1.176,0.575-2.813-0.6-3.657
		c-1.176-0.843-2.812-0.574-3.657,0.6c-0.912,1.271-1.96,2.451-3.114,3.508c-1.067,0.978-1.139,2.635-0.162,3.702
		c0.517,0.564,1.223,0.85,1.933,0.85C411.026,115.145,411.66,114.917,412.163,114.456z"/>
	<path style="fill:#BBBBBB;" d="M384.46,72.842c0.305,0,0.616-0.054,0.919-0.167c1.461-0.548,2.987-0.944,4.535-1.178
		c1.431-0.217,2.416-1.553,2.199-2.983c-0.217-1.432-1.563-2.414-2.983-2.199c-1.907,0.289-3.787,0.777-5.589,1.452
		c-1.355,0.508-2.042,2.018-1.535,3.373C382.4,72.193,383.398,72.842,384.46,72.842z"/>
	<path style="fill:#BBBBBB;" d="M601.931,500.103c1.446-0.045,2.583-1.254,2.537-2.701c-0.008-0.239-0.011-0.479-0.011-0.72
		c0-1.331,0.116-2.661,0.345-3.957c0.251-1.425-0.7-2.784-2.125-3.036c-1.423-0.247-2.785,0.7-3.036,2.125
		c-0.155,0.876-0.258,1.765-0.328,2.659h-3.659c-1.447,0-2.62,1.173-2.62,2.62c0,1.447,1.173,2.62,2.62,2.62h4.83
		c0.399,0.245,0.865,0.391,1.365,0.391C601.876,500.105,601.903,500.105,601.931,500.103z"/>
	<path style="fill:#BBBBBB;" d="M622.906,469.108c-1.904,0.288-3.785,0.777-5.589,1.452c-1.355,0.508-2.042,2.018-1.535,3.374
		c0.395,1.052,1.393,1.702,2.455,1.702c0.305,0,0.616-0.055,0.919-0.168c1.464-0.549,2.989-0.946,4.534-1.178
		c1.431-0.216,2.416-1.552,2.199-2.983C625.672,469.877,624.34,468.89,622.906,469.108z"/>
	<path style="fill:#BBBBBB;" d="M607.626,476.724c-1.377,1.343-2.62,2.835-3.693,4.435c-0.807,1.201-0.486,2.829,0.715,3.635
		c0.448,0.302,0.956,0.445,1.458,0.445c0.844,0,1.672-0.407,2.178-1.16c0.872-1.299,1.882-2.512,3.001-3.603
		c1.036-1.011,1.057-2.669,0.046-3.705C610.32,475.735,608.661,475.715,607.626,476.724z"/>
	<path style="fill:#BBBBBB;" d="M652.158,492.466c-1.444,0.091-2.542,1.336-2.451,2.779c0.03,0.476,0.045,0.954,0.045,1.437
		c0,1.571-0.162,3.141-0.48,4.666c-0.296,1.416,0.612,2.805,2.028,3.102c0.181,0.037,0.361,0.055,0.539,0.055
		c1.214,0,2.304-0.848,2.562-2.084c0.393-1.876,0.592-3.806,0.592-5.739c0-0.592-0.019-1.181-0.055-1.764
		C654.848,493.473,653.629,492.379,652.158,492.466z"/>
	<path style="fill:#BBBBBB;" d="M634.378,518.138c-1.475,0.5-3.013,0.848-4.572,1.035c-1.437,0.171-2.462,1.477-2.29,2.913
		c0.159,1.331,1.29,2.308,2.599,2.308c0.104,0,0.209-0.006,0.315-0.019c1.919-0.229,3.812-0.658,5.63-1.273
		c1.371-0.464,2.105-1.953,1.642-3.323C637.236,518.408,635.752,517.672,634.378,518.138z"/>
	<path style="fill:#BBBBBB;" d="M620.515,518.358c-1.494-0.454-2.947-1.066-4.317-1.821c-1.268-0.7-2.86-0.235-3.56,1.031
		c-0.698,1.268-0.236,2.862,1.031,3.56c1.689,0.93,3.479,1.685,5.321,2.245c0.254,0.077,0.511,0.114,0.763,0.114
		c1.124,0,2.163-0.729,2.507-1.859C622.681,520.243,621.9,518.779,620.515,518.358z"/>
	<path style="fill:#BBBBBB;" d="M645.009,478.662c-1.12,0.916-1.285,2.567-0.369,3.688c0.993,1.213,1.86,2.531,2.579,3.915
		c0.466,0.899,1.381,1.414,2.328,1.414c0.407,0,0.82-0.095,1.205-0.294c1.284-0.667,1.786-2.248,1.119-3.533
		c-0.885-1.706-1.953-3.328-3.175-4.821C647.779,477.908,646.127,477.747,645.009,478.662z"/>
	<path style="fill:#BBBBBB;" d="M649.171,509.276c-1.175-0.839-2.812-0.576-3.657,0.601c-0.914,1.272-1.961,2.452-3.113,3.506
		c-1.068,0.978-1.141,2.635-0.164,3.703c0.517,0.564,1.224,0.851,1.934,0.851c0.632,0,1.265-0.226,1.768-0.687
		c1.419-1.299,2.709-2.751,3.832-4.317C650.616,511.757,650.347,510.12,649.171,509.276z"/>
	<path style="fill:#BBBBBB;" d="M606.67,506.461c-0.624-1.304-2.19-1.858-3.495-1.231c-1.306,0.626-1.857,2.19-1.232,3.496
		c0.83,1.734,1.847,3.388,3.021,4.918c0.516,0.672,1.294,1.025,2.081,1.025c0.557,0,1.118-0.177,1.594-0.541
		c1.148-0.882,1.365-2.527,0.483-3.675C608.169,509.211,607.344,507.869,606.67,506.461z"/>
	<path style="fill:#BBBBBB;" d="M726.913,219.777c0.721,1.248,2.331,1.68,3.58,0.959s1.68-2.331,0.959-3.58l-64.816-112.264
		l6.814-3.803l-17.532-10.464l-0.296,20.415l6.437-3.593L726.913,219.777z"/>
	<path style="fill:#BBBBBB;" d="M295.368,371.006c-0.721-1.248-2.331-1.68-3.58-0.959c-1.248,0.721-1.68,2.331-0.959,3.58
		l64.816,112.264l-6.814,3.803l17.532,10.464l0.296-20.415l-6.437,3.593L295.368,371.006z"/>
	<path style="fill:#BBBBBB;" d="M608.058,124.211H410.301l-98.878,171.262l98.878,171.262h197.756l98.878-171.262L608.058,124.211z
		 M626.099,425.006l-63.2,36.489H454.81l-62.224-35.925l-55.27-95.73l0-68.732l55.691-96.46l60.959-35.195h111.837l58.843,33.973
		l56.397,97.682v68.732L626.099,425.006z"/>
</g>
<linearGradient id="SVGID_1_" gradientUnits="userSpaceOnUse" x1="511.5098" y1="527.1915" x2="511.5098" y2="959.558">
	<stop  offset="0" style="stop-color:#BBBBBB"/>
	<stop  offset="1" style="stop-color:#BBBBBB;stop-opacity:0.1"/>
</linearGradient>
<rect x="506.924" y="527.191" style="fill:url(#SVGID_1_);" width="9.171" height="432.367"/>
<g>
	<defs>
		<rect id="SVGID_2_" x="407.17" y="217.984" width="204.019" height="134.689"/>
	</defs>
	<clipPath id="SVGID_3_">
		<use xlink:href="#SVGID_2_"  style="overflow:visible;"/>
	</clipPath>
	<path style="clip-path:url(#SVGID_3_);fill:#FFFFFF;" d="M598.284,261.06c-0.143-0.172-0.258-0.314-0.429-0.458l-7.129-6.929
		c5.927-1.346,12.312-6.356,12.312-11.481c0-5.955-8.217-8.074-15.261-8.074c-7.33,0-8.189,5.067-8.275,8.647l-18.439-17.894
		c-3.751-3.723-10.852-6.672-16.149-6.672h-71.808c-5.297,0-12.397,2.949-16.147,6.672l-18.411,17.866
		c-0.086-3.579-0.944-8.646-8.275-8.646c-7.043,0-15.261,2.118-15.261,8.074c0,5.125,6.385,10.107,12.312,11.481l-7.129,6.929
		c-0.172,0.144-0.287,0.315-0.429,0.457c-7.644,6.586-12.627,18.754-12.627,27.602v26.283c0,6.386,2.491,12.169,6.528,16.492v10.193
		c0,5.955,4.953,10.823,11.052,10.823h13.37c6.099,0,11.052-4.839,11.052-10.823v-2.605h119.795v2.605
		c0,5.955,4.953,10.823,11.052,10.823h13.372c6.099,0,11.052-4.867,11.052-10.823v-10.193c4.037-4.323,6.527-10.106,6.527-16.492
		v-26.283C610.912,279.814,605.929,267.646,598.284,261.06L598.284,261.06z M463.715,232.829c2.605-2.176,7.129-3.808,9.391-3.808
		h71.808c2.262,0,6.786,1.661,9.391,3.808l24.166,23.564H439.55L463.715,232.829z M426.638,299.255
		c-6.214,0-11.253-5.239-11.253-11.71c0-6.472,5.039-11.711,11.253-11.711c6.213,0,26.512,11.996,26.512,18.467
		c0,6.47-20.299,4.953-26.513,4.953H426.638z M542.939,313.6h-67.857c-7.073,0-12.799-8.762-12.799-19.584h93.454
		C555.738,304.81,550.011,313.6,542.939,313.6L542.939,313.6z M591.384,299.255c-6.213,0-26.514,1.489-26.514-4.981
		c0-6.471,20.301-18.468,26.514-18.468c6.213,0,11.252,5.24,11.252,11.711C602.636,294.016,597.597,299.255,591.384,299.255
		L591.384,299.255z M591.384,299.255"/>
</g>
</svg>
