<?xml version="1.0" encoding="iso-8859-1"?>
<!-- Generator: Adobe Illustrator 22.0.0, SVG Export Plug-In . SVG Version: 6.00 Build 0)  -->
<svg version="1.1" id="&#x56FE;&#x5C42;_1" xmlns="http://www.w3.org/2000/svg" xmlns:xlink="http://www.w3.org/1999/xlink" x="0px"
	 y="0px" viewBox="0 0 1024 1024" style="enable-background:new 0 0 1024 1024;" xml:space="preserve">
<rect x="65.725" y="66.868" style="fill:none;" width="893.608" height="856.089"/>
<g style="opacity:0.4;">
	<polygon style="fill:#00AEFF;" points="608.566,129.335 416.726,129.335 320.806,295.473 416.726,461.611 608.566,461.611 
		704.486,295.473 	"/>
</g>
<g>
	<path style="fill:#00AEFF;" d="M322.316,221.895c0.413,0.238,0.863,0.352,1.308,0.352c0.906,0,1.786-0.47,2.272-1.311l2.62-4.539
		c0.724-1.253,0.294-2.856-0.959-3.58c-0.413-0.238-0.863-0.351-1.308-0.351c-0.905,0-1.784,0.469-2.27,1.308l-2.49,4.313
		c0,0,0,0,0,0l-0.046,0.079c0,0,0,0,0,0.001l-0.005,0.008c-0.001,0.001-0.001,0.003-0.002,0.004l0,0
		c-0.001,0.001-0.001,0.002-0.002,0.003l-0.002,0.003c-0.001,0.002-0.003,0.005-0.004,0.007l-0.009,0.016
		c-0.001,0.001-0.001,0.002-0.002,0.003l0,0.001c-0.001,0.001-0.002,0.003-0.002,0.004l0,0c-0.001,0.001-0.001,0.002-0.002,0.003
		l-0.001,0.002c-0.001,0.002-0.002,0.004-0.004,0.006l-0.001,0.001c-0.001,0.001-0.001,0.002-0.002,0.003l-0.001,0.001
		c0,0.001-0.001,0.001-0.001,0.002l-0.002,0.003c-0.001,0.002-0.002,0.004-0.003,0.005l-0.001,0.001
		c-0.001,0.001-0.001,0.002-0.002,0.003l-0.011,0.02c-0.002,0.003-0.003,0.005-0.004,0.007l-0.001,0.001
		c-0.002,0.003-0.004,0.006-0.005,0.009l-0.001,0.002c-0.001,0.001-0.001,0.002-0.002,0.003l0,0
		c-0.001,0.001-0.001,0.002-0.002,0.003l-0.001,0.001c-0.001,0.002-0.002,0.004-0.003,0.005l0,0.001c0,0,0,0,0,0l-0.001,0.001
		c0,0.001-0.001,0.001-0.001,0.002l0,0.001c0,0,0,0.001-0.001,0.001l0,0.001c0,0,0,0,0,0l-0.003,0.005c0,0,0,0,0,0l-0.001,0.001
		c0,0,0,0,0,0l-0.001,0.002C320.633,219.569,321.063,221.172,322.316,221.895z"/>
	<path style="fill:#00AEFF;" d="M318.383,359.622c-0.445,0-0.895,0.113-1.308,0.352c-1.25,0.722-1.681,2.318-0.964,3.57l2.046,3.544
		c0.006,0.01,0.011,0.019,0.017,0.029l0.001,0.002c0.001,0.002,0.003,0.005,0.004,0.008l0.002,0.004
		c0.324,0.562,0.555,0.961,0.555,0.961c0.485,0.841,1.366,1.311,2.272,1.311c0.444,0,0.895-0.113,1.308-0.352
		c1.253-0.724,1.683-2.326,0.959-3.58l-2.62-4.539C320.169,360.092,319.289,359.622,318.383,359.622z"/>
	<path style="fill:#00AEFF;" d="M334.105,386.854c-0.445,0-0.895,0.113-1.308,0.352c-1.25,0.722-1.681,2.318-0.965,3.57l2.268,3.929
		c0.001,0.002,0.002,0.004,0.004,0.006l0.001,0.002c0.003,0.005,0.006,0.011,0.009,0.016l0.002,0.003
		c0.007,0.011,0.013,0.023,0.02,0.034l0.001,0.002c0.196,0.339,0.321,0.556,0.321,0.556c0.485,0.841,1.366,1.311,2.272,1.311
		c0.444,0,0.895-0.113,1.308-0.351c1.253-0.724,1.683-2.326,0.959-3.58l-2.62-4.539
		C335.892,387.324,335.011,386.854,334.105,386.854z"/>
	<path style="fill:#00AEFF;" d="M330.177,208.279c0.413,0.238,0.863,0.351,1.308,0.351c0.906,0,1.786-0.47,2.272-1.311l2.62-4.539
		c0.724-1.253,0.294-2.856-0.959-3.58c-0.413-0.238-0.863-0.351-1.308-0.351c-0.906,0-1.786,0.47-2.272,1.311l-2.62,4.539
		C328.495,205.953,328.924,207.555,330.177,208.279z"/>
	<path style="fill:#00AEFF;" d="M338.038,194.663c0.413,0.238,0.863,0.352,1.308,0.352c0.906,0,1.786-0.47,2.272-1.311l2.62-4.539
		c0.724-1.253,0.294-2.856-0.959-3.58c-0.413-0.238-0.863-0.351-1.308-0.351c-0.904,0-1.784,0.469-2.27,1.307l-2.624,4.544
		C336.356,192.338,336.786,193.94,338.038,194.663z"/>
	<path style="fill:#00AEFF;" d="M326.244,373.238c-0.444,0-0.895,0.113-1.308,0.352c-1.252,0.723-1.682,2.323-0.961,3.576
		l2.626,4.548c0.486,0.837,1.365,1.305,2.269,1.305c0.445,0,0.895-0.113,1.308-0.351c1.253-0.724,1.683-2.326,0.959-3.58
		l-2.62-4.539C328.031,373.708,327.15,373.238,326.244,373.238z"/>
	<path style="fill:#00AEFF;" d="M302.661,332.39c-0.445,0-0.895,0.113-1.308,0.351c-1.25,0.722-1.681,2.319-0.964,3.571l2.631,4.558
		c0.487,0.834,1.364,1.3,2.266,1.3c0.444,0,0.895-0.113,1.308-0.352c1.253-0.724,1.683-2.326,0.959-3.58l-2.62-4.539
		C304.447,332.86,303.566,332.39,302.661,332.39z"/>
	<path style="fill:#00AEFF;" d="M298.732,262.743c0.413,0.238,0.863,0.352,1.308,0.352c0.906,0,1.786-0.47,2.272-1.311l2.62-4.539
		c0.724-1.253,0.294-2.856-0.959-3.58c-0.413-0.238-0.863-0.352-1.308-0.351c-0.906,0-1.786,0.47-2.272,1.311l-2.62,4.539
		C297.05,260.417,297.479,262.02,298.732,262.743z"/>
	<path style="fill:#00AEFF;" d="M314.455,235.511c0.413,0.238,0.863,0.352,1.308,0.352c0.906,0,1.786-0.47,2.272-1.311l2.62-4.539
		c0.724-1.253,0.294-2.856-0.959-3.58c-0.413-0.238-0.863-0.352-1.308-0.351c-0.906,0-1.786,0.47-2.272,1.311l-2.62,4.539
		C312.772,233.185,313.202,234.788,314.455,235.511z"/>
	<path style="fill:#00AEFF;" d="M297.425,328.554c0.444,0,0.895-0.113,1.308-0.351c1.253-0.724,1.683-2.326,0.959-3.58l-2.62-4.539
		c-0.485-0.841-1.366-1.311-2.272-1.311c-0.444,0-0.895,0.113-1.308,0.352c-1.253,0.723-1.682,2.325-0.96,3.578l2.623,4.544
		C295.641,328.086,296.52,328.554,297.425,328.554z"/>
	<path style="fill:#00AEFF;" d="M310.522,346.006c-0.444,0-0.895,0.113-1.308,0.352c-1.252,0.723-1.682,2.324-0.961,3.577
		l2.624,4.546c0.486,0.838,1.365,1.306,2.269,1.306c0.444,0,0.895-0.113,1.308-0.351c1.253-0.724,1.683-2.326,0.959-3.58
		l-2.62-4.539C312.308,346.476,311.427,346.006,310.522,346.006z"/>
	<path style="fill:#00AEFF;" d="M306.594,249.127c0.413,0.238,0.863,0.352,1.308,0.352c0.906,0,1.786-0.47,2.272-1.311l2.62-4.539
		c0.724-1.253,0.294-2.856-0.959-3.58c-0.413-0.238-0.863-0.351-1.308-0.351c-0.905,0-1.785,0.469-2.271,1.309l-1.475,2.554
		c-0.001,0.001-0.001,0.002-0.002,0.003l-0.057,0.098c-0.002,0.003-0.003,0.006-0.005,0.008l-0.036,0.062
		c-0.001,0.001-0.001,0.002-0.002,0.003l-0.019,0.033c-0.001,0.002-0.003,0.005-0.004,0.007l-0.005,0.008
		c-0.003,0.006-0.007,0.012-0.01,0.018l-0.005,0.009c-0.009,0.016-0.018,0.031-0.027,0.046l-0.002,0.003
		c-0.009,0.015-0.018,0.031-0.026,0.046l-0.005,0.008c-0.018,0.032-0.037,0.064-0.055,0.095l-0.003,0.005
		c-0.009,0.015-0.017,0.03-0.026,0.045l-0.002,0.004c-0.009,0.015-0.018,0.03-0.026,0.046l-0.004,0.007
		c-0.46,0.796-0.827,1.432-0.827,1.432C304.911,246.801,305.34,248.404,306.594,249.127z"/>
	<path style="fill:#00AEFF;" d="M353.761,167.431c0.413,0.238,0.863,0.352,1.308,0.352c0.906,0,1.786-0.47,2.272-1.311l2.62-4.539
		c0.724-1.253,0.294-2.856-0.959-3.58c-0.413-0.238-0.863-0.351-1.308-0.351c-0.904,0-1.783,0.468-2.269,1.306l-2.625,4.547
		C352.079,165.107,352.509,166.708,353.761,167.431z"/>
	<path style="fill:#00AEFF;" d="M369.483,140.199c0.413,0.238,0.863,0.352,1.308,0.352c0.906,0,1.786-0.47,2.272-1.311l2.62-4.539
		c0.724-1.253,0.294-2.856-0.959-3.579c-0.413-0.238-0.863-0.352-1.308-0.352c-0.904,0-1.782,0.468-2.268,1.305l-2.626,4.549
		C367.802,137.876,368.231,139.476,369.483,140.199z"/>
	<path style="fill:#00AEFF;" d="M375.683,456.245c-0.485-0.841-1.366-1.311-2.272-1.311c-0.445,0-0.895,0.113-1.308,0.352
		c-1.251,0.722-1.681,2.32-0.963,3.572l2.629,4.554c0.486,0.836,1.364,1.302,2.267,1.302c0.445,0,0.895-0.113,1.308-0.351
		c1.253-0.724,1.683-2.326,0.959-3.58L375.683,456.245z"/>
	<path style="fill:#00AEFF;" d="M367.822,442.629c-0.485-0.841-1.366-1.311-2.272-1.311c-0.445,0-0.895,0.113-1.308,0.352
		c-1.25,0.722-1.68,2.317-0.965,3.569l2.627,4.55c0.485,0.84,1.366,1.31,2.271,1.31c0.444,0,0.895-0.113,1.308-0.351
		c1.253-0.724,1.683-2.326,0.959-3.58L367.822,442.629z"/>
	<path style="fill:#00AEFF;" d="M381.278,117.154c-0.906,0-1.786,0.47-2.272,1.311l-2.62,4.539c-0.724,1.253-0.294,2.856,0.959,3.58
		c0.413,0.238,0.863,0.351,1.308,0.351c0.906,0,1.786-0.47,2.272-1.311l2.62-4.539c0.5-0.866,0.439-1.893-0.054-2.688
		c1.652,0.898,3.395,1.636,5.191,2.181c0.254,0.077,0.51,0.114,0.762,0.114c1.124,0,2.164-0.729,2.507-1.86
		c0.42-1.385-0.361-2.848-1.746-3.268c-1.494-0.454-2.946-1.066-4.316-1.821c-1.269-0.697-2.862-0.236-3.56,1.031
		c-0.478,0.868-0.401,1.883,0.094,2.664C382.054,117.258,381.666,117.154,381.278,117.154z"/>
	<path style="fill:#00AEFF;" d="M383.544,469.861c-0.485-0.841-1.366-1.311-2.272-1.311c-0.444,0-0.895,0.113-1.308,0.352
		c-1.253,0.724-1.683,2.326-0.959,3.579c0,0,0.501,0.868,1.065,1.844l0.002,0.004c0.02,0.034,0.039,0.068,0.059,0.103l0.001,0.001
		c0.015,0.026,0.03,0.052,0.045,0.078l0.001,0.001c0.004,0.007,0.008,0.014,0.012,0.021l0.005,0.009
		c0.009,0.016,0.019,0.033,0.028,0.049l0,0.001c0.009,0.016,0.018,0.032,0.027,0.047l0.005,0.009
		c0.004,0.007,0.008,0.014,0.012,0.021l0.004,0.006c0.001,0.002,0.003,0.005,0.004,0.007l0.004,0.008c0,0,0.001,0.001,0.001,0.001
		l0.007,0.013c0,0.001,0.001,0.001,0.001,0.002l0.004,0.008c0.001,0.002,0.002,0.004,0.004,0.006l0.098,0.17
		c0.001,0.001,0.002,0.003,0.002,0.004l0.004,0.008c0.001,0.001,0.001,0.002,0.002,0.003l0.007,0.012
		c0,0.001,0.001,0.002,0.002,0.003l0.005,0.008c0.001,0.001,0.002,0.003,0.002,0.004l0.035,0.061
		c0.002,0.003,0.004,0.007,0.006,0.01l0.001,0.001c0.001,0.002,0.003,0.005,0.004,0.007l0.006,0.011
		c0.003,0.005,0.006,0.01,0.009,0.015l0.007,0.012c0,0,0,0.001,0.001,0.001l1.139,1.972c0.486,0.84,1.366,1.309,2.271,1.309
		c0.444,0,0.895-0.113,1.308-0.352c1.253-0.724,1.683-2.326,0.959-3.58L383.544,469.861z"/>
	<path style="fill:#00AEFF;" d="M294.451,275.4l2.62-4.539c0.724-1.253,0.294-2.856-0.959-3.58
		c-0.413-0.238-0.863-0.351-1.308-0.351c-0.905,0-1.786,0.47-2.271,1.31l-0.496,0.859c0,0,0,0.001-0.001,0.001l-0.024,0.041
		c-0.002,0.004-0.004,0.008-0.007,0.011l-0.02,0.034l0,0l-0.018,0.032c-0.001,0.001-0.001,0.002-0.002,0.003l-0.005,0.008
		c-0.001,0.001-0.002,0.003-0.002,0.004l-0.024,0.042c0,0,0,0,0,0l-0.025,0.043c-0.003,0.005-0.006,0.01-0.009,0.016l-0.005,0.008
		c-0.001,0.002-0.003,0.004-0.004,0.007l-0.001,0.002c-0.002,0.003-0.004,0.006-0.005,0.009l-0.004,0.006
		c-0.001,0.001-0.001,0.002-0.002,0.004l-0.003,0.004c-0.001,0.002-0.002,0.004-0.004,0.007l-0.006,0.01
		c-0.003,0.006-0.007,0.012-0.01,0.018l-0.001,0.001c-0.004,0.007-0.008,0.014-0.012,0.021l-0.002,0.004
		c-0.008,0.014-0.016,0.028-0.024,0.042l-0.005,0.009c-0.017,0.03-0.035,0.06-0.052,0.09l-0.001,0.002
		c-0.009,0.016-0.018,0.031-0.027,0.047l-0.001,0.002c-0.005,0.008-0.009,0.016-0.014,0.024l-0.002,0.003
		c-0.003,0.006-0.007,0.012-0.01,0.018l-0.006,0.011c-0.767,1.329-1.788,3.097-1.788,3.097c-0.724,1.253-0.294,2.856,0.959,3.58
		c0.413,0.238,0.863,0.352,1.308,0.352C293.085,276.711,293.965,276.241,294.451,275.4z"/>
	<path style="fill:#00AEFF;" d="M345.9,181.047c0.413,0.238,0.863,0.352,1.308,0.352c0.906,0,1.786-0.47,2.272-1.311l2.62-4.539
		c0.724-1.253,0.294-2.856-0.959-3.58c-0.413-0.238-0.863-0.352-1.308-0.351c-0.906,0-1.786,0.47-2.272,1.311l-2.62,4.539
		C344.217,178.721,344.646,180.324,345.9,181.047z"/>
	<path style="fill:#00AEFF;" d="M341.967,400.47c-0.444,0-0.895,0.113-1.308,0.352c-1.252,0.723-1.681,2.322-0.962,3.574l2.627,4.55
		c0.486,0.837,1.365,1.304,2.268,1.304c0.445,0,0.895-0.113,1.308-0.351c1.253-0.724,1.683-2.326,0.959-3.58l-2.62-4.539
		C343.753,400.94,342.872,400.47,341.967,400.47z"/>
	<path style="fill:#00AEFF;" d="M357.689,427.702c-0.444,0-0.895,0.113-1.308,0.352c-1.251,0.722-1.681,2.321-0.963,3.573
		l2.628,4.553c0.486,0.836,1.365,1.303,2.267,1.303c0.445,0,0.895-0.113,1.308-0.351c1.253-0.724,1.683-2.326,0.959-3.58
		l-2.62-4.539C359.476,428.172,358.595,427.702,357.689,427.702z"/>
	<path style="fill:#00AEFF;" d="M349.828,414.086c-0.445,0-0.895,0.113-1.308,0.352c-1.25,0.722-1.68,2.318-0.965,3.569l2.467,4.273
		c0.001,0.001,0.001,0.002,0.002,0.003l0.003,0.005c0.002,0.003,0.004,0.006,0.005,0.009l0.009,0.016
		c0.001,0.001,0.001,0.002,0.002,0.003l0.002,0.004c0,0,0,0,0,0.001l0.003,0.005c0.002,0.003,0.003,0.005,0.005,0.008l0.002,0.004
		c0.002,0.003,0.004,0.007,0.006,0.01l0.001,0.003c0,0.001,0.001,0.002,0.001,0.002l0.006,0.01c0,0.001,0.001,0.002,0.001,0.003
		l0.001,0.001c0.069,0.12,0.109,0.189,0.109,0.189c0.485,0.841,1.366,1.311,2.272,1.311c0.444,0,0.895-0.113,1.308-0.351
		c1.253-0.724,1.683-2.326,0.959-3.58l-2.62-4.539C351.614,414.556,350.734,414.086,349.828,414.086z"/>
	<path style="fill:#00AEFF;" d="M394.026,488.015l-2.62-4.539c-0.485-0.841-1.366-1.311-2.272-1.311
		c-0.445,0-0.895,0.113-1.308,0.352c-1.251,0.722-1.681,2.319-0.964,3.572l2.63,4.556c0.487,0.835,1.364,1.301,2.266,1.301
		c0.445,0,0.895-0.113,1.308-0.351C394.32,490.871,394.75,489.269,394.026,488.015z"/>
	<path style="fill:#00AEFF;" d="M361.622,153.815c0.413,0.238,0.863,0.352,1.308,0.352c0.906,0,1.786-0.47,2.272-1.311l2.62-4.539
		c0.724-1.253,0.294-2.856-0.959-3.58c-0.413-0.238-0.863-0.352-1.308-0.351c-0.906,0-1.786,0.47-2.272,1.311l-2.62,4.539
		C359.939,151.489,360.369,153.092,361.622,153.815z"/>
	<path style="fill:#00AEFF;" d="M691.187,204.092c0.444,0,0.895-0.113,1.308-0.352c1.25-0.722,1.681-2.318,0.965-3.57l-2.632-4.559
		c-0.487-0.834-1.364-1.3-2.266-1.3c-0.445,0-0.895,0.113-1.308,0.351c-1.253,0.724-1.683,2.326-0.959,3.58l2.62,4.539
		C689.401,203.622,690.282,204.092,691.187,204.092z"/>
	<path style="fill:#00AEFF;" d="M657.471,148.317c0.485,0.841,1.366,1.311,2.272,1.311c0.445,0,0.895-0.113,1.308-0.352
		c1.25-0.722,1.68-2.317,0.965-3.569l-1.417-2.454c-0.002-0.004-0.004-0.007-0.006-0.011l-0.001-0.002
		c-0.002-0.003-0.004-0.007-0.006-0.01l-0.01-0.018c-0.611-1.059-1.186-2.054-1.186-2.054c-0.485-0.841-1.366-1.311-2.272-1.311
		c-0.445,0-0.895,0.113-1.308,0.351c-1.253,0.724-1.683,2.326-0.959,3.58L657.471,148.317z"/>
	<path style="fill:#00AEFF;" d="M683.326,190.476c0.445,0,0.895-0.113,1.308-0.352c1.249-0.721,1.68-2.315,0.967-3.566L682.969,182
		c-0.486-0.837-1.365-1.304-2.268-1.304c-0.444,0-0.895,0.113-1.308,0.351c-1.253,0.724-1.683,2.326-0.959,3.58l2.62,4.539
		C681.54,190.006,682.42,190.476,683.326,190.476z"/>
	<path style="fill:#00AEFF;" d="M289.21,306.469c-0.485-0.841-1.366-1.311-2.272-1.311c-0.445,0-0.895,0.113-1.308,0.351
		c-1.251,0.722-1.681,2.319-0.964,3.571l2.631,4.557c0.487,0.834,1.364,1.301,2.266,1.301c0.444,0,0.895-0.113,1.308-0.352
		c1.253-0.724,1.683-2.326,0.959-3.58L289.21,306.469z"/>
	<path style="fill:#00AEFF;" d="M667.604,163.244c0.445,0,0.895-0.113,1.308-0.352c1.249-0.721,1.68-2.315,0.967-3.566l-2.633-4.56
		c-0.486-0.836-1.365-1.303-2.268-1.303c-0.444,0-0.895,0.113-1.308,0.351c-1.253,0.724-1.683,2.326-0.959,3.58l2.62,4.539
		C665.817,162.774,666.698,163.244,667.604,163.244z"/>
	<path style="fill:#00AEFF;" d="M699.048,217.708c0.445,0,0.895-0.113,1.308-0.352c1.249-0.721,1.68-2.315,0.966-3.567l-2.631-4.557
		c-0.486-0.837-1.365-1.305-2.269-1.305c-0.444,0-0.895,0.113-1.308,0.351c-1.253,0.724-1.683,2.326-0.959,3.58l2.62,4.539
		C697.262,217.238,698.143,217.708,699.048,217.708z"/>
	<path style="fill:#00AEFF;" d="M706.91,231.324c0.445,0,0.895-0.113,1.308-0.352c1.25-0.722,1.681-2.318,0.964-3.57l-2.632-4.559
		c-0.487-0.834-1.364-1.3-2.266-1.3c-0.445,0-0.895,0.113-1.308,0.351c-1.253,0.724-1.683,2.326-0.959,3.58l2.62,4.539
		C705.123,230.854,706.004,231.324,706.91,231.324z"/>
	<path style="fill:#00AEFF;" d="M733.462,279.939l2.62,4.539c0.485,0.841,1.366,1.311,2.272,1.311c0.445,0,0.895-0.113,1.308-0.352
		c1.25-0.722,1.681-2.319,0.964-3.571l-2.631-4.557c-0.487-0.835-1.364-1.301-2.266-1.301c-0.444,0-0.895,0.113-1.308,0.351
		C733.168,277.083,732.739,278.685,733.462,279.939z"/>
	<path style="fill:#00AEFF;" d="M727.868,262.392c-0.444,0-0.895,0.113-1.308,0.352c-1.253,0.724-1.683,2.326-0.959,3.58l2.62,4.539
		c0.485,0.841,1.366,1.311,2.272,1.311c0.445,0,0.895-0.113,1.308-0.352c1.249-0.721,1.68-2.316,0.966-3.568l-2.629-4.554
		C729.652,262.86,728.772,262.392,727.868,262.392z"/>
	<path style="fill:#00AEFF;" d="M720.007,248.776c-0.444,0-0.895,0.113-1.308,0.351c-1.253,0.724-1.683,2.326-0.959,3.58l2.62,4.539
		c0.485,0.841,1.366,1.311,2.272,1.311c0.444,0,0.895-0.113,1.308-0.352c1.25-0.722,1.681-2.319,0.964-3.571l-2.632-4.558
		C721.786,249.242,720.909,248.775,720.007,248.776z"/>
	<path style="fill:#00AEFF;" d="M714.771,244.94c0.445,0,0.895-0.113,1.308-0.352c1.249-0.721,1.68-2.316,0.966-3.567l-2.63-4.555
		c-0.486-0.838-1.365-1.306-2.269-1.306c-0.445,0-0.895,0.113-1.308,0.351c-1.253,0.724-1.683,2.326-0.959,3.58l2.62,4.539
		C712.985,244.47,713.865,244.94,714.771,244.94z"/>
	<path style="fill:#00AEFF;" d="M675.465,176.86c0.445,0,0.895-0.113,1.308-0.352c1.25-0.722,1.68-2.318,0.965-3.569l-2.633-4.56
		c-0.487-0.834-1.364-1.299-2.265-1.299c-0.445,0-0.895,0.113-1.308,0.351c-1.253,0.724-1.683,2.326-0.959,3.58l2.62,4.539
		C673.679,176.39,674.559,176.86,675.465,176.86z"/>
	<path style="fill:#00AEFF;" d="M392.108,95.771c-0.724,1.253-0.294,2.856,0.959,3.58c0.413,0.238,0.863,0.351,1.308,0.351
		c0.906,0,1.786-0.47,2.272-1.311l2.62-4.539c0.485-0.84,0.452-1.836,0-2.62h-4.539L392.108,95.771z"/>
	<path style="fill:#00AEFF;" d="M405.21,91.233c-1.447,0-2.62,1.173-2.62,2.62c0,1.447,1.173,2.62,2.62,2.62h5.241
		c1.447,0,2.62-1.173,2.62-2.62c0-1.447-1.173-2.62-2.62-2.62H405.21z"/>
	<path style="fill:#00AEFF;" d="M385.206,112.967c0.413,0.238,0.863,0.352,1.308,0.352c0.906,0,1.786-0.47,2.272-1.311l2.62-4.539
		c0.724-1.253,0.294-2.856-0.959-3.579c-0.413-0.238-0.863-0.352-1.308-0.352c-0.903,0-1.782,0.467-2.268,1.304l-2.628,4.551
		C383.524,110.646,383.954,112.244,385.206,112.967z"/>
	<path style="fill:#00AEFF;" d="M281.349,292.853c-0.485-0.84-1.364-1.31-2.269-1.311l-2.27,3.931c0,0,0.041,0.07,0.112,0.194
		l0.002,0.003c0.009,0.015,0.018,0.031,0.027,0.047v0c0.005,0.008,0.01,0.017,0.015,0.026l0,0.001
		c0.005,0.008,0.01,0.017,0.015,0.026l0.001,0.002c0.01,0.018,0.021,0.037,0.033,0.056l0.001,0.002
		c0.005,0.009,0.011,0.019,0.016,0.028l0.001,0.002c0.003,0.005,0.006,0.01,0.008,0.015l0,0c0.001,0.002,0.003,0.005,0.004,0.007
		l0.007,0.012c0.001,0.001,0.001,0.002,0.002,0.003l0.002,0.003c0.001,0.002,0.002,0.004,0.003,0.005l0.002,0.003
		c0.001,0.002,0.003,0.005,0.004,0.007l0,0c0.001,0.002,0.002,0.003,0.003,0.005l0.004,0.006c0.004,0.007,0.008,0.014,0.012,0.022
		l0.001,0.002c0.001,0.002,0.002,0.003,0.003,0.004l0.003,0.006c0.006,0.01,0.012,0.021,0.018,0.032l0,0.001
		c0.005,0.009,0.011,0.019,0.016,0.028l0.011,0.019c0.001,0.001,0.002,0.003,0.002,0.004l0.003,0.005
		c0.002,0.004,0.004,0.008,0.007,0.012l0.007,0.012c0.001,0.001,0.001,0.002,0.002,0.003l0.024,0.041l0,0l0.004,0.006
		c0.003,0.005,0.005,0.009,0.008,0.014l0.01,0.018c0,0,0.001,0.001,0.001,0.001l0.046,0.08l0.005,0.01c0,0,0.001,0.001,0.001,0.001
		l2.174,3.766c0.486,0.839,1.366,1.308,2.27,1.308c0.444,0,0.895-0.113,1.308-0.352c1.253-0.724,1.683-2.326,0.959-3.58
		L281.349,292.853z"/>
	<path style="fill:#00AEFF;" d="M286.59,289.016l2.62-4.539c0.724-1.253,0.294-2.856-0.959-3.58
		c-0.413-0.238-0.863-0.351-1.308-0.351c-0.906,0-1.786,0.47-2.272,1.311l-2.62,4.539c-0.724,1.253-0.294,2.856,0.959,3.579
		c0.413,0.238,0.863,0.352,1.308,0.352C285.223,290.327,286.104,289.857,286.59,289.016z"/>
	<path style="fill:#00AEFF;" d="M649.609,134.701c0.485,0.841,1.366,1.311,2.272,1.311c0.445,0,0.895-0.113,1.308-0.352
		c1.253-0.724,1.683-2.326,0.959-3.579l-2.62-4.539c-0.485-0.841-1.366-1.311-2.272-1.311c-0.444,0-0.895,0.113-1.308,0.351
		c-1.253,0.724-1.683,2.326-0.959,3.58L649.609,134.701z"/>
	<path style="fill:#00AEFF;" d="M641.748,121.085c0.485,0.841,1.366,1.311,2.272,1.311c0.445,0,0.895-0.113,1.308-0.352
		c1.253-0.724,1.683-2.326,0.959-3.58l-2.62-4.539c-0.485-0.841-1.366-1.311-2.272-1.311c-0.445,0-0.895,0.113-1.308,0.351
		c-1.253,0.724-1.683,2.326-0.959,3.58L641.748,121.085z"/>
	<path style="fill:#00AEFF;" d="M655.809,450.747c-0.413-0.238-0.863-0.352-1.308-0.351c-0.906,0-1.786,0.47-2.272,1.311
		l-2.62,4.539c-0.724,1.253-0.294,2.856,0.959,3.58c0.413,0.238,0.863,0.352,1.308,0.352c0.906,0,1.786-0.47,2.272-1.311l2.62-4.539
		C657.492,453.073,657.063,451.47,655.809,450.747z"/>
	<path style="fill:#00AEFF;" d="M609.601,96.474h5.241c1.447,0,2.62-1.173,2.62-2.62c0-1.447-1.173-2.62-2.62-2.62h-5.241
		c-1.447,0-2.62,1.173-2.62,2.62C606.981,95.3,608.154,96.474,609.601,96.474z"/>
	<path style="fill:#00AEFF;" d="M631.267,102.93l2.62,4.539c0.485,0.841,1.366,1.311,2.272,1.311c0.445,0,0.895-0.113,1.308-0.352
		c1.253-0.724,1.683-2.326,0.959-3.579l-2.62-4.539c-0.485-0.841-1.366-1.311-2.272-1.311c-0.444,0-0.895,0.113-1.308,0.351
		C630.972,100.075,630.543,101.677,631.267,102.93z"/>
	<path style="fill:#00AEFF;" d="M625.324,96.474h5.241c0.97,0,1.816-0.527,2.27-1.31l-2.27-3.931h-5.241
		c-1.447,0-2.62,1.173-2.62,2.62C622.703,95.3,623.877,96.474,625.324,96.474z"/>
	<path style="fill:#00AEFF;" d="M663.671,437.131c-0.413-0.238-0.863-0.352-1.308-0.352c-0.906,0-1.786,0.47-2.272,1.311
		l-2.62,4.539c-0.724,1.253-0.294,2.856,0.959,3.58c0.413,0.238,0.863,0.351,1.308,0.351c0.906,0,1.786-0.47,2.272-1.311l2.62-4.539
		C665.353,439.457,664.924,437.854,663.671,437.131z"/>
	<path style="fill:#00AEFF;" d="M593.879,96.474h5.241c1.447,0,2.62-1.173,2.62-2.62c0-1.447-1.173-2.62-2.62-2.62h-5.241
		c-1.447,0-2.62,1.173-2.62,2.62C591.258,95.3,592.432,96.474,593.879,96.474z"/>
	<path style="fill:#00AEFF;" d="M671.532,423.515c-0.413-0.238-0.863-0.352-1.308-0.351c-0.906,0-1.786,0.47-2.272,1.311
		l-2.62,4.539c-0.724,1.253-0.294,2.856,0.959,3.58c0.413,0.238,0.863,0.351,1.308,0.351c0.906,0,1.786-0.47,2.272-1.311l2.62-4.539
		C673.215,425.841,672.785,424.238,671.532,423.515z"/>
	<path style="fill:#00AEFF;" d="M622.703,497.093c0-1.447-1.173-2.62-2.62-2.62h-5.241c-1.447,0-2.62,1.173-2.62,2.62
		c0,1.447,1.173,2.62,2.62,2.62h5.241C621.53,499.713,622.703,498.54,622.703,497.093z"/>
	<path style="fill:#00AEFF;" d="M640.087,477.979c-0.413-0.238-0.863-0.352-1.308-0.351c-0.906,0-1.786,0.47-2.272,1.311
		l-2.62,4.539c-0.724,1.253-0.294,2.856,0.959,3.58c0.413,0.238,0.863,0.352,1.308,0.352c0.906,0,1.786-0.47,2.272-1.311l2.62-4.539
		C641.77,480.305,641.34,478.703,640.087,477.979z"/>
	<path style="fill:#00AEFF;" d="M646.287,472.481l2.62-4.539c0.724-1.253,0.294-2.856-0.959-3.58
		c-0.413-0.238-0.863-0.352-1.308-0.352c-0.906,0-1.786,0.47-2.272,1.311l-2.62,4.539c-0.211,0.366-0.313,0.762-0.336,1.157
		c-1.169-0.494-2.358-0.939-3.579-1.267c-1.395-0.376-2.835,0.452-3.211,1.849c-0.376,1.398,0.451,2.835,1.849,3.213
		c1.506,0.406,2.978,0.971,4.374,1.683c0.381,0.194,0.787,0.285,1.187,0.285c0.954,0,1.874-0.522,2.337-1.432
		c0.267-0.524,0.332-1.094,0.239-1.633C645.29,473.557,645.909,473.136,646.287,472.481z"/>
	<path style="fill:#00AEFF;" d="M632.226,491.595c-0.413-0.238-0.863-0.352-1.308-0.352c-0.906,0-1.786,0.47-2.272,1.311
		l-2.62,4.539c-0.485,0.84-0.452,1.836,0,2.62h4.539l2.62-4.539C633.909,493.921,633.479,492.319,632.226,491.595z"/>
	<path style="fill:#00AEFF;" d="M588.638,494.472h-5.241c-1.447,0-2.62,1.173-2.62,2.62c0,1.447,1.173,2.62,2.62,2.62h5.241
		c1.447,0,2.62-1.173,2.62-2.62C591.259,495.646,590.085,494.472,588.638,494.472z"/>
	<path style="fill:#00AEFF;" d="M562.434,96.474h5.241c1.447,0,2.62-1.173,2.62-2.62c0-1.447-1.173-2.62-2.62-2.62h-5.241
		c-1.447,0-2.62,1.173-2.62,2.62C559.814,95.3,560.987,96.474,562.434,96.474z"/>
	<path style="fill:#00AEFF;" d="M572.916,494.472h-5.241c-1.447,0-2.62,1.173-2.62,2.62c0,1.447,1.173,2.62,2.62,2.62h5.241
		c1.447,0,2.62-1.173,2.62-2.62C575.536,495.646,574.363,494.472,572.916,494.472z"/>
	<path style="fill:#00AEFF;" d="M578.156,96.474h5.241c1.447,0,2.62-1.173,2.62-2.62c0-1.447-1.173-2.62-2.62-2.62h-5.241
		c-1.447,0-2.62,1.173-2.62,2.62C575.536,95.3,576.709,96.474,578.156,96.474z"/>
	<path style="fill:#00AEFF;" d="M557.193,494.472h-5.241c-1.447,0-2.62,1.173-2.62,2.62c0,1.447,1.173,2.62,2.62,2.62h5.241
		c1.447,0,2.62-1.173,2.62-2.62C559.814,495.646,558.641,494.472,557.193,494.472z"/>
	<path style="fill:#00AEFF;" d="M726.56,328.203c-0.413-0.238-0.863-0.352-1.308-0.352c-0.906,0-1.786,0.47-2.272,1.311l-2.62,4.539
		c-0.724,1.253-0.294,2.856,0.959,3.58c0.413,0.238,0.863,0.351,1.308,0.351c0.906,0,1.786-0.47,2.272-1.311l2.62-4.539
		C728.243,330.529,727.814,328.926,726.56,328.203z"/>
	<path style="fill:#00AEFF;" d="M734.422,314.587c-0.413-0.238-0.863-0.352-1.308-0.352c-0.906,0-1.786,0.47-2.272,1.311
		l-2.62,4.539c-0.724,1.253-0.294,2.856,0.959,3.58c0.413,0.238,0.863,0.351,1.308,0.351c0.906,0,1.786-0.47,2.272-1.311l2.62-4.539
		C736.104,316.913,735.675,315.31,734.422,314.587z"/>
	<path style="fill:#00AEFF;" d="M679.393,409.899c-0.413-0.238-0.863-0.352-1.308-0.352c-0.906,0-1.786,0.47-2.272,1.311
		l-2.62,4.539c-0.724,1.253-0.294,2.856,0.959,3.58c0.413,0.238,0.863,0.351,1.308,0.351c0.906,0,1.786-0.47,2.272-1.311l2.62-4.539
		C681.076,412.225,680.646,410.622,679.393,409.899z"/>
	<path style="fill:#00AEFF;" d="M745.855,290.922c-0.487-0.833-1.363-1.298-2.265-1.298c-0.445,0-0.895,0.113-1.308,0.352
		c-1.253,0.724-1.683,2.326-0.959,3.58l2.62,4.539c0.485,0.84,1.364,1.31,2.269,1.311l2.27-3.931L745.855,290.922z"/>
	<path style="fill:#00AEFF;" d="M718.699,341.819c-0.413-0.238-0.863-0.352-1.308-0.352c-0.906,0-1.786,0.47-2.272,1.311
		l-2.62,4.539c-0.724,1.253-0.294,2.856,0.959,3.58c0.413,0.238,0.863,0.351,1.308,0.351c0.906,0,1.786-0.47,2.272-1.311l2.62-4.539
		C720.382,344.145,719.952,342.542,718.699,341.819z"/>
	<path style="fill:#00AEFF;" d="M742.283,300.971c-0.413-0.238-0.863-0.352-1.308-0.352c-0.906,0-1.786,0.47-2.272,1.311
		l-2.62,4.539c-0.724,1.253-0.294,2.856,0.959,3.58c0.413,0.238,0.863,0.351,1.308,0.351c0.906,0,1.786-0.47,2.272-1.311l2.62-4.539
		C743.966,303.297,743.536,301.694,742.283,300.971z"/>
	<path style="fill:#00AEFF;" d="M687.254,396.283c-0.413-0.238-0.863-0.352-1.308-0.352c-0.906,0-1.786,0.47-2.272,1.311
		l-2.62,4.539c-0.724,1.253-0.294,2.856,0.959,3.58c0.413,0.238,0.863,0.351,1.308,0.351c0.906,0,1.786-0.47,2.272-1.311l2.62-4.539
		C688.937,398.609,688.508,397.006,687.254,396.283z"/>
	<path style="fill:#00AEFF;" d="M710.838,355.435c-0.413-0.238-0.863-0.352-1.308-0.352c-0.906,0-1.786,0.47-2.272,1.311
		l-2.62,4.539c-0.724,1.253-0.294,2.856,0.959,3.58c0.413,0.238,0.863,0.351,1.308,0.351c0.906,0,1.786-0.47,2.272-1.311l2.62-4.539
		C712.521,357.761,712.091,356.158,710.838,355.435z"/>
	<path style="fill:#00AEFF;" d="M695.115,382.667c-0.413-0.238-0.863-0.352-1.308-0.352c-0.906,0-1.786,0.47-2.272,1.311
		l-2.62,4.539c-0.724,1.253-0.294,2.856,0.959,3.58c0.413,0.238,0.863,0.351,1.308,0.351c0.906,0,1.786-0.47,2.272-1.311l2.62-4.539
		C696.798,384.993,696.369,383.39,695.115,382.667z"/>
	<path style="fill:#00AEFF;" d="M702.977,369.051c-0.413-0.238-0.863-0.352-1.308-0.352c-0.906,0-1.786,0.47-2.272,1.311
		l-2.62,4.539c-0.724,1.253-0.294,2.856,0.959,3.58c0.413,0.238,0.863,0.351,1.308,0.351c0.906,0,1.786-0.47,2.272-1.311l2.62-4.539
		C704.659,371.377,704.23,369.774,702.977,369.051z"/>
	<path style="fill:#00AEFF;" d="M447.136,494.472h-5.241c-1.447,0-2.62,1.173-2.62,2.62c0,1.447,1.173,2.62,2.62,2.62h5.241
		c1.447,0,2.62-1.173,2.62-2.62C449.757,495.646,448.584,494.472,447.136,494.472z"/>
	<path style="fill:#00AEFF;" d="M478.581,494.472h-5.241c-1.447,0-2.62,1.173-2.62,2.62c0,1.447,1.173,2.62,2.62,2.62h5.241
		c1.447,0,2.62-1.173,2.62-2.62C481.202,495.646,480.028,494.472,478.581,494.472z"/>
	<path style="fill:#00AEFF;" d="M468.1,96.474h5.241c1.447,0,2.62-1.173,2.62-2.62c0-1.447-1.173-2.62-2.62-2.62H468.1
		c-1.447,0-2.62,1.173-2.62,2.62C465.479,95.3,466.652,96.474,468.1,96.474z"/>
	<path style="fill:#00AEFF;" d="M483.822,96.474h5.241c1.447,0,2.62-1.173,2.62-2.62c0-1.447-1.173-2.62-2.62-2.62h-5.241
		c-1.447,0-2.62,1.173-2.62,2.62C481.202,95.3,482.375,96.474,483.822,96.474z"/>
	<path style="fill:#00AEFF;" d="M462.859,494.472h-5.241c-1.447,0-2.62,1.173-2.62,2.62c0,1.447,1.173,2.62,2.62,2.62h5.241
		c1.447,0,2.62-1.173,2.62-2.62C465.479,495.646,464.306,494.472,462.859,494.472z"/>
	<path style="fill:#00AEFF;" d="M494.304,494.472h-5.241c-1.447,0-2.62,1.173-2.62,2.62c0,1.447,1.173,2.62,2.62,2.62h5.241
		c1.447,0,2.62-1.173,2.62-2.62C496.924,495.646,495.751,494.472,494.304,494.472z"/>
	<path style="fill:#00AEFF;" d="M399.969,494.472h-5.241c-0.97,0-1.816,0.527-2.27,1.31l2.27,3.931c0,0,0,0,0,0h5.241
		c1.447,0,2.62-1.173,2.62-2.62C402.59,495.646,401.416,494.472,399.969,494.472z"/>
	<path style="fill:#00AEFF;" d="M415.692,494.472h-5.241c-1.447,0-2.62,1.173-2.62,2.62c0,1.447,1.173,2.62,2.62,2.62h5.241
		c1.447,0,2.62-1.173,2.62-2.62C418.312,495.646,417.139,494.472,415.692,494.472z"/>
	<path style="fill:#00AEFF;" d="M546.712,96.474h5.241c1.447,0,2.62-1.173,2.62-2.62c0-1.447-1.173-2.62-2.62-2.62h-5.241
		c-1.447,0-2.62,1.173-2.62,2.62C544.091,95.3,545.264,96.474,546.712,96.474z"/>
	<path style="fill:#00AEFF;" d="M431.414,494.472h-5.241c-1.447,0-2.62,1.173-2.62,2.62c0,1.447,1.173,2.62,2.62,2.62h5.241
		c1.447,0,2.62-1.173,2.62-2.62C434.034,495.646,432.861,494.472,431.414,494.472z"/>
	<path style="fill:#00AEFF;" d="M436.655,96.474h5.241c1.447,0,2.62-1.173,2.62-2.62c0-1.447-1.173-2.62-2.62-2.62h-5.241
		c-1.447,0-2.62,1.173-2.62,2.62C434.034,95.3,435.207,96.474,436.655,96.474z"/>
	<path style="fill:#00AEFF;" d="M499.544,96.474h5.241c1.447,0,2.62-1.173,2.62-2.62c0-1.447-1.173-2.62-2.62-2.62h-5.241
		c-1.447,0-2.62,1.173-2.62,2.62C496.924,95.3,498.097,96.474,499.544,96.474z"/>
	<path style="fill:#00AEFF;" d="M452.377,96.474h5.241c1.447,0,2.62-1.173,2.62-2.62c0-1.447-1.173-2.62-2.62-2.62h-5.241
		c-1.447,0-2.62,1.173-2.62,2.62C449.757,95.3,450.93,96.474,452.377,96.474z"/>
	<path style="fill:#00AEFF;" d="M510.026,494.472h-5.241c-1.447,0-2.62,1.173-2.62,2.62c0,1.447,1.173,2.62,2.62,2.62h5.241
		c1.447,0,2.62-1.173,2.62-2.62C512.646,495.646,511.473,494.472,510.026,494.472z"/>
	<path style="fill:#00AEFF;" d="M541.471,494.472h-5.241c-1.447,0-2.62,1.173-2.62,2.62c0,1.447,1.173,2.62,2.62,2.62h5.241
		c1.447,0,2.62-1.173,2.62-2.62C544.091,495.646,542.918,494.472,541.471,494.472z"/>
	<path style="fill:#00AEFF;" d="M530.989,96.474h5.241c1.447,0,2.62-1.173,2.62-2.62c0-1.447-1.173-2.62-2.62-2.62h-5.241
		c-1.447,0-2.62,1.173-2.62,2.62C528.369,95.3,529.542,96.474,530.989,96.474z"/>
	<path style="fill:#00AEFF;" d="M525.748,494.472h-5.241c-1.447,0-2.62,1.173-2.62,2.62c0,1.447,1.173,2.62,2.62,2.62h5.241
		c1.447,0,2.62-1.173,2.62-2.62C528.369,495.646,527.196,494.472,525.748,494.472z"/>
	<path style="fill:#00AEFF;" d="M515.267,96.474h5.241c1.447,0,2.62-1.173,2.62-2.62c0-1.447-1.173-2.62-2.62-2.62h-5.241
		c-1.447,0-2.62,1.173-2.62,2.62C512.646,95.3,513.82,96.474,515.267,96.474z"/>
	<path style="fill:#00AEFF;" d="M378.327,111.334c1.148-0.881,1.365-2.526,0.484-3.674c-0.953-1.242-1.779-2.586-2.453-3.993
		c-0.626-1.304-2.191-1.855-3.496-1.231c-1.305,0.626-1.856,2.19-1.231,3.496c0.831,1.734,1.848,3.389,3.021,4.918
		c0.516,0.673,1.294,1.026,2.081,1.026C377.291,111.875,377.852,111.699,378.327,111.334z"/>
	<path style="fill:#00AEFF;" d="M374.338,82.001c0.448,0.301,0.956,0.445,1.458,0.445c0.844,0,1.673-0.407,2.178-1.16
		c0.871-1.298,1.881-2.51,3.002-3.604c1.036-1.011,1.056-2.67,0.045-3.705c-1.01-1.034-2.668-1.056-3.705-0.045
		c-1.379,1.345-2.621,2.837-3.693,4.433C372.816,79.566,373.137,81.194,374.338,82.001z"/>
	<path style="fill:#00AEFF;" d="M371.537,97.311c0.027,0,0.055-0.001,0.083-0.001c1.446-0.045,2.583-1.255,2.537-2.701
		c-0.008-0.237-0.012-0.475-0.011-0.72c0-1.33,0.116-2.663,0.345-3.96c0.251-1.425-0.701-2.784-2.126-3.036
		c-1.425-0.248-2.784,0.701-3.036,2.126c-0.281,1.597-0.424,3.236-0.424,4.863c-0.001,0.297,0.004,0.594,0.013,0.89
		C368.963,96.191,370.127,97.311,371.537,97.311z"/>
	<path style="fill:#00AEFF;" d="M419.476,91.675c-0.702,0.47-1.164,1.27-1.164,2.178c0,0.844,0.406,1.586,1.025,2.066
		c-0.079,0.887-0.195,1.77-0.376,2.636c-0.296,1.417,0.612,2.805,2.029,3.101c0.18,0.038,0.361,0.056,0.539,0.056
		c1.214,0,2.304-0.849,2.562-2.084c0.217-1.038,0.369-2.093,0.467-3.155h1.616c1.447,0,2.62-1.173,2.62-2.62
		c0-1.447-1.173-2.62-2.62-2.62h-1.77c-0.428-0.973-1.419-1.626-2.555-1.561C420.673,89.746,419.739,90.588,419.476,91.675z"/>
	<path style="fill:#00AEFF;" d="M399.802,121.6c0.103,0,0.207-0.006,0.312-0.019c1.915-0.227,3.81-0.655,5.633-1.272
		c1.371-0.464,2.105-1.952,1.642-3.323c-0.464-1.37-1.949-2.104-3.323-1.642c-1.478,0.501-3.016,0.848-4.57,1.033
		c-1.437,0.17-2.464,1.473-2.293,2.911C397.362,120.62,398.493,121.6,399.802,121.6z"/>
	<path style="fill:#00AEFF;" d="M402.694,72.017c1.508,0.406,2.979,0.972,4.373,1.682c0.381,0.194,0.788,0.287,1.188,0.287
		c0.954,0,1.874-0.523,2.336-1.431c0.658-1.289,0.145-2.867-1.145-3.524c-1.718-0.876-3.532-1.574-5.391-2.073
		c-1.396-0.376-2.836,0.452-3.211,1.85C400.468,70.204,401.297,71.641,402.694,72.017z"/>
	<path style="fill:#00AEFF;" d="M416.908,83.469c0.466,0.899,1.381,1.414,2.328,1.414c0.407,0,0.82-0.095,1.205-0.295
		c1.285-0.667,1.786-2.249,1.12-3.533c-0.885-1.706-1.954-3.328-3.175-4.82c-0.918-1.121-2.569-1.285-3.688-0.368
		c-1.12,0.917-1.285,2.568-0.368,3.688C415.322,80.768,416.19,82.084,416.908,83.469z"/>
	<path style="fill:#00AEFF;" d="M415.63,114.456c1.42-1.301,2.709-2.753,3.831-4.316c0.844-1.176,0.575-2.813-0.6-3.657
		c-1.176-0.843-2.812-0.574-3.657,0.6c-0.912,1.271-1.96,2.451-3.114,3.508c-1.067,0.978-1.139,2.635-0.162,3.702
		c0.517,0.564,1.223,0.85,1.933,0.85C414.492,115.145,415.127,114.917,415.63,114.456z"/>
	<path style="fill:#00AEFF;" d="M387.926,72.842c0.305,0,0.616-0.054,0.919-0.167c1.461-0.548,2.987-0.944,4.535-1.178
		c1.431-0.217,2.416-1.553,2.199-2.983c-0.217-1.432-1.563-2.414-2.983-2.199c-1.907,0.289-3.787,0.777-5.589,1.452
		c-1.355,0.508-2.042,2.018-1.535,3.373C385.866,72.193,386.865,72.842,387.926,72.842z"/>
	<path style="fill:#00AEFF;" d="M605.398,500.103c1.446-0.045,2.583-1.254,2.537-2.701c-0.008-0.239-0.012-0.479-0.012-0.72
		c0-1.331,0.116-2.661,0.345-3.957c0.251-1.425-0.7-2.784-2.125-3.036c-1.423-0.247-2.785,0.7-3.036,2.125
		c-0.154,0.876-0.258,1.765-0.328,2.659h-3.659c-1.447,0-2.62,1.173-2.62,2.62c0,1.447,1.173,2.62,2.62,2.62h4.83
		c0.399,0.245,0.865,0.391,1.365,0.391C605.342,500.105,605.37,500.105,605.398,500.103z"/>
	<path style="fill:#00AEFF;" d="M626.373,469.108c-1.905,0.288-3.785,0.777-5.589,1.452c-1.355,0.508-2.042,2.018-1.535,3.374
		c0.395,1.052,1.393,1.702,2.455,1.702c0.305,0,0.616-0.055,0.919-0.168c1.464-0.549,2.989-0.946,4.534-1.178
		c1.431-0.216,2.416-1.552,2.199-2.983C629.139,469.877,627.806,468.89,626.373,469.108z"/>
	<path style="fill:#00AEFF;" d="M611.093,476.724c-1.377,1.343-2.62,2.835-3.693,4.435c-0.807,1.201-0.486,2.829,0.715,3.635
		c0.448,0.302,0.956,0.445,1.458,0.445c0.844,0,1.672-0.407,2.178-1.16c0.872-1.299,1.882-2.512,3.001-3.603
		c1.036-1.011,1.057-2.669,0.046-3.705C613.786,475.735,612.128,475.715,611.093,476.724z"/>
	<path style="fill:#00AEFF;" d="M655.625,492.466c-1.444,0.091-2.542,1.336-2.451,2.779c0.03,0.476,0.045,0.954,0.045,1.437
		c0,1.571-0.162,3.141-0.48,4.666c-0.296,1.416,0.612,2.805,2.028,3.102c0.181,0.037,0.361,0.055,0.539,0.055
		c1.214,0,2.304-0.848,2.562-2.084c0.393-1.876,0.592-3.806,0.592-5.739c0-0.592-0.019-1.181-0.055-1.764
		C658.315,493.473,657.096,492.379,655.625,492.466z"/>
	<path style="fill:#00AEFF;" d="M637.845,518.138c-1.475,0.5-3.013,0.848-4.572,1.035c-1.437,0.171-2.462,1.477-2.29,2.913
		c0.159,1.331,1.29,2.308,2.599,2.308c0.104,0,0.209-0.006,0.315-0.019c1.919-0.229,3.812-0.658,5.63-1.273
		c1.371-0.464,2.105-1.953,1.642-3.323C640.703,518.408,639.219,517.672,637.845,518.138z"/>
	<path style="fill:#00AEFF;" d="M623.982,518.358c-1.494-0.454-2.947-1.066-4.317-1.821c-1.268-0.7-2.86-0.235-3.56,1.031
		c-0.698,1.268-0.236,2.862,1.031,3.56c1.689,0.93,3.479,1.685,5.321,2.245c0.254,0.077,0.51,0.114,0.763,0.114
		c1.124,0,2.163-0.729,2.507-1.859C626.148,520.243,625.366,518.779,623.982,518.358z"/>
	<path style="fill:#00AEFF;" d="M648.475,478.662c-1.12,0.916-1.285,2.567-0.369,3.688c0.993,1.213,1.86,2.531,2.579,3.915
		c0.466,0.899,1.381,1.414,2.328,1.414c0.407,0,0.82-0.095,1.205-0.294c1.284-0.667,1.786-2.248,1.119-3.533
		c-0.885-1.706-1.953-3.328-3.175-4.821C651.246,477.908,649.594,477.747,648.475,478.662z"/>
	<path style="fill:#00AEFF;" d="M652.638,509.276c-1.175-0.839-2.812-0.576-3.657,0.601c-0.914,1.272-1.961,2.452-3.113,3.506
		c-1.068,0.978-1.141,2.635-0.164,3.703c0.517,0.564,1.224,0.851,1.934,0.851c0.632,0,1.265-0.226,1.768-0.687
		c1.419-1.299,2.709-2.751,3.832-4.317C654.083,511.757,653.813,510.12,652.638,509.276z"/>
	<path style="fill:#00AEFF;" d="M610.137,506.461c-0.624-1.304-2.19-1.858-3.495-1.231c-1.306,0.626-1.857,2.19-1.232,3.496
		c0.83,1.734,1.847,3.388,3.022,4.918c0.516,0.672,1.294,1.025,2.08,1.025c0.557,0,1.118-0.177,1.594-0.541
		c1.148-0.882,1.365-2.527,0.483-3.675C611.636,509.211,610.811,507.869,610.137,506.461z"/>
	<path style="fill:#00AEFF;" d="M730.38,219.777c0.721,1.248,2.331,1.68,3.58,0.959c1.248-0.721,1.68-2.331,0.959-3.58
		l-64.816-112.264l6.814-3.803l-17.532-10.464l-0.296,20.415l6.437-3.593L730.38,219.777z"/>
	<path style="fill:#00AEFF;" d="M298.835,371.006c-0.721-1.248-2.331-1.68-3.58-0.959c-1.248,0.721-1.68,2.331-0.959,3.58
		l64.816,112.264l-6.814,3.803l17.532,10.464l0.296-20.415l-6.437,3.593L298.835,371.006z"/>
	<path style="fill:#00AEFF;" d="M611.525,124.211H413.768L314.89,295.473l98.878,171.262h197.756l98.878-171.262L611.525,124.211z
		 M629.566,425.006l-63.2,36.489H458.277l-62.224-35.925l-55.27-95.73l0-68.732l55.691-96.46l60.959-35.195H569.27l58.843,33.973
		l56.397,97.682v68.732L629.566,425.006z"/>
</g>
<linearGradient id="SVGID_1_" gradientUnits="userSpaceOnUse" x1="512.6464" y1="527.1915" x2="512.6464" y2="959.558">
	<stop  offset="0" style="stop-color:#00AEFF"/>
	<stop  offset="1" style="stop-color:#00AEFF;stop-opacity:0.1"/>
</linearGradient>
<rect x="508.061" y="527.191" style="fill:url(#SVGID_1_);" width="9.171" height="432.367"/>
<path style="fill:#2FD1FF;" d="M601.599,263.519c-0.143-0.172-0.258-0.314-0.429-0.458l-7.129-6.929
	c5.927-1.346,12.312-6.356,12.312-11.481c0-5.955-8.217-8.074-15.261-8.074c-7.33,0-8.189,5.067-8.275,8.647l-18.439-17.894
	c-3.751-3.723-10.852-6.672-16.149-6.672h-71.808c-5.297,0-12.397,2.949-16.147,6.672l-18.411,17.866
	c-0.086-3.579-0.944-8.646-8.275-8.646c-7.043,0-15.261,2.118-15.261,8.074c0,5.125,6.385,10.107,12.312,11.481l-7.129,6.929
	c-0.172,0.144-0.287,0.315-0.429,0.458c-7.644,6.586-12.627,18.754-12.627,27.602v26.283c0,6.386,2.491,12.169,6.528,16.492v10.193
	c0,5.955,4.953,10.823,11.052,10.823h13.37c6.099,0,11.052-4.839,11.052-10.823v-2.605h119.795v2.605
	c0,5.955,4.953,10.823,11.052,10.823h13.372c6.099,0,11.052-4.867,11.052-10.823v-10.193c4.037-4.323,6.527-10.106,6.527-16.492
	v-26.283C614.227,282.272,609.245,270.104,601.599,263.519L601.599,263.519z M467.031,235.288c2.605-2.176,7.129-3.808,9.391-3.808
	h71.808c2.262,0,6.786,1.661,9.391,3.808l24.166,23.564H442.866L467.031,235.288z M429.953,301.713
	c-6.214,0-11.253-5.239-11.253-11.709c0-6.472,5.039-11.711,11.253-11.711c6.213,0,26.512,11.996,26.512,18.467
	c0,6.47-20.299,4.953-26.513,4.953H429.953z M546.255,316.059h-67.857c-7.073,0-12.799-8.762-12.799-19.584h93.454
	C559.053,307.269,553.326,316.059,546.255,316.059L546.255,316.059z M594.699,301.713c-6.213,0-26.514,1.489-26.514-4.981
	c0-6.471,20.301-18.468,26.514-18.468c6.213,0,11.252,5.24,11.252,11.711C605.951,296.474,600.912,301.713,594.699,301.713
	L594.699,301.713z M594.699,301.713"/>
<rect x="410.486" y="220.442" style="fill:none;" width="204.019" height="134.689"/>
</svg>
